<?xml version="1.0" encoding="UTF-8" standalone="no"?>
<!-- Generator: Adobe Illustrator 16.0.0, SVG Export Plug-In . SVG Version: 6.00 Build 0)  -->

<svg
   xmlns:dc="http://purl.org/dc/elements/1.1/"
   xmlns:cc="http://creativecommons.org/ns#"
   xmlns:rdf="http://www.w3.org/1999/02/22-rdf-syntax-ns#"
   xmlns:svg="http://www.w3.org/2000/svg"
   xmlns="http://www.w3.org/2000/svg"
   xmlns:sodipodi="http://sodipodi.sourceforge.net/DTD/sodipodi-0.dtd"
   xmlns:inkscape="http://www.inkscape.org/namespaces/inkscape"
   version="1.1"
   id="Capa_1"
   x="0px"
   y="0px"
   width="550.801px"
   height="550.801px"
   viewBox="0 0 550.801 550.801"
   enable-background="new 0 0 550.801 550.801"
   xml:space="preserve"
   sodipodi:docname="icon.svg"
   inkscape:version="0.92.1 r"><metadata
     id="metadata9813"><rdf:RDF><cc:Work
         rdf:about=""><dc:format>image/svg+xml</dc:format><dc:type
           rdf:resource="http://purl.org/dc/dcmitype/StillImage" /></cc:Work></rdf:RDF></metadata><defs
     id="defs9811" /><sodipodi:namedview
     pagecolor="#ffffff"
     bordercolor="#666666"
     borderopacity="1"
     objecttolerance="10"
     gridtolerance="10"
     guidetolerance="10"
     inkscape:pageopacity="0"
     inkscape:pageshadow="2"
     inkscape:window-width="1065"
     inkscape:window-height="750"
     id="namedview9809"
     showgrid="false"
     inkscape:zoom="0.42846689"
     inkscape:cx="275.40051"
     inkscape:cy="275.40051"
     inkscape:window-x="0"
     inkscape:window-y="23"
     inkscape:window-maximized="0"
     inkscape:current-layer="Capa_1" /><g
     id="g9806"
     transform="matrix(0.56978497,0,0,0.56714246,-26.220682,-26.490117)"><path
       d="m 171.752,116.902 c -3.501,-6.146 -1.286,-13.148 4.359,-16.65 2.215,-1.286 4.788,-1.715 7.003,-1.715 3.93,0.43 7.432,2.645 9.646,6.146 l 16.151,27.584 -21.439,12.22 z m 207.738,0 c 3.499,-6.146 1.286,-13.578 -4.788,-16.65 -6.146,-3.501 -13.577,-0.857 -17.078,4.359 v 0 l -15.724,27.584 21.439,12.22 z M 287.663,85.817 c 0,-7.003 -5.717,-12.219 -12.222,-12.219 -7.003,0 -12.648,5.216 -12.648,12.219 v 31.943 h 24.941 V 85.817 Z m 159.642,86.61 c -2.215,-3.501 -5.717,-5.716 -9.646,-6.146 -2.216,0 -4.788,0 -7.003,1.287 l -27.586,16.15 12.222,21.438 28.013,-16.148 c 5.286,-3.003 7.502,-10.435 4,-16.581 z m -24.94,259.761 h -9.646 c 0.857,-1.286 1.286,-3.074 1.286,-4.789 V 414.25 c 0,-6.146 -4.788,-10.934 -10.933,-10.934 h -8.29 -237.464 -8.719 c -6.146,0 -10.933,4.788 -10.933,10.934 v 13.148 c 0,1.715 0.428,3.503 1.286,4.789 h -9.647 c -6.146,0 -10.933,4.788 -10.933,10.934 v 13.147 c 0,6.146 4.787,10.935 10.933,10.935 h 293.489 c 6.146,0 10.934,-4.789 10.934,-10.935 v -13.147 c -0.429,-5.647 -5.217,-10.933 -11.363,-10.933 z M 390.424,391.526 H 160.819 v -115.41 -1.714 -4.002 c 0,-63.385 51.595,-114.551 115.052,-114.551 v 0 c 63.386,0 115.052,51.166 115.052,114.551 v 3.503 1.714 115.909 z M 258.792,290.98 c 0,-32.8 -26.656,-59.454 -59.456,-59.454 v 119.41 c 32.8,-0.071 59.456,-26.728 59.456,-59.956 z m 92.685,-59.527 c -32.8,0 -59.454,26.656 -59.454,59.455 0,32.801 26.654,59.456 59.454,59.456 z M 148.17,184.218 120.157,168.069 c -1.286,-0.858 -3.073,-1.287 -4.359,-1.287 -4.788,-0.428 -9.647,1.715 -12.22,6.146 -3.501,6.146 -1.715,13.148 4.359,16.65 l 28.012,16.15 z"
       id="path9804"
       inkscape:connector-curvature="0" /></g><path
     id="path10405"
     d="m 520.73495,366.33545 c 0,91.38632 -73.94209,165.73969 -164.80846,165.73969 -90.87984,0 -164.82113,-74.35417 -164.82113,-165.73969 0,-47.26211 20.15731,-92.43175 55.30778,-123.85695 5.22515,-4.68135 13.26018,-4.23354 17.9037,1.04623 4.6554,5.27897 4.18471,13.29742 -1.04043,17.97877 -29.7526,26.64425 -46.81395,64.84167 -46.81395,104.83275 0,77.34226 62.56308,140.24127 139.46403,140.24127 76.90095,0 139.45136,-62.8998 139.45136,-140.24127 0,-39.99108 -17.0368,-78.1885 -46.75215,-104.78255 -5.24971,-4.68135 -5.74497,-12.74921 -1.08956,-17.97877 4.70533,-5.32917 12.72847,-5.77698 17.92826,-1.09564 35.11324,31.42441 55.27055,76.59405 55.27055,123.85616 z M 355.9257,328.08783 c 7.00806,0 12.67855,-5.67738 12.67855,-12.74921 V 187.84656 c 0,-7.02242 -5.67049,-12.74921 -12.67855,-12.74921 -7.00807,0 -12.67855,5.72758 -12.67855,12.74921 v 127.49206 c 0,7.07183 5.67127,12.74921 12.67855,12.74921 z"
     inkscape:connector-curvature="0"
     style="stroke-width:0.79461432" /></svg>