<?xml version="1.0" encoding="utf-8"?>
<!-- Generator: Adobe Illustrator 17.0.0, SVG Export Plug-In . SVG Version: 6.00 Build 0)  -->
<!DOCTYPE svg PUBLIC "-//W3C//DTD SVG 1.1//EN" "http://www.w3.org/Graphics/SVG/1.1/DTD/svg11.dtd">
<svg version="1.1" id="Layer_1" xmlns="http://www.w3.org/2000/svg" xmlns:xlink="http://www.w3.org/1999/xlink" x="0px" y="0px"
	 width="198.781px" height="174.314px" viewBox="0 0 198.781 174.314" enable-background="new 0 0 198.781 174.314"
	 xml:space="preserve">
<rect x="6.813" y="0.25" fill-rule="evenodd" clip-rule="evenodd" fill="#2B2A29" width="185.25" height="25.029"/>
<rect x="6.813" y="0.25" fill="none" stroke="#2B2A29" stroke-width="0.5" stroke-miterlimit="22.9256" width="185.25" height="25.029"/>
<rect x="193.656" y="5.969" fill-rule="evenodd" clip-rule="evenodd" fill="#2B2A29" width="4.875" height="14.719"/>
<rect x="193.656" y="5.969" fill="none" stroke="#2B2A29" stroke-width="0.5" stroke-miterlimit="22.9256" width="4.875" height="14.719"/>
<rect x="15.624" y="27.156" fill-rule="evenodd" clip-rule="evenodd" fill="#2B2A29" width="168.189" height="11.812"/>
<rect x="15.624" y="27.156" fill="none" stroke="#2B2A29" stroke-width="0.5" stroke-miterlimit="22.9256" width="168.189" height="11.812"/>
<rect x="15.624" y="41.329" fill-rule="evenodd" clip-rule="evenodd" fill="#2B2A29" width="168.189" height="11.812"/>
<rect x="15.624" y="41.329" fill="none" stroke="#2B2A29" stroke-width="0.5" stroke-miterlimit="22.9256" width="168.189" height="11.812"/>
<rect x="15.624" y="55.503" fill-rule="evenodd" clip-rule="evenodd" fill="#2B2A29" width="168.189" height="11.812"/>
<rect x="15.624" y="55.503" fill="none" stroke="#2B2A29" stroke-width="0.5" stroke-miterlimit="22.9256" width="168.189" height="11.812"/>
<rect x="15.624" y="69.676" fill-rule="evenodd" clip-rule="evenodd" fill="#2B2A29" width="168.189" height="11.812"/>
<rect x="15.624" y="69.676" fill="none" stroke="#2B2A29" stroke-width="0.5" stroke-miterlimit="22.9256" width="168.189" height="11.812"/>
<rect x="15.624" y="83.849" fill-rule="evenodd" clip-rule="evenodd" fill="#2B2A29" width="168.189" height="11.812"/>
<rect x="15.624" y="83.849" fill="none" stroke="#2B2A29" stroke-width="0.5" stroke-miterlimit="22.9256" width="168.189" height="11.812"/>
<rect x="11.688" y="168.158" fill-rule="evenodd" clip-rule="evenodd" fill="#2B2A29" width="176.062" height="5.906"/>
<rect x="11.688" y="168.158" fill="none" stroke="#2B2A29" stroke-width="0.5" stroke-miterlimit="22.9256" width="176.062" height="5.906"/>
<rect x="193.656" y="27.344" fill-rule="evenodd" clip-rule="evenodd" fill="#2B2A29" width="1.968" height="66.564"/>
<rect x="193.656" y="27.344" fill="none" stroke="#2B2A29" stroke-width="0.5" stroke-miterlimit="22.9256" width="1.968" height="66.564"/>
<rect x="0.25" y="5.969" fill-rule="evenodd" clip-rule="evenodd" fill="#2B2A29" width="4.875" height="14.719"/>
<rect x="0.25" y="5.969" fill="none" stroke="#2B2A29" stroke-width="0.5" stroke-miterlimit="22.9256" width="4.875" height="14.719"/>
</svg>
