<?xml version="1.0" encoding="UTF-8" standalone="no"?>
<svg
   xmlns:dc="http://purl.org/dc/elements/1.1/"
   xmlns:cc="http://creativecommons.org/ns#"
   xmlns:rdf="http://www.w3.org/1999/02/22-rdf-syntax-ns#"
   xmlns:svg="http://www.w3.org/2000/svg"
   xmlns="http://www.w3.org/2000/svg"
   xmlns:sodipodi="http://sodipodi.sourceforge.net/DTD/sodipodi-0.dtd"
   xmlns:inkscape="http://www.inkscape.org/namespaces/inkscape"
   version="1.1"
   x="0px"
   y="0px"
   viewBox="0 0 100 125"
   style="enable-background:new 0 0 100 100;"
   xml:space="preserve"
   id="svg5286"
   sodipodi:docname="noun_577815_cc.svg"
   inkscape:version="0.92.1 r"><metadata
     id="metadata5292"><rdf:RDF><cc:Work
         rdf:about=""><dc:format>image/svg+xml</dc:format><dc:type
           rdf:resource="http://purl.org/dc/dcmitype/StillImage" /></cc:Work></rdf:RDF></metadata><defs
     id="defs5290" /><sodipodi:namedview
     pagecolor="#ffffff"
     bordercolor="#666666"
     borderopacity="1"
     objecttolerance="10"
     gridtolerance="10"
     guidetolerance="10"
     inkscape:pageopacity="0"
     inkscape:pageshadow="2"
     inkscape:window-width="1059"
     inkscape:window-height="621"
     id="namedview5288"
     showgrid="false"
     inkscape:zoom="1.888"
     inkscape:cx="44.70339"
     inkscape:cy="62.5"
     inkscape:window-x="302"
     inkscape:window-y="148"
     inkscape:window-maximized="0"
     inkscape:current-layer="svg5286" /><g
     id="g5280"><path
       d="M95.421,65.736L84.605,26.983c-0.752-2.678-2.656-4.843-5.217-5.935c-1.855-0.799-4.094-0.948-6.045-0.4   c-2.048,0.573-3.796,1.813-5.006,3.533c-0.969-1.396-2.321-2.508-3.938-3.199c-1.867-0.792-4.116-0.929-6.026-0.387   c-2.033,0.563-3.714,1.779-4.882,3.357c-0.979-1.634-2.455-2.929-4.253-3.691c-1.844-0.792-4.067-0.943-6.041-0.397   c-1.908,0.534-3.506,1.644-4.66,3.089L34.825,9.661c-0.756-2.679-2.66-4.845-5.234-5.947c-1.871-0.787-4.096-0.926-6.013-0.386   c-2.355,0.656-4.312,2.187-5.514,4.314c-1.204,2.139-1.5,4.607-0.838,6.942L28.81,56.087l-11.158-5.984   c-0.46-0.252-0.772-0.386-0.906-0.436c-0.934-0.416-2.001-0.667-3.149-0.729l-0.453-0.012c-3.289,0-6.339,1.774-7.963,4.638   c-1.199,2.125-1.493,4.594-0.83,6.949c0.664,2.354,2.205,4.313,4.422,5.561c1.032,0.543,25.365,13.411,33.584,22.972   c0.042,0.049,0.085,0.095,0.13,0.14l3.892,3.813l0.256,0.229c1.456,1.226,2.887,2.128,4.375,2.761   c1.572,0.667,3.302,1.006,5.139,1.006c1.788,0,3.339-0.328,4.324-0.604L81.11,90.63c6.49-1.951,11.137-6.192,13.431-12.259   C96.334,73.68,96.27,68.631,95.421,65.736z M90.357,76.781c-1.786,4.721-5.429,8.026-10.494,9.549l-20.596,5.75   c-0.717,0.2-1.838,0.438-3.119,0.438c-1.233,0-2.374-0.218-3.39-0.65c-1.07-0.455-2.131-1.13-3.181-2.012l-3.89-3.802   C37.016,76.039,13.515,63.512,10.89,62.132C9.792,61.513,9,60.508,8.659,59.3c-0.338-1.2-0.188-2.457,0.418-3.532   c0.828-1.459,2.387-2.366,4.006-2.367l0.331,0.009c0.541,0.029,1.078,0.153,1.599,0.382c0.121,0.048,0.263,0.112,0.506,0.245   l15.196,8.151c0.353,0.189,0.752,0.277,1.149,0.264c0.452-0.019,0.853-0.11,1.193-0.273c0.257-0.125,0.488-0.297,0.681-0.508   c0.515-0.563,0.776-1.447,0.651-2.2c-0.014-0.078-0.03-0.156-0.052-0.232L21.535,13.372c-0.337-1.188-0.184-2.443,0.428-3.532   c0.612-1.083,1.612-1.864,2.822-2.201c0.966-0.272,2.131-0.193,3.058,0.196c1.312,0.562,2.286,1.671,2.671,3.037L41.26,49.324   c0.291,1.121,0.975,1.658,1.497,1.91c0.579,0.281,1.249,0.3,1.841,0.048l0.287-0.12c0.658-0.276,1.143-0.849,1.309-1.542   l0.086-0.357c0.088-0.37,0.082-0.757-0.021-1.124l-5.092-18.212c-0.682-2.48,0.771-5.06,3.233-5.75   c0.985-0.272,2.145-0.201,3.083,0.201c1.313,0.558,2.284,1.663,2.667,3.036l5.141,18.378c0.175,0.626,0.602,1.117,1.14,1.392   c0.083,0.046,0.169,0.09,0.259,0.131c0.559,0.25,1.193,0.26,1.762,0.029l0.359-0.146c1.047-0.428,1.61-1.569,1.313-2.661   l-3.786-13.889c-0.685-2.479,0.766-5.053,3.247-5.741c0.972-0.276,2.136-0.2,3.063,0.194c1.315,0.563,2.291,1.671,2.675,3.039   l3.8,13.622c0.199,0.737,0.73,1.36,1.422,1.668c0.338,0.149,0.708,0.216,1.074,0.186c0.778-0.058,1.492-0.439,1.959-1.046   c0.438-0.571,0.617-1.287,0.489-1.964c-0.012-0.063-0.026-0.126-0.044-0.188l-2.713-9.712c-0.334-1.194-0.18-2.454,0.437-3.544   c0.612-1.084,1.609-1.866,2.805-2.201c0.981-0.274,2.137-0.199,3.076,0.204c1.313,0.56,2.286,1.665,2.669,3.027l10.822,38.779   C91.639,68.746,91.868,72.826,90.357,76.781z"
       id="path5278" /></g></svg>