<?xml version="1.0" encoding="iso-8859-1"?>
<!-- Generator: Adobe Illustrator 18.1.1, SVG Export Plug-In . SVG Version: 6.00 Build 0)  -->
<svg version="1.1" id="Capa_1" xmlns="http://www.w3.org/2000/svg" xmlns:xlink="http://www.w3.org/1999/xlink" x="0px" y="0px"
	 viewBox="0 0 28.158 28.158" style="enable-background:new 0 0 28.158 28.158;" xml:space="preserve">
<g>
	<path d="M23.415,0v1.923h-2.249V0h-1.39v0.945H8.383V0H6.78v1.966H4.53V0H3.626v1.513v1.385v21.354v1.385v2.521h0.778v-2.252h2.25
		v2.252h1.729v-1.953h11.392v1.953h1.32v-2.252h2.252v2.252h1.185v-2.521v-1.385V2.898V1.513V0H23.415z M6.738,24.251h-2.25v-2.253
		h2.25V24.251z M6.738,19.677h-2.25v-2.252h2.25V19.677z M6.738,14.914h-2.25v-2.252h2.25V14.914z M6.738,10.34h-2.25V8.088h2.25
		V10.34z M6.738,5.958h-2.25V3.705h2.25V5.958z M19.746,24.221H8.089v-9.042h11.657V24.221z M19.746,12.777H8.089V3.52h11.657
		V12.777z M23.348,24.251h-2.252v-2.253h2.252V24.251z M23.348,19.677h-2.252v-2.252h2.252V19.677z M23.348,14.914h-2.252v-2.252
		h2.252V14.914z M23.348,10.34h-2.252V8.088h2.252V10.34z M23.348,5.958h-2.252V3.705h2.252V5.958z"/>
	<g>
	</g>
	<g>
	</g>
	<g>
	</g>
	<g>
	</g>
	<g>
	</g>
	<g>
	</g>
	<g>
	</g>
	<g>
	</g>
	<g>
	</g>
	<g>
	</g>
	<g>
	</g>
	<g>
	</g>
	<g>
	</g>
	<g>
	</g>
	<g>
	</g>
</g>
<g>
</g>
<g>
</g>
<g>
</g>
<g>
</g>
<g>
</g>
<g>
</g>
<g>
</g>
<g>
</g>
<g>
</g>
<g>
</g>
<g>
</g>
<g>
</g>
<g>
</g>
<g>
</g>
<g>
</g>
</svg>
