<svg xmlns="http://www.w3.org/2000/svg" xmlns:xlink="http://www.w3.org/1999/xlink" version="1.1" x="0px" y="0px" viewBox="0 0 100 125" style="enable-background:new 0 0 100 100;" xml:space="preserve"><g><path d="M79.2,65.5L63.7,50l15.5-15.5L65.5,20.8L50,36.3L34.5,20.8L20.8,34.5L36.3,50L20.8,65.5l13.7,13.7L50,63.7l15.5,15.5   L79.2,65.5z M91.8,50c0,23.1-18.7,41.8-41.8,41.8S8.1,73.1,8.1,50S26.9,8.2,50,8.2S91.8,26.9,91.8,50 M95,50C95,25.2,74.8,5,50,5   S5,25.2,5,50s20.2,45,45,45S95,74.8,95,50"/></g></svg>