<svg xmlns="http://www.w3.org/2000/svg" xmlns:xlink="http://www.w3.org/1999/xlink" version="1.1" x="0px" y="0px" viewBox="0 0 100 125" enable-background="new 0 0 100 100" xml:space="preserve"><path d="M65.751,47.375c-1.381,0-2.5,1.119-2.5,2.5v29.334L45.973,66.171c-1.104-0.831-2.669-0.612-3.502,0.49  c-0.831,1.103-0.612,2.67,0.49,3.502l21.284,16.061c0.442,0.333,0.973,0.504,1.506,0.504c0.38,0,0.762-0.087,1.115-0.263  c0.849-0.423,1.385-1.289,1.385-2.237V49.875C68.251,48.494,67.132,47.375,65.751,47.375z M88.87,15.508  c-0.916-1.032-2.497-1.126-3.529-0.211l-17.09,15.165V15.772c0-0.948-0.536-1.814-1.386-2.237c-0.847-0.422-1.862-0.33-2.62,0.242  l-27.42,20.691H24.11c-2.405,0-4.361,1.957-4.361,4.362v22.341c0,2.404,1.956,4.36,4.361,4.36h4.619L11.341,80.963  c-1.033,0.917-1.127,2.497-0.211,3.529c0.494,0.557,1.181,0.841,1.871,0.841c0.59,0,1.183-0.208,1.658-0.63l74-65.666  C89.692,18.12,89.786,16.54,88.87,15.508z M63.251,34.898L34.364,60.532h-9.615V39.469h12.914c0.543,0,1.072-0.177,1.506-0.505  l24.082-18.173V34.898z"/>
<text x="0" y="115" fill="#000000" font-size="5px" font-weight="bold" font-family="'Helvetica Neue', Helvetica, Arial-Unicode, Arial, Sans-serif">Created by myladkings</text>
<text x="0" y="120" fill="#000000" font-size="5px" font-weight="bold" font-family="'Helvetica Neue', Helvetica, Arial-Unicode, Arial, Sans-serif">from the Noun Project</text></svg>