<?xml version="1.0" encoding="UTF-8" standalone="no"?>
<svg
   xmlns:dc="http://purl.org/dc/elements/1.1/"
   xmlns:cc="http://creativecommons.org/ns#"
   xmlns:rdf="http://www.w3.org/1999/02/22-rdf-syntax-ns#"
   xmlns:svg="http://www.w3.org/2000/svg"
   xmlns="http://www.w3.org/2000/svg"
   xmlns:sodipodi="http://sodipodi.sourceforge.net/DTD/sodipodi-0.dtd"
   xmlns:inkscape="http://www.inkscape.org/namespaces/inkscape"
   version="1.1"
   x="0px"
   y="0px"
   viewBox="0 0 64 80"
   enable-background="new 0 0 64 64"
   xml:space="preserve"
   id="svg11922"
   sodipodi:docname="icon.svg"
   inkscape:version="0.92.1 r"><metadata
     id="metadata11928"><rdf:RDF><cc:Work
         rdf:about=""><dc:format>image/svg+xml</dc:format><dc:type
           rdf:resource="http://purl.org/dc/dcmitype/StillImage" /><dc:title></dc:title></cc:Work></rdf:RDF></metadata><defs
     id="defs11926" /><sodipodi:namedview
     pagecolor="#ffffff"
     bordercolor="#666666"
     borderopacity="1"
     objecttolerance="10"
     gridtolerance="10"
     guidetolerance="10"
     inkscape:pageopacity="0"
     inkscape:pageshadow="2"
     inkscape:window-width="1211"
     inkscape:window-height="726"
     id="namedview11924"
     showgrid="false"
     inkscape:zoom="2.95"
     inkscape:cx="28.610169"
     inkscape:cy="40"
     inkscape:window-x="163"
     inkscape:window-y="130"
     inkscape:window-maximized="0"
     inkscape:current-layer="svg11922" /><g
     id="g11916"><path
       fill="#000000"
       d="M40.774,28.835c-0.721-0.653-3.571-0.278-4.506-0.261c-1.688,0.032-3.374,0.139-5.058,0.246   c-0.493,0.031-4.673,0.56-4.821,0.249c-0.094-0.198-0.198-0.392-0.324-0.579l-7.341-10.776c-0.888-1.301-2.367-1.971-3.846-1.896   c-0.766,0.039-1.537,0.284-2.221,0.744c-1.985,1.356-2.507,4.083-1.151,6.067l7.341,10.776c0.172,0.25,0.367,0.483,0.575,0.686   c4.414-0.225,8.822-0.564,13.227-0.922c2.149-0.175,4.298-0.357,6.447-0.529c1.115-0.09,1.558,0.114,1.933-0.75   c0.253-0.589,0.241-2.521-0.215-3.016C40.801,28.86,40.787,28.847,40.774,28.835z"
       id="path11908" /><circle
       fill="#000000"
       cx="10.706"
       cy="10.762"
       r="4.874"
       id="circle11910" /><path
       fill="#000000"
       d="M47.11,34.727c-1.503-0.971-3.444-0.824-5.228-0.657c-7.878,0.762-15.757,1.513-23.635,2.275   c-3.057-4.915-6.073-9.861-9.141-14.776c-1.179-1.889-2.588-5.531-4.372-6.856c-1.357-1.012-3.381-0.292-3.798,1.388   c-0.376,1.524,0.376,3.078,1.075,4.487c5.792,11.646,9.913,24.126,12.209,36.919c1.284-0.031,2.567-0.063,3.861-0.094v-2.066   c-0.188-2.327,1.169-4.831,3.162-6.209c2.598-1.805,5.937-2.129,9.11-2.118c3.11,0.01,6.386,0.334,8.943,2.108   c2.003,1.389,2.804,3.488,3.019,5.838c0.087,0.955-0.226,2.404,0.506,2.897c0.835,0.562,4.059-0.001,5.111-0.002   c-0.374,0,0.718-7.072,0.766-7.617c0.146-1.576,0.282-3.162,0.428-4.748c0.073-0.897,0.157-1.784,0.24-2.682   C49.625,39.872,49.604,36.314,47.11,34.727z"
       id="path11912" /><path
       fill="#000000"
       d="M62.913,53.118l-9.619-13.932l-0.045-0.056c-0.041-0.051-0.083-0.104-0.126-0.147   c-0.309-0.343-0.712-0.6-1.165-0.744l-0.205-0.065v7.84l8.002,9.03c0.334,0.375,0.851,0.59,1.417,0.59   c0.358,0,0.713-0.088,1.028-0.254c0.476-0.256,0.813-0.668,0.924-1.132C63.22,53.854,63.145,53.453,62.913,53.118z"
       id="path11914" /></g></svg>