<svg xmlns="http://www.w3.org/2000/svg" xmlns:xlink="http://www.w3.org/1999/xlink" version="1.1" x="0px" y="0px" viewBox="0 0 100 125" enable-background="new 0 0 100 100" xml:space="preserve"><path d="M75.166,92.103c-0.533,0-1.063-0.171-1.506-0.505L41.83,67.579H26.986c-2.565,0-4.652-2.088-4.652-4.653V37.077  c0-2.567,2.087-4.655,4.652-4.655H41.83l31.83-24.02c0.758-0.571,1.773-0.664,2.62-0.242c0.85,0.423,1.386,1.289,1.386,2.237v79.205  c0,0.948-0.536,1.814-1.386,2.237C75.928,92.016,75.546,92.103,75.166,92.103z M27.334,62.579h15.334  c0.543,0,1.072,0.177,1.506,0.505l28.492,21.5V15.416L44.174,36.917c-0.434,0.328-0.962,0.505-1.506,0.505H27.334V62.579z"/></svg>