<?xml version="1.0" encoding="utf-8"?>
<!-- Generator: Adobe Illustrator 16.0.0, SVG Export Plug-In . SVG Version: 6.00 Build 0)  -->
<!DOCTYPE svg PUBLIC "-//W3C//DTD SVG 1.1//EN" "http://www.w3.org/Graphics/SVG/1.1/DTD/svg11.dtd">
<svg version="1.1" id="Capa_1" xmlns="http://www.w3.org/2000/svg" xmlns:xlink="http://www.w3.org/1999/xlink" x="0px" y="0px"
	 width="550.801px" height="550.801px" viewBox="0 0 550.801 550.801" enable-background="new 0 0 550.801 550.801"
	 xml:space="preserve">
<g>
	<path d="M171.752,116.902c-3.501-6.146-1.286-13.148,4.359-16.65c2.215-1.286,4.788-1.715,7.003-1.715
		c3.93,0.43,7.432,2.645,9.646,6.146l16.151,27.584l-21.439,12.22L171.752,116.902z M379.49,116.902
		c3.499-6.146,1.286-13.578-4.788-16.65c-6.146-3.501-13.577-0.857-17.078,4.359l0,0L341.9,132.195l21.439,12.22L379.49,116.902z
		 M287.663,85.817c0-7.003-5.717-12.219-12.222-12.219c-7.003,0-12.648,5.216-12.648,12.219v31.943h24.941V85.817H287.663z
		 M447.305,172.427c-2.215-3.501-5.717-5.716-9.646-6.146c-2.216,0-4.788,0-7.003,1.287l-27.586,16.15l12.222,21.438l28.013-16.148
		C448.591,186.005,450.807,178.573,447.305,172.427z M422.365,432.188h-9.646c0.857-1.286,1.286-3.074,1.286-4.789V414.25
		c0-6.146-4.788-10.934-10.933-10.934h-8.29H157.318h-8.719c-6.146,0-10.933,4.788-10.933,10.934v13.148
		c0,1.715,0.428,3.503,1.286,4.789h-9.647c-6.146,0-10.933,4.788-10.933,10.934v13.147c0,6.146,4.787,10.935,10.933,10.935h293.489
		c6.146,0,10.934-4.789,10.934-10.935v-13.147C433.299,437.474,428.511,432.188,422.365,432.188z M390.424,391.526H160.819V276.116
		v-1.714V270.4c0-63.385,51.595-114.551,115.052-114.551l0,0c63.386,0,115.052,51.166,115.052,114.551v3.503v1.714v115.909H390.424z
		 M258.792,290.98c0-32.8-26.656-59.454-59.456-59.454v119.41C232.136,350.865,258.792,324.208,258.792,290.98z M351.477,231.453
		c-32.8,0-59.454,26.656-59.454,59.455c0,32.801,26.654,59.456,59.454,59.456V231.453L351.477,231.453z M148.17,184.218
		l-28.013-16.149c-1.286-0.858-3.073-1.287-4.359-1.287c-4.788-0.428-9.647,1.715-12.22,6.146
		c-3.501,6.146-1.715,13.148,4.359,16.65l28.012,16.15L148.17,184.218z"/>
</g>
</svg>
