<?xml version="1.0" ?><!DOCTYPE svg  PUBLIC '-//W3C//DTD SVG 1.1//EN'  'http://www.w3.org/Graphics/SVG/1.1/DTD/svg11.dtd'><svg enable-background="new 0 0 64 64" height="64px" id="Layer_1" version="1.1" viewBox="0 0 64 64" width="64px" xml:space="preserve" xmlns="http://www.w3.org/2000/svg" xmlns:xlink="http://www.w3.org/1999/xlink"><g><g><path d="M39.931,49.686c-0.042,0.041-0.086,0.086-0.128,0.113c0.014,0,0.014,0,0.027,0    C39.861,49.755,39.902,49.727,39.931,49.686L39.931,49.686z" fill="#241F20"/></g><g><path d="M19.242,17.587H19.23c0.012,0.092,0.012,0.184,0.022,0.265C19.242,17.771,19.242,17.679,19.242,17.587    L19.242,17.587z M19.252,17.852c0,0,0,0.001,0,0.002C19.253,17.854,19.253,17.853,19.252,17.852L19.252,17.852z" fill="#241F20"/></g><g><path d="M37.099,15.165H37.09c0.009,0.08,0.009,0.158,0.02,0.227C37.099,15.322,37.099,15.245,37.099,15.165    L37.099,15.165z M37.109,15.392c0,0,0,0.001,0,0.001C37.109,15.393,37.109,15.392,37.109,15.392L37.109,15.392z" fill="#241F20"/></g><g><path d="M42.948,36.291c-0.036,0.033-0.069,0.069-0.105,0.092c0.014,0,0.014,0,0.025,0    C42.89,36.35,42.923,36.324,42.948,36.291L42.948,36.291z" fill="#241F20"/></g><path d="M40.182,62.308c0,0,0.089-0.531-0.575-2.568c-1.063-3.765-5.625-6.334-8.282-6.334   c-6.817-0.127-7.195-4.575-7.216-5.068h1.841c0,0,1.796-0.027,1.074-1.604c0-0.003-0.002-0.003-0.003-0.006l-2.325-5.07   c2.363-0.418,4.506-1.492,6.233-3.031c0.047-0.03,0.077-0.063,0.122-0.108c0.966-1.088,1.852-2.206,2.626-3.311   c0.017-0.017,0.017-0.03,0.017-0.047c4.039-5.81,5.409-11.654,5.888-14.792v-0.081c0.064-0.31,0.081-0.573,0.125-0.808   c0.017-0.277,0.047-0.496,0.063-0.697c0.047-0.499,0.047-0.762,0.047-0.762c0.014-0.202,0.014-0.404,0.014-0.606   c0-9.604-7.783-17.389-17.402-17.389c-9.604,0-17.389,7.785-17.389,17.389c0,0.202,0,0.404,0.014,0.606c0,0.092,0,0.203,0.017,0.28   c0.03,0.606,0.095,1.179,0.172,1.755c0,0.047,0.014,0.078,0.014,0.108c0.994,7.584,4.368,13.118,6.48,15.944   c0.11,0.142,0.219,0.282,0.312,0.407c0.293,0.388,0.559,0.697,0.775,0.963c0.218,0.264,0.39,0.449,0.515,0.573   c0.139,0.142,0.199,0.205,0.199,0.205s0,0,0.017,0c1.771,1.738,4.071,2.951,6.621,3.402l-1.983,4.559   c-0.865,1.989,1.037,2.122,1.037,2.122h2.054c1.212,7.629,6.771,7.726,9.289,7.795c6.378,0.733,6.865,5.999,6.865,6.796   c0.177,0.576,0.487,1.195,1.727,1.019C40.403,63.77,40.182,62.308,40.182,62.308z M19.632,38.337   c-1.818-0.481-3.454-1.426-4.758-2.704c-0.014,0-0.014,0-0.014,0s-0.053-0.053-0.172-0.175c-0.105-0.105-0.252-0.263-0.436-0.487   c-0.186-0.227-0.411-0.492-0.662-0.822c-0.079-0.104-0.173-0.224-0.266-0.346c-1.798-2.405-4.671-7.115-5.519-13.575   c0-0.025-0.012-0.052-0.012-0.091c-0.065-0.49-0.118-0.979-0.146-1.495c-0.014-0.066-0.014-0.161-0.014-0.238   c-0.013-0.172-0.013-0.346-0.013-0.517c0-8.177,6.63-14.807,14.807-14.807c8.19,0,14.818,6.63,14.818,14.807   c0,0.171,0,0.345-0.011,0.517c0,0,0,0.224-0.039,0.647c-0.014,0.172-0.039,0.358-0.056,0.595c-0.038,0.199-0.053,0.423-0.107,0.689   v0.067c-0.407,2.672-1.572,7.648-5.011,12.594c0,0.014,0,0.024-0.014,0.039c-0.663,0.941-1.417,1.894-2.237,2.82   c-0.04,0.039-0.065,0.066-0.105,0.095c-1.18,1.049-2.588,1.846-4.139,2.306C22.789,39.505,19.632,38.337,19.632,38.337z" fill="#241F20"/><path d="M45.633,7.261c-1.755,0-3.419,0.366-4.952,0.987c-0.72,0.386-0.484,1.305-0.484,1.305l0.124,0.282V9.834   c0,0,0.003,0.009,0.003,0.012l0.014,0.031c0.078,0.163,0.451,0.74,1.78,0.293c0.055-0.019,0.094-0.018,0.146-0.031   c1.066-0.337,2.193-0.536,3.372-0.536c6.272,0,11.347,5.076,11.347,11.337c0,0.132,0,0.263-0.009,0.396c0,0,0,0.171-0.03,0.496   c-0.011,0.131-0.03,0.274-0.041,0.457c-0.031,0.152-0.039,0.324-0.083,0.526v0.053c-0.313,2.045-1.204,5.856-3.837,9.644   c0,0.011,0,0.019-0.011,0.03c-0.507,0.72-1.083,1.451-1.711,2.159c-0.033,0.031-0.053,0.05-0.083,0.072   c-0.902,0.803-1.979,1.415-3.167,1.767c-2.098,0.954-4.518,0.061-4.518,0.061c-1.393-0.368-2.646-1.091-3.644-2.07   c-0.011,0-0.011,0-0.011,0s-0.039-0.042-0.13-0.133c-0.083-0.083-0.194-0.202-0.335-0.374c-0.113-0.142-0.261-0.321-0.41-0.51   c-0.003-0.005-0.008-0.005-0.011-0.011c-0.883-1.021-1.628-0.008-1.633,0l-0.125,0.219c-0.003,0.006-0.249,0.477,0.105,0.966   c0.047,0.066,0.1,0.145,0.146,0.205c0.083,0.108,0.166,0.216,0.238,0.31c0.224,0.3,0.429,0.535,0.595,0.739   c0.166,0.202,0.296,0.344,0.394,0.438c0.104,0.108,0.152,0.158,0.152,0.158s0,0,0.014,0c1.356,1.331,3.116,2.259,5.068,2.604   l-1.518,3.49c-0.531,1.224,0.289,1.525,0.641,1.601h5.522c0.365-0.066,1.007-0.311,0.598-1.202c0-0.002,0-0.002,0-0.005   l-1.78-3.884c1.808-0.321,3.449-1.144,4.772-2.319c0.036-0.025,0.059-0.05,0.094-0.083c0.739-0.834,1.418-1.691,2.013-2.536   c0.011-0.014,0.011-0.024,0.011-0.036c3.093-4.451,4.142-8.924,4.51-11.327v-0.061c0.047-0.238,0.061-0.44,0.094-0.62   c0.014-0.213,0.036-0.379,0.047-0.534c0.036-0.381,0.036-0.584,0.036-0.584c0.014-0.153,0.014-0.309,0.014-0.462   C58.961,13.222,52.999,7.261,45.633,7.261z" fill="#241F20"/></g></svg>