<svg xmlns="http://www.w3.org/2000/svg" xmlns:xlink="http://www.w3.org/1999/xlink" version="1.1" x="0px" y="0px" viewBox="0 0 95 118.75" enable-background="new 0 0 95 95" xml:space="preserve"><g><path fill-rule="evenodd" clip-rule="evenodd" d="M46.373,9.647c-1.073-0.501-1.648-1.739-1.367-2.892   c0.136-0.556,0.396-1.057,0.666-1.554c0.438-0.804,0.892-1.601,1.187-2.473C46.936,2.496,47.002,2.258,47.081,2   c0.168,0.166,0.334,0.32,0.488,0.483c0.971,1.03,1.753,2.18,2.228,3.521c0.179,0.507,0.304,1.027,0.259,1.571   c-0.098,1.203-1.062,2.196-2.263,2.323C47.754,9.903,46.638,9.771,46.373,9.647z"/></g><path d="M52.96,89.11c-0.656-0.851-0.195-2.225-0.852-3.602c-0.656-1.375-2.293-1.897-2.293-1.897v-5.043h-0.678v-6.964h0.447  c0.651,0,1.178-0.526,1.178-1.178c0-0.439-0.241-0.819-0.598-1.021c1.706-0.695,2.867-2.429,2.792-4.311  c-0.039-0.957-0.362-1.836-0.782-2.678c-0.784-1.586-1.822-2.968-3.037-4.202v-5.012c0,0,1.625-1.745,1.625-3.896  c0-1.597-0.291-2.969-0.706-3.571h1.613c0.317,0,2.073-0.186,2.073-0.415c0-0.23-1.756-0.416-2.073-0.416H47.5h-4.169  c-0.317,0-2.074,0.186-2.074,0.416c0,0.229,1.756,0.415,2.074,0.415h1.613c-0.416,0.602-0.708,1.974-0.708,3.571  c0,2.151,1.627,3.896,1.627,3.896v5.012c-1.215,1.234-2.252,2.616-3.039,4.202c-0.419,0.842-0.742,1.721-0.78,2.678  c-0.077,1.882,1.084,3.615,2.792,4.311c-0.356,0.201-0.6,0.581-0.6,1.021c0,0.651,0.528,1.178,1.179,1.178h0.448v6.964h-0.678v5.043  c0,0-1.637,0.522-2.293,1.897c-0.656,1.377-0.195,2.751-0.852,3.602c-0.656,0.852-9.092,2.576-6.939,3.843  c0.528,0.311,6.385,0.355,12.398,0.318c6.015,0.037,11.873-0.008,12.4-0.318C62.052,91.687,53.615,89.962,52.96,89.11z"/><rect x="45.303" y="11.056" width="4.395" height="32.521"/><g><path fill-rule="evenodd" clip-rule="evenodd" d="M73.367,16.952c0.817-0.382,1.256-1.325,1.042-2.204   c-0.104-0.423-0.303-0.805-0.508-1.184c-0.334-0.613-0.68-1.22-0.904-1.885c-0.06-0.178-0.109-0.359-0.17-0.556   c-0.128,0.126-0.255,0.244-0.372,0.369c-0.74,0.785-1.336,1.661-1.698,2.684c-0.136,0.387-0.231,0.783-0.197,1.197   c0.075,0.917,0.811,1.674,1.725,1.771C72.314,17.147,73.165,17.047,73.367,16.952z"/></g><path d="M76.669,77.518c-0.5-0.648-2.396-4.191-2.396-4.191v-3.844h-0.517c0,0,2.969-8.834,2.911-10.268  c-0.029-0.73-0.276-1.4-0.596-2.041c-0.598-1.209-1.39-2.262-2.315-3.203v-3.82c0,0,1.017-5.232,0.7-5.692h1.23  c0.241,0,1.58-0.141,1.58-0.315c0-0.176-1.339-0.316-1.58-0.316h-3.179H69.33c-0.241,0-1.581,0.141-1.581,0.316  c0,0.175,1.34,0.315,1.581,0.315h1.229c-0.317,0.46,0.701,5.692,0.701,5.692v3.82c-0.927,0.941-1.717,1.994-2.316,3.203  c-0.319,0.641-0.565,1.311-0.595,2.041c-0.06,1.434,2.911,10.268,2.911,10.268h-0.517v3.844c0,0-1.896,3.543-2.397,4.191  c-0.5,0.65-6.93,1.965-5.289,2.93c0.402,0.236,4.866,0.271,9.45,0.242c4.584,0.029,9.049-0.006,9.451-0.242  C83.599,79.482,77.169,78.168,76.669,77.518z"/><rect x="70.833" y="18.026" width="3.35" height="24.787"/><g><path fill-rule="evenodd" clip-rule="evenodd" d="M20.852,17.148c-0.855-0.399-1.313-1.385-1.089-2.304   c0.108-0.442,0.316-0.842,0.531-1.238c0.349-0.64,0.71-1.275,0.945-1.97c0.062-0.186,0.114-0.375,0.177-0.581   c0.134,0.132,0.266,0.255,0.389,0.385c0.773,0.82,1.396,1.736,1.775,2.805c0.142,0.404,0.242,0.818,0.206,1.252   c-0.078,0.958-0.847,1.75-1.803,1.851C21.952,17.353,21.063,17.248,20.852,17.148z"/></g><path d="M26.1,80.458c-0.523-0.677-0.156-1.771-0.678-2.869c-0.523-1.096-1.827-1.512-1.827-1.512l-0.54-4.018v-5.549h0.356  c0.519,0,0.938-0.419,0.938-0.938c0-0.351-0.327-8.746-1.295-9.729v-3.992c0,0,1.295-1.391,1.295-3.104  c0-1.273-0.232-2.366-0.562-2.845h1.285c0.253,0,1.652-0.148,1.652-0.331c0-0.184-1.399-0.332-1.652-0.332H21.75h-3.321  c-0.253,0-1.652,0.148-1.652,0.332c0,0.183,1.399,0.331,1.652,0.331h1.285c-0.332,0.479-0.563,1.572-0.563,2.845  c0,1.714,1.296,3.104,1.296,3.104v3.992c-0.968,0.983-1.296,9.379-1.296,9.729c0,0.519,0.42,0.938,0.939,0.938h0.357v5.549  l-0.54,4.018c0,0-1.304,0.416-1.827,1.512c-0.523,1.098-0.155,2.192-0.679,2.869c-0.522,0.679-7.244,2.053-5.529,3.062  c0.42,0.247,5.087,0.283,9.878,0.253c4.792,0.03,9.459-0.006,9.879-0.253C33.344,82.511,26.622,81.137,26.1,80.458z"/><rect x="20" y="18.271" width="3.5" height="25.911"/></svg>
