<svg xmlns="http://www.w3.org/2000/svg" xmlns:xlink="http://www.w3.org/1999/xlink" version="1.1" x="0px" y="0px" viewBox="0 0 100 125" enable-background="new 0 0 100 100" xml:space="preserve"><path fill-rule="evenodd" clip-rule="evenodd" d="M81.121,59.594c-0.533-0.646-1.872-0.608-3.586-0.354  c-0.773,0.115-2.223,0.197-3.535,0.822c-0.985,0.47-2.451,1.307-3.512,1.783L56.459,64.76c0,0-7.628-18.289-9.906-25.414  c-0.49-1.533-2.488-3.348-2.911-3.826c-0.559-0.631-0.975-1.103-0.941-2.185c0.049-1.565,0.215-3.285,0.429-4.662  c0.067-0.437,0.43-0.751,0.864-0.982c0.607-0.323,1.356-0.48,1.631-0.576c0.871-0.299,1.096-1.032,0.949-1.882  c-0.161-0.926-0.534-1.818-0.782-2.721c-0.09-0.33-0.435-1.174-0.218-1.463c0.223-0.294,0.309-0.306,0.646-0.403  c0.371-0.106,0.754-0.183,1.112-0.325c0.255-0.103,0.297-0.142,0.249-0.432c-0.055-0.33-0.178-0.647-0.29-0.962  c-0.307-0.87-0.553-1.768-0.821-2.65c-0.374-1.22-0.528-1.777-0.889-3.002c-0.436-1.478-2.811-9.191-11.293-6.532  c-7.287,2.286-5.833,8.26-4.152,13.625c0.316,1.008,0.353,1.08,0.666,2.088c0.629,2.033,0.222,0.729,0.852,2.759  c0.574,1.849,0.847,5.05-0.954,6.554c-2.824,2.358-4.503,6.501-4.544,13.007c-0.03,4.648-1.778,41.219-1.778,41.219  c-0.314,4.194,2.402,7.819,8.509,7.819l34.548-1.986c5.191-0.326,6.242-3.398,6.645-5.531l1.48-12.576  c0.316-3.406-2.771-4.674-5.295-4.193l-3.277,0.623l4.525-2.367c0.176-0.08,0.383-0.184,0.604-0.307  c1.9,0.094,4.061-0.162,5.162-0.648c1.301-0.57,2.166-1.635,2.84-2.367c0.672-0.73,1.225-1.861,1.225-2.51  S81.654,60.24,81.121,59.594z M45.216,74.293l-0.049-13.217l5.53,11.338c0.146,0.264,0.311,0.51,0.483,0.742L45.216,74.293z"/></svg>
