<svg xmlns="http://www.w3.org/2000/svg" xmlns:xlink="http://www.w3.org/1999/xlink" version="1.1" x="0px" y="0px" viewBox="0 0 100 100" enable-background="new 0 0 100 100" xml:space="preserve"><path d="M68.199,11.776H60.86V8.69c0-1.493-1.209-2.702-2.701-2.702H48.116c-1.493,0-2.702,1.209-2.702,2.702v3.086h-7.337  c-1.493,0-2.702,1.21-2.702,2.703v77.817c0,1.493,1.209,2.703,2.702,2.703H68.2c1.493,0,2.702-1.21,2.702-2.703V14.479  C70.901,12.987,69.691,11.776,68.199,11.776z M65.497,17.182v23.749l-9.657,3.512v-9.606h4.358c0.007,0.001,0.014,0,0.018,0  c0.497,0,0.901-0.403,0.901-0.901c0-0.269-0.119-0.512-0.308-0.677l-7.161-8.961c-0.171-0.214-0.431-0.338-0.703-0.338  c-0.004,0-0.009,0-0.014,0c-0.278,0.004-0.538,0.136-0.706,0.357l-6.866,9.075c-0.206,0.273-0.24,0.639-0.088,0.945  c0.152,0.306,0.464,0.5,0.806,0.5h4.357v11.569l-9.656,3.513V17.182H65.497z"></path><path d="M21.131,5.46c-0.741-0.664-1.879-0.602-2.544,0.139c-0.664,0.741-0.602,1.881,0.139,2.544l7.312,6.556  c0.344,0.308,0.773,0.46,1.201,0.46c0.494,0,0.987-0.203,1.343-0.6c0.664-0.741,0.601-1.88-0.14-2.544L21.131,5.46z"></path><path d="M15.229,28.441l10.337-0.504c0.994-0.048,1.76-0.893,1.712-1.887c-0.05-0.994-0.917-1.766-1.889-1.712l-10.337,0.504  c-0.994,0.049-1.761,0.893-1.712,1.888c0.047,0.963,0.843,1.713,1.798,1.713C15.169,28.443,15.2,28.443,15.229,28.441z"></path><path d="M25.842,38.375l-9.832,3.407c-0.94,0.325-1.438,1.351-1.112,2.292c0.257,0.745,0.956,1.212,1.702,1.212  c0.195,0,0.395-0.033,0.59-0.1l9.832-3.407c0.94-0.326,1.438-1.352,1.114-2.292C27.808,38.546,26.781,38.046,25.842,38.375z"></path><path d="M79.285,14.699l7.312-6.556c0.74-0.664,0.804-1.802,0.138-2.544c-0.664-0.741-1.8-0.804-2.544-0.139l-7.312,6.556  c-0.74,0.665-0.804,1.804-0.14,2.544c0.356,0.398,0.849,0.6,1.343,0.6C78.51,15.16,78.939,15.007,79.285,14.699z"></path><path d="M90.271,24.842l-10.338-0.504c-0.991-0.053-1.839,0.718-1.888,1.712c-0.05,0.994,0.719,1.839,1.712,1.887l10.337,0.504  c0.03,0.002,0.061,0.002,0.09,0.002c0.955,0,1.75-0.75,1.799-1.713C92.029,25.736,91.264,24.891,90.271,24.842z"></path><path d="M89.313,41.782l-9.832-3.407c-0.941-0.327-1.966,0.171-2.291,1.112c-0.325,0.94,0.172,1.967,1.112,2.292l9.833,3.407  c0.195,0.067,0.395,0.099,0.589,0.099c0.747,0,1.445-0.467,1.703-1.212C90.752,43.133,90.254,42.107,89.313,41.782z"></path></svg>