<?xml version="1.0" ?><svg height="32" id="svg7727" version="1.1" viewBox="0 0 32 32" width="32" xmlns="http://www.w3.org/2000/svg" xmlns:cc="http://creativecommons.org/ns#" xmlns:dc="http://purl.org/dc/elements/1.1/" xmlns:inkscape="http://www.inkscape.org/namespaces/inkscape" xmlns:rdf="http://www.w3.org/1999/02/22-rdf-syntax-ns#" xmlns:sodipodi="http://sodipodi.sourceforge.net/DTD/sodipodi-0.dtd" xmlns:svg="http://www.w3.org/2000/svg"><defs id="defs7729"><pattern height="6" id="EMFhbasepattern" patternUnits="userSpaceOnUse" width="6" x="0" y="0"/><pattern height="6" id="EMFhbasepattern-6" patternUnits="userSpaceOnUse" width="6" x="0" y="0"/><pattern height="6" id="EMFhbasepattern-9" patternUnits="userSpaceOnUse" width="6" x="0" y="0"/><pattern height="6" id="EMFhbasepattern-0" patternUnits="userSpaceOnUse" width="6" x="0" y="0"/><pattern height="6" id="EMFhbasepattern-1" patternUnits="userSpaceOnUse" width="6" x="0" y="0"/><pattern height="6" id="EMFhbasepattern-2" patternUnits="userSpaceOnUse" width="6" x="0" y="0"/><pattern height="6" id="EMFhbasepattern-5" patternUnits="userSpaceOnUse" width="6" x="0" y="0"/><pattern height="6" id="EMFhbasepattern-19" patternUnits="userSpaceOnUse" width="6" x="0" y="0"/><pattern height="6" id="EMFhbasepattern-17" patternUnits="userSpaceOnUse" width="6" x="0" y="0"/><pattern height="6" id="EMFhbasepattern-8" patternUnits="userSpaceOnUse" width="6" x="0" y="0"/><pattern height="6" id="EMFhbasepattern-22" patternUnits="userSpaceOnUse" width="6" x="0" y="0"/><pattern height="6" id="EMFhbasepattern-60" patternUnits="userSpaceOnUse" width="6" x="0" y="0"/><pattern height="6" id="EMFhbasepattern-54" patternUnits="userSpaceOnUse" width="6" x="0" y="0"/><pattern height="6" id="EMFhbasepattern-4" patternUnits="userSpaceOnUse" width="6" x="0" y="0"/><pattern height="6" id="EMFhbasepattern-48" patternUnits="userSpaceOnUse" width="6" x="0" y="0"/><pattern height="6" id="EMFhbasepattern-04" patternUnits="userSpaceOnUse" width="6" x="0" y="0"/><pattern height="6" id="EMFhbasepattern-14" patternUnits="userSpaceOnUse" width="6" x="0" y="0"/><pattern height="6" id="EMFhbasepattern-18" patternUnits="userSpaceOnUse" width="6" x="0" y="0"/><pattern height="6" id="EMFhbasepattern-50" patternUnits="userSpaceOnUse" width="6" x="0" y="0"/><pattern height="6" id="EMFhbasepattern-91" patternUnits="userSpaceOnUse" width="6" x="0" y="0"/><pattern height="6" id="EMFhbasepattern-05" patternUnits="userSpaceOnUse" width="6" x="0" y="0"/><pattern height="6" id="EMFhbasepattern-57" patternUnits="userSpaceOnUse" width="6" x="0" y="0"/><pattern height="6" id="EMFhbasepattern-59" patternUnits="userSpaceOnUse" width="6" x="0" y="0"/><pattern height="6" id="EMFhbasepattern-11" patternUnits="userSpaceOnUse" width="6" x="0" y="0"/><pattern height="6" id="EMFhbasepattern-7" patternUnits="userSpaceOnUse" width="6" x="0" y="0"/><pattern height="6" id="EMFhbasepattern-96" patternUnits="userSpaceOnUse" width="6" x="0" y="0"/><pattern height="6" id="EMFhbasepattern-95" patternUnits="userSpaceOnUse" width="6" x="0" y="0"/></defs><g id="layer1" transform="translate(0,-1020.3622)"><path d="m 23.083205,1041.0459 2.035301,5.6387" id="path7488" style="fill:none;fill-rule:evenodd;stroke:#000000;stroke-width:0.99999988px;stroke-linecap:butt;stroke-linejoin:miter;stroke-opacity:1"/><path d="m 23.243829,1047.36 3.74924,-1.3509" id="path7490" style="fill:none;fill-rule:evenodd;stroke:#000000;stroke-width:0.99999988px;stroke-linecap:round;stroke-linejoin:round;stroke-opacity:1"/><path d="m 18.52675,1035.7846 4.70316,-1.6946" id="path7492" style="fill:none;fill-rule:evenodd;stroke:#000000;stroke-width:0.99999988px;stroke-linecap:butt;stroke-linejoin:miter;stroke-opacity:1"/><path d="m 21.556738,1036.8162 a 0.49996632,0.49999999 0.02227622 0 1 -0.300718,0.64 0.49996632,0.49999999 0.02227622 0 1 -0.639919,-0.3008 0.49996632,0.49999999 0.02227622 0 1 0.300705,-0.6399 0.49996632,0.49999999 0.02227622 0 1 0.639932,0.3007 z" id="ellipse7494" style="opacity:1;fill:#000000;fill-opacity:1;stroke:none;stroke-width:0.07004074;stroke-linecap:round;stroke-linejoin:round;stroke-miterlimit:4;stroke-dasharray:none;stroke-dashoffset:0;stroke-opacity:1"/><path d="m 23.175822,1038.3569 a 0.49996632,0.49999999 0.02227622 0 1 -0.300705,0.64 0.49996632,0.49999999 0.02227622 0 1 -0.639932,-0.3008 0.49996632,0.49999999 0.02227622 0 1 0.300717,-0.6399 0.49996632,0.49999999 0.02227622 0 1 0.63992,0.3007 z" id="ellipse7496" style="opacity:1;fill:#000000;fill-opacity:1;stroke:none;stroke-width:0.07004074;stroke-linecap:round;stroke-linejoin:round;stroke-miterlimit:4;stroke-dasharray:none;stroke-dashoffset:0;stroke-opacity:1"/><path d="m 21.699413,1029.8624 -4.699167,1.6931 2.833929,7.8513 a 2.6439563,2.6423733 32.815048 0 0 3.383942,1.5905 l 4.7e-5,0 a 2.5025953,2.501097 32.814674 0 0 1.315178,-3.2836 z" id="path7498" style="opacity:1;fill:none;fill-opacity:1;stroke:#000000;stroke-width:1;stroke-linecap:round;stroke-linejoin:round;stroke-miterlimit:4;stroke-dasharray:none;stroke-dashoffset:0;stroke-opacity:1"/><path d="m 8.9168049,1040.0459 -2.0353011,5.6387" id="path7504" style="fill:none;fill-rule:evenodd;stroke:#000000;stroke-width:0.99999988px;stroke-linecap:butt;stroke-linejoin:miter;stroke-opacity:1"/><path d="m 8.7561809,1046.36 -3.7492397,-1.3509" id="path7506" style="fill:none;fill-rule:evenodd;stroke:#000000;stroke-width:0.99999988px;stroke-linecap:round;stroke-linejoin:round;stroke-opacity:1"/><path d="M 13.47326,1034.7846 8.7700998,1033.09" id="path7508" style="fill:none;fill-rule:evenodd;stroke:#000000;stroke-width:0.99999988px;stroke-linecap:butt;stroke-linejoin:miter;stroke-opacity:1"/><path d="m 10.443272,1035.8162 a 0.49999999,0.49996632 89.977724 0 0 0.300718,0.64 0.49999999,0.49996632 89.977724 0 0 0.639919,-0.3008 0.49999999,0.49996632 89.977724 0 0 -0.300705,-0.6399 0.49999999,0.49996632 89.977724 0 0 -0.639932,0.3007 z" id="ellipse7510" style="opacity:1;fill:#000000;fill-opacity:1;stroke:none;stroke-width:0.07004074;stroke-linecap:round;stroke-linejoin:round;stroke-miterlimit:4;stroke-dasharray:none;stroke-dashoffset:0;stroke-opacity:1"/><path d="m 8.8241881,1037.3569 a 0.49999999,0.49996632 89.977724 0 0 0.3007047,0.64 0.49999999,0.49996632 89.977724 0 0 0.6399324,-0.3008 0.49999999,0.49996632 89.977724 0 0 -0.3007176,-0.6399 0.49999999,0.49996632 89.977724 0 0 -0.6399195,0.3007 z" id="ellipse7512" style="opacity:1;fill:#000000;fill-opacity:1;stroke:none;stroke-width:0.07004074;stroke-linecap:round;stroke-linejoin:round;stroke-miterlimit:4;stroke-dasharray:none;stroke-dashoffset:0;stroke-opacity:1"/><path d="m 10.300597,1028.8624 4.699167,1.6931 -2.833929,7.8513 a 2.6423733,2.6439563 57.184952 0 1 -3.3839425,1.5905 l -4.69e-5,0 a 2.501097,2.5025953 57.185326 0 1 -1.3151772,-3.2836 z" id="path7514" style="opacity:1;fill:none;fill-opacity:1;stroke:#000000;stroke-width:1;stroke-linecap:round;stroke-linejoin:round;stroke-miterlimit:4;stroke-dasharray:none;stroke-dashoffset:0;stroke-opacity:1"/><path d="m 16.499966,1026.8551 5e-5,-1.7358" id="path7522" style="fill:none;fill-rule:evenodd;stroke:#000000;stroke-width:0.99999994px;stroke-linecap:round;stroke-linejoin:round;stroke-opacity:1"/><path d="m 14.244965,1027.3571 -1.2399,-1.2399" id="path7524" style="fill:none;fill-rule:evenodd;stroke:#000000;stroke-width:1px;stroke-linecap:round;stroke-linejoin:round;stroke-opacity:1"/><path d="m 18.755065,1027.3571 1.2399,-1.2399" id="path7526" style="fill:none;fill-rule:evenodd;stroke:#000000;stroke-width:1px;stroke-linecap:round;stroke-linejoin:round;stroke-opacity:1"/></g></svg>