<svg xmlns="http://www.w3.org/2000/svg" xmlns:xlink="http://www.w3.org/1999/xlink" xml:space="preserve" version="1.1" style="shape-rendering:geometricPrecision;text-rendering:geometricPrecision;image-rendering:optimizeQuality;" viewBox="0 0 325 240" x="0px" y="0px" fill-rule="evenodd" clip-rule="evenodd"><defs><style type="text/css">

    .fil0 {fill:black}

  </style></defs><g><path class="fil0" d="M162 0c53,0 95,42 96,94l67 0 0 9 -67 0c0,2 0,3 0,5l-191 0c0,-2 0,-3 0,-5l-67 0 0 -9 66 0c2,-52 44,-94 96,-94zm94 117c-1,3 -1,6 -2,9l-183 0c-1,-3 -2,-6 -2,-9l187 0zm-6 18c-1,3 -3,6 -4,8l-167 0c-2,-2 -3,-5 -4,-8l175 0zm-10 18c-3,3 -5,6 -7,8l-141 0c-3,-2 -5,-5 -7,-8l155 0zm-17 18c-4,3 -8,5 -12,8l-97 0c-4,-3 -8,-5 -12,-8l121 0zm-35 17c-8,3 -17,4 -26,4 -9,0 -17,-1 -26,-4l52 0z"/></g></svg>
