<svg xmlns="http://www.w3.org/2000/svg" xmlns:xlink="http://www.w3.org/1999/xlink" version="1.1" x="0px" y="0px" viewBox="0 0 100 125" enable-background="new 0 0 100 100" xml:space="preserve"><path d="M82.414,50.586L73,41.172V21c0-1.654-1.346-3-3-3H60c-1.654,0-3,1.346-3,3v4.172l-5.586-5.586  c-0.776-0.777-2.046-0.784-2.828,0l-31,31c-0.781,0.781-0.781,2.047,0,2.828l5,5C22.976,58.805,23.488,59,24,59  c0.346,0,0.692-0.089,1-0.268V79c0,1.105,0.895,2,2,2h46c1.105,0,2-0.895,2-2V58.732C75.309,58.911,75.654,59,76,59  c0.512,0,1.023-0.195,1.414-0.586l5-5C83.195,52.633,83.195,51.367,82.414,50.586z M79.586,52l-2.439,2.439L50.229,27.521  c-0.195-0.195-0.512-0.195-0.707,0L22.729,54.314L20.414,52L50,22.414L79.586,52z M37,78V59h12v19H37z M50,57H36  c-0.552,0-1,0.448-1,1v20h-7V54.414l22-22l22,22V78H51V58C51,57.448,50.552,57,50,57z M50.707,30.293  c-0.392-0.391-1.023-0.391-1.414,0L24,55.586l-0.564-0.564l26.439-26.438l26.564,26.563L76,55.586L50.707,30.293z M70,24H60v-3h10  V24z M60,29.586V25h10v14.586L60,29.586z M56,70h11c0.552,0,1-0.448,1-1V58c0-0.552-0.448-1-1-1H56c-0.552,0-1,0.448-1,1v11  C55,69.552,55.448,70,56,70z M57,68v-4h4v4H57z M66,68h-4v-4h4V68z M66,63h-4v-4h4V63z M61,59v4h-4v-4H61z M48,67.5v2  c0,0.275-0.224,0.5-0.5,0.5S47,69.775,47,69.5v-2c0-0.275,0.224-0.5,0.5-0.5S48,67.225,48,67.5z"/></svg>
