<svg xmlns:dc="http://purl.org/dc/elements/1.1/" xmlns:cc="http://creativecommons.org/ns#" xmlns:rdf="http://www.w3.org/1999/02/22-rdf-syntax-ns#" xmlns:svg="http://www.w3.org/2000/svg" xmlns="http://www.w3.org/2000/svg" xmlns:sodipodi="http://sodipodi.sourceforge.net/DTD/sodipodi-0.dtd" xmlns:inkscape="http://www.inkscape.org/namespaces/inkscape" version="1.1" x="0px" y="0px" viewBox="0 0 100 125"><g transform="translate(0,-952.36218)"><path style="text-indent:0;text-transform:none;direction:ltr;block-progression:tb;baseline-shift:baseline;color:#000000;enable-background:accumulate;" d="m 15.99999,1011.3622 c 0.0131,1.098 1.09908,1.9754 2,2 l 18,0 c 1.04717,-10e-5 1.9999,-0.9528 2,-2 l 0,-7 10.00002,0 0,32 c 0.013,1.1043 1.0991,1.9754 2,2 l 12,0 0,7 c 0.013,1.098 1.0991,1.9754 2,2 l 18,0 c 1.0472,-10e-5 1.9999,-0.9528 2,-2 l 0,-18 c -1e-4,-1.0472 -0.9528,-1.9999 -2,-2 l -18,0 c -1.0472,10e-5 -1.9999,0.9528 -2,2 l 0,7 -10,0 0,-30 10,0 0,7 c 0.013,1.098 1.0991,1.9754 2,2 l 18,0 c 1.0472,-10e-5 1.9999,-0.9528 2,-2 l 0,-18.00001 c -1e-4,-1.0472 -0.9528,-1.9999 -2,-2 l -18,0 c -1.0472,10e-5 -1.9999,0.9528 -2,2 l 0,7.00001 -10,0 0,-30.00001 10,0 0,7 c 0.013,1.098 1.0991,1.9754 2,2 l 18,0 c 1.0472,-1e-4 1.9999,-0.9528 2,-2 l 0,-18 c -1e-4,-1.0472 -0.9528,-1.9999 -2,-2 l -18,0 c -1.0472,10e-5 -1.9999,0.9528 -2,2 l 0,7 -12,0 c -1.0472,10e-5 -1.9999,0.9528 -2,2 l 0,32.00001 -10.00002,0 0,-7.00001 c -10e-5,-1.0472 -0.95283,-1.9999 -2,-2 l -18,0 c -1.04717,10e-5 -1.9999,0.9528 -2,2 l 0,18.00001 z m 4,-2 0,-14.00001 14,0 0,14.00001 -14,0 z m 46.00002,34 0,-14 14,0 0,14 -14,0 z m 0,-34 0,-14.00001 14,0 0,14.00001 -14,0 z m 0,-34.00001 0,-14 14,0 0,14 -14,0 z" fill="#000000" fill-opacity="1" stroke="none" marker="none" visibility="visible" display="inline" overflow="visible"/></g><text x="0" y="115" fill="#000000" font-size="5px" font-weight="bold" font-family="'Helvetica Neue', Helvetica, Arial-Unicode, Arial, Sans-serif">Created by Barracuda</text><text x="0" y="120" fill="#000000" font-size="5px" font-weight="bold" font-family="'Helvetica Neue', Helvetica, Arial-Unicode, Arial, Sans-serif">from the Noun Project</text></svg>