<svg xmlns="http://www.w3.org/2000/svg" xmlns:xlink="http://www.w3.org/1999/xlink" version="1.1" x="0px" y="0px" viewBox="0 0 335.356 324.3775" style="enable-background:new 0 0 335.356 259.502;" xml:space="preserve"><g><path d="M322,180.17h-24c-2.209,0-4,1.791-4,4v18.666h-51.172v44.063c0,0.891-0.093,1.758-0.247,2.604H294v6c0,2.209,1.791,4,4,4   h24c2.209,0,4-1.791,4-4V184.17C326,181.961,324.209,180.17,322,180.17z"/><path d="M182.326,202.836H32v-88c0-2.209-1.791-4-4-4H4c-2.209,0-4,1.791-4,4v140.666c0,2.209,1.791,4,4,4h24c2.209,0,4-1.791,4-4   v-6h150.573c-0.154-0.846-0.247-1.713-0.247-2.604V202.836z"/><path d="M213.826,202.836h-2.498v44.063c0,0.891-0.093,1.758-0.247,2.604h2.992c-0.154-0.846-0.247-1.713-0.247-2.604V202.836z"/><path d="M37.979,179.666v14c0,2.209,1.791,4,4,4h45.047c2.209,0,4-1.791,4-4v-14c0-2.209-1.791-4-4-4H41.979   C39.77,175.666,37.979,177.457,37.979,179.666z"/><path d="M240.827,187.664c0-3.291-1.334-6.512-3.659-8.838c-2.328-2.328-5.549-3.662-8.84-3.662h-24.2   c1.07,0.623,2.07,1.369,2.952,2.25c2.699,2.695,4.248,6.432,4.248,10.25v12.5h4.5v46.734c0,6.902,5.596,12.5,12.5,12.5   c6.903,0,12.499-5.598,12.499-12.5V187.664z"/><path d="M183.662,200.164h0.666v46.734c0,6.902,5.596,12.5,12.5,12.5c6.903,0,12.499-5.598,12.499-12.5v-59.234   c0-3.291-1.334-6.512-3.659-8.838c-2.328-2.328-5.549-3.662-8.84-3.662h-13.166h-14.601l0.018-2h24.673v-52.352l58.459-68.975   c2.856-3.369,2.439-8.42-0.93-11.275c-3.372-2.857-8.42-2.44-11.276,0.93l-57.468,67.803H150.87L93.402,41.494   c-2.857-3.373-7.905-3.789-11.275-0.932c-3.372,2.855-3.787,7.906-0.931,11.275l58.463,68.979v66.848   c0,6.904,5.598,12.502,12.502,12.502v-0.002h16.684H183.662z"/><path d="M303.856,0c-17.397,0-31.5,14.104-31.5,31.5s14.103,31.5,31.5,31.5c17.396,0,31.5-14.103,31.5-31.5S321.252,0,303.856,0z    M303.856,59c-15.164,0-27.502-12.336-27.502-27.5c0-15.164,12.338-27.502,27.502-27.502c15.163,0,27.5,12.338,27.5,27.502   C331.356,46.664,319.019,59,303.856,59z"/><polygon points="303.023,12.166 303.023,31.666 286.023,31.666 286.023,35.666 307.023,35.666 307.023,12.166 303.024,12.166  "/><path d="M165.697,102.596c12.426,0,22.5-10.074,22.5-22.5c0-5.299-1.836-10.166-4.9-14.01   c-16.051,2.537-36.621,17.363-39.436,19.438C146.29,95.328,155.144,102.596,165.697,102.596z"/><path d="M138.601,66.229c6,4.5-0.833,11,5.167,17c0,0,22.334-16.832,38.834-18.832c-1.06-1.305-2.309-2.543-3.706-3.709   c-13.427-11.191-40.85-15.482-51.482-4.354c-0.278,0.291-0.558,0.582-0.813,0.895C115.601,70.729,132.601,61.729,138.601,66.229z"/></g></svg>
