<svg xmlns="http://www.w3.org/2000/svg" xmlns:xlink="http://www.w3.org/1999/xlink" version="1.1" x="0px" y="0px" viewBox="0 0 64 80" enable-background="new 0 0 64 64" xml:space="preserve"><g><g><path d="M40.234,14.512c-0.765-0.231-1.602,0.019-2.114,0.637c-0.514,0.618-0.607,1.482-0.239,2.196    c1.331,2.578,2.006,5.346,2.006,8.228c0,9.925-8.075,18-18,18c-1.755,0-3.503-0.259-5.197-0.769    c-0.77-0.233-1.602,0.019-2.115,0.637c-0.513,0.617-0.607,1.481-0.239,2.195c3.797,7.362,11.289,11.937,19.551,11.937    c12.131,0,22-9.869,22-22C55.887,25.947,49.45,17.287,40.234,14.512z"/><path d="M18.113,23.573c-1.104,0-2,0.896-2,2s0.896,2,2,2h5.73l-7.267,8.719c-0.497,0.596-0.604,1.426-0.274,2.129    c0.329,0.702,1.035,1.151,1.811,1.151h10c1.104,0,2-0.896,2-2s-0.896-2-2-2h-5.73l7.267-8.719    c0.497-0.596,0.604-1.426,0.274-2.128c-0.329-0.703-1.035-1.152-1.811-1.152H18.113z"/><path d="M18.113,20.427c0-1.104-0.896-2-2-2h-2l3.6-4.8c0.455-0.606,0.527-1.417,0.189-2.095    c-0.339-0.677-1.032-1.105-1.789-1.105h-6c-1.104,0-2,0.896-2,2s0.896,2,2,2h2l-3.6,4.8c-0.455,0.606-0.527,1.417-0.189,2.095    c0.339,0.677,1.032,1.105,1.789,1.105h6C17.218,22.427,18.113,21.532,18.113,20.427z"/><path d="M22.113,10.427h0.263l-1.927,2.891c-0.409,0.614-0.447,1.403-0.099,2.053c0.348,0.65,1.025,1.056,1.763,1.056h4    c1.104,0,2-0.896,2-2s-0.896-2-2-2H25.85l1.927-2.891c0.409-0.614,0.447-1.403,0.099-2.053c-0.348-0.65-1.025-1.056-1.763-1.056    h-4c-1.104,0-2,0.896-2,2S21.009,10.427,22.113,10.427z"/></g></g></svg>
