<svg xmlns="http://www.w3.org/2000/svg" xmlns:xlink="http://www.w3.org/1999/xlink" version="1.1" x="0px" y="0px" viewBox="0 0 100 125" enable-background="new 0 0 100 100" xml:space="preserve"><path d="M8.999,80.805C8.999,80.805,9,80.805,8.999,80.805H91c0.828,0,1.5-0.672,1.5-1.5c0,0,0-0.001,0-0.001L92.462,28.33  c-0.001-0.829-0.673-1.5-1.501-1.499c-0.205,0-0.408,0.042-0.596,0.124l-4.246,1.846l0.049-6.997  c0.005-0.682-0.451-1.281-1.109-1.459c-13.956-3.772-24.286,2.596-35.064,6.586c-8.554-3.167-16.826-7.83-26.848-7.735  c-2.605,0.025-5.329,0.371-8.207,1.149c-0.658,0.178-1.113,0.777-1.108,1.458l0.048,7.001l-4.25-1.849  c-0.76-0.33-1.644,0.018-1.974,0.777c-0.082,0.188-0.124,0.392-0.125,0.597L7.5,79.304C7.499,80.133,8.171,80.805,8.999,80.805z   M85.789,72.871c0.013-0.076,0.019-0.154,0.02-0.231l0.287-40.557l3.369-1.464l0.035,47.187H55.475  c6.602-3.46,14.45-6.004,28.591-3.695C84.884,74.243,85.655,73.689,85.789,72.871z M51.5,29.573  c8.647-3.245,16.236-7.446,25.262-7.378c2.048,0.015,4.171,0.251,6.397,0.767l-0.338,47.925C67.34,68.724,58.638,72.545,51.5,76.574  V29.573z M23.233,22.195c9.025-0.067,16.616,4.137,25.267,7.382v47.002c-7.139-4.031-15.835-7.856-31.33-5.692l-0.33-47.926  C19.064,22.446,21.186,22.21,23.233,22.195z M10.53,30.62l3.372,1.467l0.279,40.553c0.006,0.828,0.682,1.495,1.511,1.49  c0.077-0.001,0.154-0.007,0.231-0.02c14.15-2.309,21.993,0.235,28.593,3.695H10.501L10.53,30.62z"/></svg>
