<svg xmlns="http://www.w3.org/2000/svg" xmlns:xlink="http://www.w3.org/1999/xlink" version="1.1" x="0px" y="0px" viewBox="0 0 100 125" enable-background="new 0 0 100 100" xml:space="preserve"><circle cx="67.619" cy="21.75" r="6.417"/><path d="M66.78,62.792c0.008,0,0.015-0.002,0.023-0.002c0.008,0,0.015,0.002,0.023,0.002c2.831,0,5.125-2.294,5.125-5.125V35.854  c0-2.83-2.294-5.125-5.125-5.125c-1.984,0-3.684,1.139-4.536,2.787l-7.6,6.416c-0.098,0.083-0.222,0.128-0.35,0.129l-12.556,0.085  c-1.307,0.009-2.36,1.076-2.351,2.383v0c0.009,1.307,1.076,2.36,2.383,2.351l14.046-0.095c0.259-0.002,0.509-0.094,0.707-0.261  l5.132-4.325v15.67h-9.833v-5.113c0-1.43-1.16-2.59-2.59-2.59H19.792c-1.43,0-2.59,1.16-2.59,2.59v31.32c0,1.43,1.16,2.59,2.59,2.59  h29.487c1.43,0,2.59-1.16,2.59-2.59V62.792H66.78z"/><path d="M20.452,45.88h16.875c0.553,0,1-0.447,1-1s-0.447-1-1-1H21.452V28.167c0-0.553-0.447-1-1-1s-1,0.447-1,1V44.88  C19.452,45.433,19.899,45.88,20.452,45.88z"/><path d="M82.664,82.163l-7.1-15.685c2.694-2.545,4.555-5.983,5.052-9.889l2.066-16.23c0.175-1.369-0.794-2.621-2.164-2.795  c-1.368-0.175-2.621,0.794-2.795,2.164l-2.066,16.23c-0.73,5.729-5.636,10.049-11.411,10.049h-8.73c-1.381,0-2.5,1.119-2.5,2.5  s1.119,2.5,2.5,2.5h3.459l-4.833,11.06c-0.332,0.759,0.015,1.644,0.773,1.975c0.195,0.086,0.399,0.126,0.6,0.126  c0.578,0,1.129-0.336,1.375-0.899l5.358-12.261h1.999c3.254,0,6.307-0.966,8.889-2.625l6.798,15.017  c0.251,0.555,0.796,0.882,1.367,0.882c0.207,0,0.417-0.043,0.617-0.134C82.671,83.805,83.006,82.917,82.664,82.163z"/></svg>
