<svg xmlns="http://www.w3.org/2000/svg" xmlns:xlink="http://www.w3.org/1999/xlink" version="1.1" x="0px" y="0px" viewBox="0 0 64 80" style="enable-background:new 0 0 64 64;" xml:space="preserve"><g><path d="M21,20h-3v-6c0-0.445-0.294-0.836-0.721-0.96c-0.427-0.125-0.885,0.048-1.123,0.423l-7,11   c-0.196,0.308-0.208,0.698-0.033,1.019C9.299,25.801,9.635,26,10,26h3v6c0,0.445,0.294,0.836,0.721,0.96   C13.813,32.987,13.907,33,14,33c0.336,0,0.657-0.169,0.844-0.463l7-11c0.196-0.308,0.208-0.698,0.033-1.019   C21.701,20.199,21.365,20,21,20z M15,28.566V25c0-0.552-0.447-1-1-1h-2.179L16,17.434V21c0,0.552,0.447,1,1,1h2.179L15,28.566z"/><path d="M62,47h-1v-4c0-0.266-0.105-0.52-0.293-0.707l-6-6C54.52,36.105,54.266,36,54,36V9c0-4.411-3.589-8-8-8s-8,3.589-8,8   c0,2.206-1.794,4-4,4h-7v-2h1c0.553,0,1-0.448,1-1V6c0-0.552-0.447-1-1-1h-1V2c0-0.552-0.447-1-1-1h-6c-0.553,0-1,0.448-1,1v3h-8V2   c0-0.552-0.447-1-1-1H4C3.447,1,3,1.448,3,2v3H2C1.447,5,1,5.448,1,6v4c0,0.552,0.447,1,1,1h1v24H2c-0.553,0-1,0.447-1,1v4   c0,0.553,0.447,1,1,1h26c0.553,0,1-0.447,1-1v-4c0-0.553-0.447-1-1-1h-1V19h7c5.514,0,10-4.486,10-10c0-1.103,0.897-2,2-2   s2,0.897,2,2v27c-0.266,0-0.52,0.105-0.707,0.293l-6,6C41.105,42.48,41,42.734,41,43v4h-1c-0.553,0-1,0.447-1,1v6   c0,0.553,0.447,1,1,1h3v5c0,1.654,1.346,3,3,3s3-1.346,3-3v-5h4v5c0,1.654,1.346,3,3,3s3-1.346,3-3v-5h3c0.553,0,1-0.447,1-1v-6   C63,47.447,62.553,47,62,47z M21,3h4v2h-4V3z M5,3h4v2H5V3z M3,7h24v2h-1H4H3V7z M27,39H3v-2h1h22h1V39z M5,35V11h20v24H5z M27,15   h2v2h-2V15z M46,5c-2.206,0-4,1.794-4,4c0,4.411-3.589,8-8,8h-3v-2h3c3.309,0,6-2.691,6-6s2.691-6,6-6s6,2.691,6,6v23h-2V9   C50,6.794,48.206,5,46,5z M50,34h2v2h-2V34z M43,43.414L48.414,38h5.172L59,43.414V47H43V43.414z M47,60c0,0.552-0.448,1-1,1   s-1-0.448-1-1v-5h2V60z M57,60c0,0.552-0.448,1-1,1s-1-0.448-1-1v-5h2V60z M61,53H41v-4h20V53z"/></g></svg>
