<?xml version="1.0" encoding="utf-8"?>
<!-- Generator: Adobe Illustrator 16.0.0, SVG Export Plug-In . SVG Version: 6.00 Build 0)  -->
<!DOCTYPE svg PUBLIC "-//W3C//DTD SVG 1.1//EN" "http://www.w3.org/Graphics/SVG/1.1/DTD/svg11.dtd">
<svg version="1.1" id="Layer_1" xmlns="http://www.w3.org/2000/svg" xmlns:xlink="http://www.w3.org/1999/xlink" x="0px" y="0px"
	 width="512px" height="512px" viewBox="0 0 512 512" enable-background="new 0 0 512 512" xml:space="preserve">
<path d="M463.844,271.469c0,114.688-93.313,208-207.984,208c-114.688,0-208-93.313-208-208c0-59.313,25.438-116,69.797-155.438
	c6.594-5.875,16.734-5.313,22.594,1.313c5.875,6.625,5.281,16.688-1.313,22.563c-37.547,33.438-59.078,81.375-59.078,131.563
	c0,97.063,78.953,176,176,176s175.984-78.938,175.984-176c0-50.188-21.5-98.125-59-131.5c-6.625-5.875-7.25-16-1.375-22.563
	c5.938-6.688,16.063-7.25,22.625-1.375C438.406,155.469,463.844,212.156,463.844,271.469z M255.859,223.469c8.844,0,16-7.125,16-16
	v-160c0-8.813-7.156-16-16-16s-16,7.188-16,16v160C239.859,216.344,247.016,223.469,255.859,223.469z"/>
</svg>
