<?xml version="1.0" encoding="utf-8"?>
<!-- Generator: Adobe Illustrator 16.0.0, SVG Export Plug-In . SVG Version: 6.00 Build 0)  -->
<!DOCTYPE svg PUBLIC "-//W3C//DTD SVG 1.1//EN" "http://www.w3.org/Graphics/SVG/1.1/DTD/svg11.dtd">
<svg version="1.1" id="Layer_1" xmlns="http://www.w3.org/2000/svg" xmlns:xlink="http://www.w3.org/1999/xlink" x="0px" y="0px"
	 width="143.19px" height="98.849px" viewBox="0 0 143.19 98.849" enable-background="new 0 0 143.19 98.849" xml:space="preserve">
<path d="M73.506,0h14.093L45.804,99.273h-3.202L0,0h14.246l29.73,69.414L73.506,0z"/>
<path d="M127.907,13.196c-8.561-7.392-20.001-11.661-34.291-12.84l-4.855,11.531h0.86c5.255,0,10.186,0.824,14.792,2.472h0.001v0
	c4.599,1.645,8.874,4.111,12.826,7.398c7.914,6.58,11.87,15.72,11.87,27.418c0,8.161-1.593,15.166-4.771,21.015
	c-3.184,5.85-7.488,10.13-12.908,12.843c-5.418,2.713-13.762,4.068-25.03,4.068H74.971l-4.754,11.746h21.392
	c16.464,0,29.176-4.482,38.139-13.443c8.963-8.963,13.443-20.898,13.443-35.805C143.19,34.129,138.097,21.994,127.907,13.196z"/>
</svg>
