<svg height='100px' width='100px'  fill="#000000" xmlns="http://www.w3.org/2000/svg" xmlns:xlink="http://www.w3.org/1999/xlink" viewBox="0 0 100 100" version="1.1" x="0px" y="0px"><title>086 Rn</title><desc>Created with Sketch.</desc><g stroke="none" stroke-width="1" fill="none" fill-rule="evenodd"><g><circle fill="#000000" cx="50" cy="50" r="5"></circle><circle fill="#000000" cx="64.5" cy="36.5" r="1.5"></circle><circle fill="#000000" cx="37.5" cy="34.5" r="1.5"></circle><circle fill="#000000" cx="30.5" cy="53.5" r="1.5"></circle><circle fill="#000000" cx="32.5" cy="59.5" r="1.5"></circle><circle fill="#000000" cx="30.5" cy="65.5" r="1.5"></circle><circle fill="#000000" cx="69.5" cy="65.5" r="1.5"></circle><circle fill="#000000" cx="54.5" cy="74.5" r="1.5"></circle><circle fill="#000000" cx="58" cy="73.8000031" r="1.5"></circle><circle fill="#000000" cx="49.5" cy="74.8000031" r="1.5"></circle><circle fill="#000000" cx="41.5" cy="26.5" r="1.5"></circle><circle fill="#000000" cx="33.5" cy="31.5" r="1.5"></circle><circle fill="#000000" cx="37.5" cy="71.5" r="1.5"></circle><circle fill="#000000" cx="41.5" cy="73.5" r="1.5"></circle><circle fill="#000000" cx="27.5" cy="61.5" r="1.5"></circle><circle fill="#000000" cx="45.5" cy="74.5" r="1.5"></circle><circle fill="#000000" cx="61.5" cy="72.5" r="1.5"></circle><circle fill="#000000" cx="25.5" cy="55.5" r="1.5"></circle><circle fill="#000000" cx="25.5" cy="45.5" r="1.5"></circle><circle fill="#000000" cx="26.5" cy="41.5" r="1.5"></circle><circle fill="#000000" cx="33.5" cy="68.5" r="1.5"></circle><circle fill="#000000" cx="72.5" cy="38.5" r="1.5"></circle><circle fill="#000000" cx="48.5" cy="25" r="1.5"></circle><circle fill="#000000" cx="37.5" cy="28.5" r="1.5"></circle><circle fill="#000000" cx="65.5" cy="30.5" r="1.5"></circle><circle fill="#000000" cx="69.5" cy="34.5" r="1.5"></circle><circle fill="#000000" cx="75" cy="48.5" r="1.5"></circle><circle fill="#000000" cx="74.9000015" cy="52.5" r="1.5"></circle><circle fill="#000000" cx="74.0999985" cy="56.5" r="1.5"></circle><circle fill="#000000" cx="72.5" cy="61.5" r="1.5"></circle><circle fill="#000000" cx="80.5" cy="59.5" r="1.5"></circle><circle fill="#000000" cx="36.5" cy="64.5" r="1.5"></circle><circle fill="#000000" cx="54.5" cy="69.5" r="1.5"></circle><circle fill="#000000" cx="69.5" cy="46.5" r="1.5"></circle><circle fill="#000000" cx="33.5" cy="38.5" r="1.5"></circle><circle fill="#000000" cx="62.5" cy="65.5" r="1.5"></circle><circle fill="#000000" cx="59.5" cy="32.5" r="1.5"></circle><circle fill="#000000" cx="67.5" cy="59.5" r="1.5"></circle><circle fill="#000000" cx="45.5" cy="30.5" r="1.5"></circle><circle fill="#000000" cx="65.5" cy="62.5" r="1.5"></circle><circle fill="#000000" cx="68.5" cy="42.5" r="1.5"></circle><circle fill="#000000" cx="54.5" cy="30.5" r="1.5"></circle><circle fill="#000000" cx="46.5" cy="69.5" r="1.5"></circle><circle fill="#000000" cx="28.5" cy="37.5" r="1.5"></circle><circle fill="#000000" cx="24.5" cy="30.5" r="1.5"></circle><circle fill="#000000" cx="18.5" cy="43.5" r="1.5"></circle><circle fill="#000000" cx="23.5" cy="67.5" r="1.5"></circle><circle fill="#000000" cx="29.5" cy="74.5" r="1.5"></circle><circle fill="#000000" cx="71.5" cy="73.5" r="1.5"></circle><circle fill="#000000" cx="18.5" cy="55.5" r="1.5"></circle><circle fill="#000000" cx="65.5" cy="69.5" r="1.5"></circle><circle fill="#000000" cx="55.5" cy="25.5" r="1.5"></circle><circle fill="#000000" cx="30.5" cy="34.5" r="1.5"></circle><circle fill="#000000" cx="49.5" cy="82" r="1.5"></circle><circle fill="#000000" cx="74.5" cy="43.5" r="1.5"></circle><circle fill="#000000" cx="24.5" cy="50.5" r="1.5"></circle><circle fill="#000000" cx="77.5" cy="66.5" r="1.5"></circle><circle fill="#000000" cx="59.5" cy="19.5" r="1.5"></circle><circle fill="#000000" cx="59.5" cy="26.5" r="1.5"></circle><circle fill="#000000" cx="43.5" cy="18.5" r="1.5"></circle><circle fill="#000000" cx="69.5" cy="24.5" r="1.5"></circle><circle fill="#000000" cx="78.5" cy="35.5" r="1.5"></circle><circle fill="#000000" cx="81.8000031" cy="47.5" r="1.5"></circle><circle fill="#000000" cx="35.5" cy="12.5" r="1.5"></circle><circle fill="#000000" cx="81.5" cy="25.5" r="1.5"></circle><circle fill="#000000" cx="75.5" cy="80.5" r="1.5"></circle><circle fill="#000000" cx="31.5" cy="85.5" r="1.5"></circle><circle fill="#000000" cx="55.5" cy="89.5" r="1.5"></circle><circle fill="#000000" cx="14.5" cy="68.5" r="1.5"></circle><circle fill="#000000" cx="11.5" cy="38.5" r="1.5"></circle><circle fill="#000000" cx="61.5" cy="11.5" r="1.5"></circle><circle fill="#000000" cx="33.5" cy="22.5" r="1.5"></circle><circle fill="#000000" cx="40.5" cy="80.5" r="1.5"></circle><circle fill="#000000" cx="62.5" cy="79.5" r="1.5"></circle><circle fill="#000000" cx="40.5" cy="67.5" r="1.5"></circle><circle fill="#000000" cx="56.5" cy="36.5" r="1.5"></circle><circle fill="#000000" cx="63.5" cy="43.5" r="1.5"></circle><circle fill="#000000" cx="35.5" cy="45.5" r="1.5"></circle><circle fill="#000000" cx="35.5" cy="54.5" r="1.5"></circle><circle fill="#000000" cx="43.5" cy="63.5" r="1.5"></circle><circle fill="#000000" cx="39.5" cy="60.5" r="1.5"></circle><circle fill="#000000" cx="61.5" cy="59.5" r="1.5"></circle><circle fill="#000000" cx="43.5" cy="36.5" r="1.5"></circle><circle fill="#000000" cx="30.5" cy="45.5" r="1.5"></circle><circle fill="#000000" cx="50.0523168" cy="40.0325895" r="1.5"></circle><circle fill="#000000" cx="58.6751622" cy="54.962237" r="1.5"></circle><circle stroke="#000000" stroke-width="0.15" cx="50" cy="50" r="20"></circle><circle stroke="#000000" stroke-width="0.15" cx="50" cy="50" r="25"></circle><circle stroke="#000000" stroke-width="0.15" cx="50" cy="50" r="32"></circle><circle stroke="#000000" stroke-width="0.15" cx="50" cy="50" r="40"></circle><circle stroke="#000000" stroke-width="0.15" cx="50" cy="50" r="15"></circle><circle stroke="#000000" stroke-width="0.15" cx="50" cy="50" r="10"></circle></g></g></svg>