<svg height='100px' width='100px'  fill="#000000" xmlns="http://www.w3.org/2000/svg" xmlns:xlink="http://www.w3.org/1999/xlink" version="1.1" x="0px" y="0px" viewBox="0 0 60 60" style="enable-background:new 0 0 60 60;" xml:space="preserve"><path d="M29.46,40.23V15.42c0-0.55-0.45-1-1-1s-1,0.45-1,1v24.81c-2.21,0.46-3.88,2.42-3.88,4.77c0,2.69,2.19,4.88,4.88,4.88  s4.88-2.19,4.88-4.88C33.33,42.65,31.67,40.69,29.46,40.23z M28.46,47.88c-1.58,0-2.88-1.29-2.88-2.88s1.29-2.88,2.88-2.88  s2.88,1.29,2.88,2.88S30.04,47.88,28.46,47.88z"></path><path d="M33.55,36.4V10.1c0-2.81-2.29-5.1-5.1-5.1s-5.1,2.29-5.1,5.1V36.4c-3.04,1.8-4.9,5.04-4.9,8.6c0,5.51,4.49,10,10,10  s10-4.49,10-10C38.46,41.44,36.59,38.2,33.55,36.4z M28.46,53c-4.41,0-8-3.59-8-8c0-3.01,1.67-5.74,4.36-7.12  c0.33-0.17,0.54-0.51,0.54-0.89V10.1c0-1.71,1.39-3.1,3.1-3.1s3.1,1.39,3.1,3.1v26.9c0,0.38,0.21,0.72,0.54,0.89  c2.69,1.38,4.36,4.11,4.36,7.12C36.46,49.41,32.87,53,28.46,53z"></path><path d="M40.54,10.17h-4.25c-0.55,0-1,0.45-1,1s0.45,1,1,1h4.25c0.55,0,1-0.45,1-1S41.09,10.17,40.54,10.17z"></path><path d="M36.29,17.17h2.83c0.55,0,1-0.45,1-1s-0.45-1-1-1h-2.83c-0.55,0-1,0.45-1,1S35.74,17.17,36.29,17.17z"></path><path d="M40.54,20.17h-4.25c-0.55,0-1,0.45-1,1s0.45,1,1,1h4.25c0.55,0,1-0.45,1-1S41.09,20.17,40.54,20.17z"></path><path d="M36.29,27.17h2.83c0.55,0,1-0.45,1-1s-0.45-1-1-1h-2.83c-0.55,0-1,0.45-1,1S35.74,27.17,36.29,27.17z"></path><path d="M40.54,30.17h-4.25c-0.55,0-1,0.45-1,1s0.45,1,1,1h4.25c0.55,0,1-0.45,1-1S41.09,30.17,40.54,30.17z"></path></svg>