<svg height='100px' width='100px'  fill="#000000" xmlns="http://www.w3.org/2000/svg" xmlns:xlink="http://www.w3.org/1999/xlink" version="1.1" x="0px" y="0px" viewBox="0 0 161.492 162.732" enable-background="new 0 0 161.492 162.732" xml:space="preserve"><g><path d="M81.166,10.69C42.027,10.69,10.3,42.419,10.3,81.557s31.727,70.867,70.865,70.867s70.867-31.729,70.867-70.867   S120.304,10.69,81.166,10.69z M41.898,117.841h-5.13L23.562,83.957h6.604l9.143,25.756l9.144-25.756h6.554L41.898,117.841z    M85.281,113.343c-3.454,3.439-7.621,5.158-12.498,5.158c-4.909,0-9.093-1.719-12.547-5.158c-3.454-3.436-5.181-7.575-5.181-12.42   c0-4.841,1.727-8.99,5.181-12.444s7.638-5.181,12.547-5.181c4.876,0,9.043,1.718,12.498,5.155s5.181,7.594,5.181,12.47   C90.462,105.767,88.735,109.907,85.281,113.343z M103.261,109.154c2.236,2.337,4.879,3.506,7.927,3.506   c2.979,0,5.806-1.406,8.482-4.219h7.263c-1.253,3.017-3.317,5.445-6.195,7.29c-2.879,1.847-6.029,2.77-9.449,2.77   c-4.843,0-9.001-1.744-12.47-5.233c-3.473-3.487-5.207-7.652-5.207-12.495c0-4.775,1.718-8.882,5.155-12.319   c3.437-3.438,7.56-5.155,12.369-5.155c4.909,0,9.145,1.795,12.699,5.385c1.354,1.354,2.455,3.014,3.304,4.978h-7.114   c-1.455-1.692-2.971-2.87-4.545-3.529c-1.575-0.662-3.091-0.992-4.546-0.992c-2.979,0-5.563,1.168-7.748,3.505   c-2.185,2.338-3.275,5.081-3.275,8.229C99.91,104.057,101.027,106.817,103.261,109.154z M82.907,20.141   c33.138,0.926,59.719,28.058,59.719,61.416c0,0.152-0.01,0.301-0.014,0.454C111.202,77.263,86.567,51.898,82.907,20.141z"></path><path d="M72.784,89.138c-3.149,0-5.843,1.151-8.077,3.454c-2.234,2.304-3.352,5.08-3.352,8.33c0,3.219,1.117,5.979,3.352,8.282   c2.234,2.303,4.928,3.455,8.077,3.455c3.149,0,5.843-1.144,8.077-3.431c2.236-2.286,3.354-5.055,3.354-8.307   c0-3.25-1.117-6.026-3.354-8.33C78.626,90.29,75.933,89.138,72.784,89.138z"></path></g></svg>