<?xml version="1.0" encoding="utf-8"?>
<!-- Generator: Adobe Illustrator 16.0.0, SVG Export Plug-In . SVG Version: 6.00 Build 0)  -->
<!DOCTYPE svg PUBLIC "-//W3C//DTD SVG 1.1//EN" "http://www.w3.org/Graphics/SVG/1.1/DTD/svg11.dtd">
<svg version="1.1" id="Layer_1" xmlns="http://www.w3.org/2000/svg" xmlns:xlink="http://www.w3.org/1999/xlink" x="0px" y="0px"
	 width="308px" height="370px" viewBox="0 0 308 370" enable-background="new 0 0 308 370" xml:space="preserve">
<path fill="#010101" d="M30,366.877c-4.7-2.399-8.4-9.7-7.5-14.6c0.899-4.8,3.899-9.4,7.7-11.8c4.899-3,12.8-2.2,16.899,1.699
	c7.7,7.301,7.9,16.4,0.601,23.2C44.2,368.677,34.9,369.478,30,366.877z"/>
<path fill="#010101" d="M109.2,367.677c-8.601-2.199-14.101-13.3-11.5-23.1c0.399-1.3,10-14,21.3-28.1l20.7-25.7l3.3-11.4
	c7.5-25.6,8.6-29.2,9.8-29.6c0.6-0.2,6.7,10.899,14.7,26.899c12.899,25.801,13.6,27.301,12.399,30.101
	c-1.3,3.1-49.399,55.7-53.899,58.899C123.1,367.777,114,368.877,109.2,367.677z"/>
<path fill="#010101" d="M231.1,367.677c-1.799-0.5-4.799-2.399-6.699-4.3c-3.699-3.8-71.9-138.2-75.301-148.5
	c-3.1-9.3-2.7-17.2,1.9-38.8c2.2-10.3,3.899-19,3.6-19.2c-0.2-0.3-11.6,9.801-25.3,22.4c-13.6,12.5-25.9,23.7-27.3,24.8
	c-2.4,1.9-3.7,7.1-18,73.5c-8.4,39.3-15.7,72.5-16.2,73.8c-0.6,1.9-1.4,2.3-4,2c-3-0.3-3.5-0.8-4.9-5.399
	c-2.3-7-4.5-10.101-9.399-12.9c-12-7.1-26.5-2.4-32.2,10.3l-2.3,5.4l-3.3-1.9c-1.7-1.1-4.601-3.8-6.4-6.2c-3.2-4.1-3.3-4.6-3.3-13.6
	c0-8.1,0.899-13.1,7-38.2c3.8-15.8,7.899-30.7,9.1-33c2.8-5.5,10.7-12.899,16.7-15.6c4.1-1.8,7-2.2,21.8-2.5l17-0.4l4.8-19.3
	c4.601-18.4,4.7-19.4,3.2-22.3c-2.6-5-2.1-11.3,1.3-15.801c1.601-2.1,23.801-24.899,49.301-50.699c52.8-53.3,51.399-52.2,66.3-52.1
	c6.6,0,9,0.5,13.6,2.7c9.602,4.7,13.9,10.3,30.701,41.3l15.299,28.2l20.701,9.7c25.398,11.899,27.199,13.399,27.199,23
	c0,5.7-0.301,6.8-3,9.9c-3.5,4-8.799,6.1-12.799,5.1c-4.5-1.1-51.201-19.5-53.801-21.2c-1.4-0.8-4.9-5.6-7.9-10.6
	c-5.199-8.7-5.4-8.9-6.1-6.101c-0.4,1.601-4,16.8-7.9,33.801l-7.199,30.899l24.5,60.5c23.1,57.3,24.4,60.8,24,65.8
	c-0.5,5.5-3.701,11-8.1,13.9C244.901,367.877,235.6,368.777,231.1,367.677z"/>
<circle fill="#010101" cx="224.024" cy="39.101" r="35.524"/>
</svg>
