<svg xmlns="http://www.w3.org/2000/svg" xmlns:xlink="http://www.w3.org/1999/xlink" version="1.1" x="0px" y="0px" viewBox="0 0 100 125" enable-background="new 0 0 100 100" xml:space="preserve"><path d="M78.21,4H18.546c-4.173,0-7.567,3.395-7.567,7.567v13.989v55.955V95.5c0,0.829,0.672,1.5,1.5,1.5h71.799  c0.828,0,1.5-0.671,1.5-1.5V81.511V25.556V11.567C85.777,7.395,82.383,4,78.21,4z M13.979,11.567C13.979,9.049,16.027,7,18.546,7  H78.21c2.519,0,4.567,2.049,4.567,4.567v13.989c0,2.519-2.049,4.567-4.567,4.567H58.491H38.266h-19.72  c-2.519,0-4.567-2.049-4.567-4.567V11.567z M34.153,69.225h-1.151c-2.078,0-3.833-1.649-3.833-3.602v-3.535  c0-2.066,1.862-4.021,3.833-4.021H34v9.357C34,68.042,34.06,68.64,34.153,69.225z M37.723,70.249  c-0.308-0.919-0.464-1.869-0.464-2.824V56.567c0-0.312-0.096-0.602-0.259-0.842V54h24v13.425C61,71.531,57.415,75,53.171,75h-8.941  c-2.851,0-5.262-1.649-6.445-4.104C37.81,70.681,37.793,70.46,37.723,70.249z M62.426,78.461v1.34H34.331v-1.34H62.426z   M63.926,75.461h-3.812C62.473,73.503,64,70.603,64,67.425V52.5c0-0.829-0.672-1.5-1.5-1.5h-27c-0.828,0-1.5,0.671-1.5,1.5v2.567  h-0.998c-3.64,0-6.833,3.281-6.833,7.021v3.535c0,3.579,3.129,6.602,6.833,6.602h2.086c0.602,1.245,1.429,2.342,2.436,3.236h-4.692  c-0.828,0-1.5,0.671-1.5,1.5v3.05H13.979V31.576c1.271,0.967,2.851,1.548,4.567,1.548h18.22v8.781c0,0.829,0.672,1.5,1.5,1.5h4.82  v3.683c0,0.829,0.672,1.5,1.5,1.5h7.585c0.828,0,1.5-0.671,1.5-1.5v-3.683h4.82c0.828,0,1.5-0.671,1.5-1.5v-2.629h14.928  c0.828,0,1.5-0.671,1.5-1.5s-0.672-1.5-1.5-1.5H59.991v-3.152H78.21c1.717,0,3.296-0.581,4.567-1.548v48.436H65.426v-3.05  C65.426,76.132,64.754,75.461,63.926,75.461z M56.991,40.404h-4.82h-7.585h-4.82v-7.281h17.226V40.404z M46.086,43.404h4.585v2.183  h-4.585V43.404z M82.777,94H13.979V83.011h68.799V94z"/><path d="M23.878,23.685c2.639,0,4.786-2.147,4.786-4.787s-2.147-4.787-4.786-4.787c-2.64,0-4.787,2.147-4.787,4.787  S21.238,23.685,23.878,23.685z M23.878,17.112c0.985,0,1.786,0.801,1.786,1.787s-0.801,1.787-1.786,1.787s-1.787-0.801-1.787-1.787  S22.893,17.112,23.878,17.112z"/><path d="M36.202,23.685c2.639,0,4.786-2.147,4.786-4.787s-2.147-4.787-4.786-4.787s-4.786,2.147-4.786,4.787  S33.563,23.685,36.202,23.685z M36.202,17.112c0.985,0,1.786,0.801,1.786,1.787s-0.801,1.787-1.786,1.787s-1.786-0.801-1.786-1.787  S35.217,17.112,36.202,17.112z"/></svg>
