<svg xmlns="http://www.w3.org/2000/svg" xmlns:xlink="http://www.w3.org/1999/xlink" version="1.1" x="0px" y="0px" viewBox="0 0 100 125" style="enable-background:new 0 0 100 100;" xml:space="preserve"><g><path d="M100,3.81V1.347h-3.221V0.822C96.779,0.368,96.411,0,95.957,0s-0.822,0.368-0.822,0.822v0.524h-6.418V0.822   C88.717,0.368,88.35,0,87.895,0c-0.453,0-0.822,0.368-0.822,0.822v0.524H80.65V0.822C80.65,0.368,80.282,0,79.828,0   s-0.822,0.368-0.822,0.822v0.524H72.58V0.822C72.58,0.368,72.213,0,71.758,0c-0.453,0-0.821,0.368-0.821,0.822v0.524h-6.423V0.822   C64.514,0.368,64.146,0,63.691,0s-0.822,0.368-0.822,0.822v0.524H37.131V0.822C37.131,0.368,36.763,0,36.309,0   s-0.822,0.368-0.822,0.822v0.524h-6.423V0.822C29.064,0.368,28.696,0,28.242,0S27.42,0.368,27.42,0.822v0.524h-6.426V0.822   C20.994,0.368,20.626,0,20.172,0S19.35,0.368,19.35,0.822v0.524h-6.423V0.822C12.927,0.368,12.559,0,12.105,0   s-0.822,0.368-0.822,0.822v0.524H4.865V0.822C4.865,0.368,4.498,0,4.043,0C3.589,0,3.221,0.368,3.221,0.822v0.524H0V3.81h3.221   v1.465C1.969,5.997,1.701,8.301,0,8.301v41.643v0.024l20.602,1.999C31.524,40.169,40.343,8.301,40.343,8.301   c-1.698,0-1.966-2.296-3.212-3.022V3.81h25.738v1.469c-1.246,0.726-1.515,3.022-3.213,3.022c0,0,8.82,31.868,19.742,43.666   L100,49.968v-0.024V8.301c-1.701,0-1.969-2.304-3.221-3.026V3.81H100z M8.072,8.301c-1.695,0-1.966-2.287-3.207-3.018V3.81h6.418   v1.47C10.039,6.007,9.769,8.301,8.072,8.301z M16.14,8.301c-1.698,0-1.966-2.296-3.213-3.022V3.81h6.423v1.47   C18.107,6.009,17.837,8.301,16.14,8.301z M24.208,8.301c-1.699,0-1.967-2.298-3.214-3.022V3.81h6.426v1.469   C26.175,6.006,25.906,8.301,24.208,8.301z M35.487,5.279c-1.245,0.728-1.514,3.021-3.211,3.021c-1.698,0-1.967-2.294-3.212-3.021   V3.81h6.423V5.279z M67.725,8.301c-1.697,0-1.967-2.294-3.211-3.021V3.81h6.423v1.469C69.691,6.006,69.422,8.301,67.725,8.301z    M75.792,8.301c-1.697,0-1.966-2.295-3.212-3.021V3.81h6.426v1.468C77.759,6.003,77.49,8.301,75.792,8.301z M83.859,8.301   c-1.696,0-1.966-2.292-3.209-3.021V3.81h6.422v1.468C85.826,6.004,85.559,8.301,83.859,8.301z M95.135,5.283   c-1.24,0.73-1.512,3.018-3.206,3.018c-1.698,0-1.968-2.294-3.212-3.021V3.81h6.418V5.283z M80.529,61.615L100,59.726V100   c-1.329,0-1.329-1.329-2.658-1.329c-1.33,0-1.33,1.329-2.659,1.329s-1.329-1.329-2.658-1.329S90.695,100,89.366,100   s-1.329-1.329-2.659-1.329c-1.329,0-1.329,1.329-2.658,1.329c-1.33,0-1.33-1.329-2.659-1.329S80.061,100,78.73,100   s-1.33-1.329-2.658-1.329c-1.33,0-1.33,1.329-2.66,1.329C73.412,100,76.691,74.104,80.529,61.615z M78.54,53.021L100,50.987v7.722   l-20.953,2.032c-0.532,0.052-1.019-0.36-1.086-0.92l-0.262-5.692C77.631,53.569,78.008,53.074,78.54,53.021z M19.472,61.615   C23.31,74.104,26.588,100,26.588,100c-1.33,0-1.33-1.329-2.659-1.329S22.599,100,21.27,100s-1.33-1.329-2.659-1.329   c-1.329,0-1.329,1.329-2.659,1.329s-1.33-1.329-2.659-1.329c-1.33,0-1.33,1.329-2.659,1.329s-1.329-1.329-2.659-1.329   c-1.329,0-1.329,1.329-2.658,1.329c-1.33,0-1.33-1.329-2.659-1.329C1.329,98.671,1.329,100,0,100V59.726L19.472,61.615z    M20.953,60.741L0,58.709v-7.722l21.46,2.034c0.533,0.053,0.909,0.548,0.842,1.107l-0.262,5.692   C21.972,60.381,21.485,60.793,20.953,60.741z"/></g><text x="0" y="115" fill="#000000" font-size="5px" font-weight="bold" font-family="'Helvetica Neue', Helvetica, Arial-Unicode, Arial, Sans-serif">Created by b farias</text><text x="0" y="120" fill="#000000" font-size="5px" font-weight="bold" font-family="'Helvetica Neue', Helvetica, Arial-Unicode, Arial, Sans-serif">from the Noun Project</text></svg>