<?xml version="1.0" encoding="UTF-8" ?>
<!DOCTYPE svg PUBLIC "-//W3C//DTD SVG 1.1//EN" "http://www.w3.org/Graphics/SVG/1.1/DTD/svg11.dtd">
<svg width="780pt" height="1363pt" viewBox="0 0 780 1363" version="1.1" xmlns="http://www.w3.org/2000/svg">
<g id="#030303ff">
<path fill="#030303" opacity="1.00" d=" M 434.34 1.23 C 464.58 -1.48 495.70 1.05 524.28 11.77 C 557.56 24.90 590.89 37.90 624.27 50.80 C 640.59 57.18 656.20 65.40 670.54 75.49 C 682.51 83.62 692.81 93.83 703.69 103.30 C 714.53 113.13 724.83 123.63 733.66 135.32 C 755.85 164.20 770.35 198.76 776.22 234.65 C 778.48 246.51 778.67 258.61 780.00 270.58 L 780.00 282.41 C 777.59 304.86 778.99 327.47 778.27 349.99 C 777.22 377.64 777.47 405.33 777.08 433.00 C 775.70 456.62 776.82 480.30 775.73 503.93 C 775.02 513.99 775.67 524.11 774.59 534.15 C 774.08 555.48 770.41 576.64 770.93 598.00 C 769.71 622.00 770.37 646.05 769.70 670.07 C 768.64 691.05 769.38 712.06 768.69 733.06 C 767.81 751.69 768.17 770.36 767.84 789.01 C 767.90 801.68 766.90 814.33 767.00 827.00 C 766.86 842.32 767.13 857.66 766.26 872.97 C 765.73 895.97 766.15 918.99 765.20 941.98 C 764.55 965.71 765.48 989.51 763.23 1013.18 C 757.30 1086.54 728.73 1157.60 683.63 1215.64 C 646.67 1263.25 598.63 1302.39 543.99 1328.00 C 501.17 1348.23 454.31 1360.09 406.96 1362.02 C 404.70 1362.19 402.49 1362.61 400.27 1363.00 L 381.72 1363.00 C 372.66 1360.79 363.27 1361.21 354.08 1359.96 C 310.73 1354.54 268.28 1340.69 230.66 1318.35 C 214.27 1308.68 197.86 1298.90 182.87 1287.12 C 160.36 1269.83 140.57 1249.18 123.37 1226.64 C 101.59 1198.13 79.36 1169.97 57.48 1141.55 C 19.22 1088.66 -0.39 1023.11 0.22 958.00 C 0.39 943.34 0.13 928.66 0.96 914.01 C 1.53 892.01 0.87 869.97 2.08 847.99 C 2.48 826.32 1.95 804.64 3.07 782.99 C 3.60 760.66 2.92 738.30 4.15 715.99 C 4.58 693.99 4.02 671.97 5.23 649.99 C 5.54 628.32 5.12 606.63 6.25 584.99 C 6.43 568.00 6.43 551.01 6.70 534.02 C 7.78 513.70 7.33 493.34 7.67 473.01 C 8.88 448.70 8.32 424.34 8.79 400.02 C 10.19 374.60 8.98 349.12 10.35 323.70 C 10.88 301.46 10.28 279.19 11.40 256.96 C 11.73 243.76 11.34 230.49 13.23 217.37 C 19.85 159.94 49.55 105.88 93.47 68.47 C 129.25 37.79 174.79 18.18 221.96 15.15 C 292.75 10.51 363.55 5.91 434.34 1.23 M 396.94 7.29 C 345.62 10.73 294.29 13.97 242.98 17.43 C 219.42 18.15 195.68 20.78 173.21 28.23 C 123.98 44.02 81.12 77.77 52.94 120.97 C 29.71 156.38 16.11 198.32 15.54 240.76 C 14.42 258.14 15.10 275.60 14.69 293.01 C 13.44 318.98 14.03 345.01 13.50 371.01 C 12.41 386.65 13.02 402.35 12.66 418.01 C 12.84 427.02 11.81 435.99 11.93 445.00 C 11.78 460.35 11.73 475.70 11.54 491.06 C 10.03 518.01 11.43 545.06 9.90 572.01 C 9.66 592.00 9.62 611.99 9.36 631.98 C 7.96 654.30 9.25 676.70 7.88 699.02 C 7.38 721.35 8.01 743.71 6.78 766.02 C 6.40 788.34 6.93 810.70 5.71 833.01 C 5.55 850.99 5.57 868.99 5.20 886.97 C 4.48 895.30 4.71 903.66 4.60 912.01 C 4.47 926.34 4.24 940.67 4.34 955.00 C 2.81 1001.65 12.71 1048.53 32.07 1090.95 C 41.64 1111.70 53.72 1131.24 67.67 1149.32 C 79.34 1164.74 91.44 1179.85 103.11 1195.24 C 101.55 1190.96 98.56 1187.44 96.54 1183.40 C 86.16 1163.25 77.80 1142.06 71.74 1120.21 C 62.47 1087.35 58.70 1053.09 58.94 1019.00 C 59.99 1001.70 59.47 984.33 59.79 967.00 C 60.95 941.69 60.53 916.34 60.95 891.01 C 62.37 868.37 61.07 845.64 62.45 823.00 C 62.97 797.68 62.40 772.33 63.63 747.03 C 63.72 729.68 63.93 712.33 64.07 694.98 C 65.13 676.34 64.67 657.66 65.03 639.00 C 64.81 628.32 65.99 617.68 65.76 607.01 C 66.11 588.35 65.69 569.68 66.73 551.05 C 66.89 533.02 67.03 515.00 67.22 496.97 C 68.58 474.02 67.38 450.99 68.71 428.04 C 68.96 407.68 69.09 387.33 69.27 366.98 C 70.34 346.34 69.98 325.64 70.24 304.98 C 70.55 301.65 70.97 298.33 71.09 294.98 C 75.18 227.98 107.03 163.62 156.41 118.38 C 190.67 86.89 233.42 64.30 279.23 55.50 C 287.57 53.85 296.04 53.05 304.44 51.79 C 366.32 47.97 428.18 43.67 490.06 39.78 C 514.70 38.28 539.41 35.12 564.11 37.32 C 571.83 37.69 579.39 39.50 587.11 39.88 C 567.98 32.30 548.80 24.82 529.60 17.41 C 504.35 7.64 477.08 2.41 449.98 4.22 C 432.26 4.61 414.62 6.39 396.94 7.29 M 310.69 55.71 C 272.87 58.03 235.87 70.04 203.31 89.29 C 156.20 117.17 118.27 160.25 96.43 210.43 C 84.47 237.76 77.26 267.18 75.45 296.96 C 73.87 323.60 74.48 350.32 74.04 376.99 C 72.71 398.31 73.61 419.68 72.90 441.02 C 71.99 462.67 72.24 484.35 71.99 506.01 C 70.47 531.97 71.79 558.01 70.36 583.96 C 70.14 601.98 70.05 620.01 69.86 638.03 C 68.44 662.98 69.71 688.01 68.27 712.96 C 68.08 734.99 67.88 757.02 67.69 779.05 C 66.66 795.68 67.10 812.36 66.79 829.01 C 67.00 838.02 65.92 846.98 66.08 855.99 C 65.71 874.64 66.22 893.32 65.16 911.95 C 64.86 930.98 64.89 950.02 64.58 969.06 C 63.76 979.68 64.10 990.35 63.87 1001.00 C 63.82 1018.64 63.09 1036.31 64.53 1053.92 C 69.16 1118.06 92.36 1181.11 132.24 1231.75 C 141.44 1243.22 151.04 1254.53 162.09 1264.27 C 160.51 1261.49 158.32 1259.17 156.19 1256.84 C 111.99 1207.06 84.99 1142.94 77.84 1076.92 C 75.82 1057.37 74.77 1037.64 75.98 1018.01 C 76.63 999.35 75.86 980.67 76.90 962.03 C 77.64 935.69 76.95 909.31 78.19 882.99 C 78.35 865.33 78.52 847.67 78.65 830.01 C 79.82 809.38 79.19 788.69 79.75 768.04 C 80.49 759.05 80.27 750.02 80.37 741.00 C 80.32 722.99 80.79 704.99 81.30 686.99 C 81.71 664.20 81.20 641.39 82.72 618.64 C 84.85 601.16 86.57 583.59 86.95 565.98 C 88.54 545.69 87.10 525.30 88.52 505.01 C 88.70 486.66 88.82 468.32 89.01 449.97 C 90.45 424.70 89.18 399.34 90.57 374.06 C 90.75 356.02 91.05 337.98 90.93 319.94 C 91.15 315.95 91.83 312.00 91.88 308.01 C 96.37 236.78 132.69 168.77 187.88 123.84 C 217.52 99.48 252.71 81.87 290.08 73.11 C 305.15 69.67 320.56 67.83 335.98 67.04 C 402.33 62.58 468.69 58.53 535.03 53.91 C 544.33 53.08 553.66 52.63 563.01 52.65 C 599.87 51.96 636.46 61.80 668.97 78.93 C 662.89 74.13 656.12 70.30 649.39 66.52 C 616.39 48.54 578.56 39.69 541.02 40.72 C 464.24 45.59 387.47 50.73 310.69 55.71 M 513.97 58.54 C 481.32 60.97 448.62 62.64 415.97 65.13 C 381.59 67.15 347.22 69.34 312.91 72.19 C 304.23 73.25 295.69 75.16 287.18 77.13 C 216.74 94.51 155.97 144.69 122.99 208.99 C 108.00 237.94 98.55 269.76 95.48 302.23 C 93.61 329.78 94.16 357.43 93.71 385.03 C 92.72 398.66 93.20 412.34 92.89 426.00 C 92.99 439.34 92.09 452.66 92.04 465.99 C 91.77 482.64 92.22 499.31 91.24 515.94 C 90.83 525.30 91.14 534.67 90.92 544.03 C 90.72 570.14 88.82 596.21 85.67 622.13 C 89.29 623.73 93.20 624.50 97.10 625.07 C 98.35 619.83 98.17 614.41 98.79 609.08 C 99.51 598.72 100.33 588.36 100.49 577.98 C 102.01 561.03 100.72 543.98 102.02 527.03 C 102.54 503.02 101.93 478.97 103.15 454.99 C 103.31 435.66 103.49 416.33 103.66 397.01 C 104.73 377.69 104.28 358.33 104.64 339.00 C 104.56 312.08 107.30 284.96 115.16 259.12 C 133.60 196.32 177.50 141.50 234.65 109.62 C 267.10 91.44 303.89 80.99 341.07 79.65 C 391.06 76.42 441.03 73.03 491.02 69.86 C 511.99 68.41 533.00 67.32 553.94 65.36 C 573.49 64.76 593.23 65.46 612.41 69.60 C 643.37 76.01 672.85 89.65 697.57 109.38 C 722.91 129.60 743.27 156.00 756.44 185.61 C 769.16 213.97 775.72 245.09 775.44 276.15 C 775.71 274.13 775.82 272.09 775.86 270.05 C 775.66 229.63 764.48 189.21 743.16 154.81 C 726.48 127.68 703.50 104.48 676.55 87.50 C 649.88 70.79 619.34 60.31 588.04 57.10 C 563.39 54.10 538.62 57.40 513.97 58.54 M 551.97 69.33 C 538.98 69.50 526.05 70.94 513.09 71.60 C 453.71 75.60 394.31 79.20 334.95 83.34 C 278.82 86.32 224.87 111.73 184.76 150.77 C 141.91 191.98 114.09 248.78 109.15 308.15 C 106.85 338.69 108.13 369.37 107.15 399.96 C 106.03 422.96 107.15 446.02 105.76 469.01 C 105.57 489.00 105.49 508.99 105.20 528.97 C 104.04 545.64 105.12 562.38 103.72 579.04 C 103.34 594.42 101.97 609.76 100.68 625.09 C 104.73 627.68 109.01 630.12 112.06 633.94 C 118.33 641.27 123.29 649.60 127.83 658.09 C 142.38 684.90 162.80 708.60 187.68 726.34 C 218.32 748.34 255.28 761.31 292.91 763.65 C 301.94 764.24 311.06 764.73 320.07 763.45 C 340.75 762.74 361.39 761.00 382.06 759.77 C 431.69 756.50 481.32 753.24 530.95 750.02 C 542.84 748.80 554.84 748.68 566.60 746.39 C 628.52 735.86 684.77 699.15 721.59 648.58 C 730.62 636.23 738.47 623.04 745.48 609.44 C 750.42 600.62 754.71 591.21 761.87 583.89 C 764.40 581.67 764.29 578.11 764.71 575.05 C 766.02 560.72 767.25 546.39 767.92 532.02 C 768.37 522.36 767.90 512.67 768.82 503.04 C 769.26 483.37 768.83 463.67 769.81 444.02 C 770.18 423.35 769.88 402.66 770.87 382.01 C 771.01 364.66 771.18 347.31 771.32 329.96 C 772.48 310.67 771.84 291.32 772.26 272.01 C 771.70 233.58 760.83 195.21 740.53 162.53 C 723.81 135.64 700.68 112.73 673.42 96.58 C 642.03 77.91 605.47 68.33 569.00 68.33 C 563.30 68.24 557.66 69.27 551.97 69.33 M 761.22 600.21 C 759.03 607.88 756.46 615.48 754.64 623.25 C 753.84 636.63 754.84 650.08 753.64 663.46 C 753.07 684.72 753.86 706.01 752.65 727.26 C 752.11 748.17 752.74 769.12 751.59 790.01 C 751.33 809.01 751.37 828.02 751.00 847.02 C 749.99 862.33 750.54 877.68 750.19 893.00 C 750.57 904.68 749.33 916.32 749.42 927.99 C 749.22 944.68 749.28 961.37 748.89 978.06 C 747.92 990.04 748.89 1002.11 747.48 1014.07 C 741.26 1099.44 702.26 1181.47 641.68 1241.68 C 594.60 1288.86 534.13 1322.87 468.87 1336.97 C 399.79 1352.38 325.15 1343.71 262.36 1310.62 C 210.04 1283.45 166.95 1239.44 139.85 1187.18 C 116.18 1141.35 104.18 1089.55 105.23 1037.98 C 105.36 1016.00 105.61 994.01 105.78 972.03 C 107.16 949.37 105.96 926.64 107.27 903.98 C 107.66 878.31 107.45 852.62 108.48 826.96 C 108.80 809.96 108.29 792.95 109.36 775.98 C 109.58 756.32 109.61 736.66 109.95 717.01 C 110.78 702.02 110.49 687.01 110.75 672.01 C 110.81 668.10 110.91 664.12 109.71 660.36 C 107.57 653.02 105.49 645.62 102.41 638.61 C 101.28 636.27 99.97 633.58 97.29 632.74 C 93.10 631.16 88.96 629.40 85.03 627.23 C 84.82 642.08 84.78 656.94 84.61 671.80 C 84.39 682.54 84.73 693.30 83.92 704.02 C 83.42 725.67 83.91 747.35 83.03 768.99 C 82.13 795.65 83.01 822.36 81.64 849.00 C 81.57 863.66 81.42 878.33 81.27 892.99 C 79.84 918.30 81.15 943.70 79.67 969.01 C 79.59 986.34 79.31 1003.66 79.26 1020.99 C 79.04 1030.33 78.07 1039.70 79.12 1049.03 C 80.89 1116.77 103.56 1184.20 144.87 1238.12 C 181.32 1285.95 232.24 1322.44 289.15 1341.82 C 331.02 1356.17 375.85 1361.58 419.95 1358.05 C 458.00 1355.04 495.50 1345.60 530.57 1330.57 C 586.55 1306.74 636.22 1268.73 674.73 1221.71 C 722.30 1163.81 752.67 1091.74 759.75 1017.07 C 761.24 1006.73 760.44 996.26 761.47 985.89 C 761.93 970.60 761.42 955.30 761.97 940.01 C 763.25 912.70 762.15 885.33 763.60 858.02 C 763.62 842.02 763.89 826.02 763.94 810.02 C 765.46 783.06 764.15 756.01 765.62 729.05 C 766.00 706.70 765.55 684.33 766.69 662.01 C 766.79 645.99 766.95 629.96 767.11 613.94 C 767.61 605.24 768.10 596.50 767.52 587.79 C 763.72 590.81 762.81 595.88 761.22 600.21 M 744.67 617.65 C 737.76 630.95 729.57 643.56 720.46 655.45 C 683.19 704.07 627.86 739.24 567.22 749.50 C 543.33 753.82 518.95 753.22 494.87 755.80 C 483.79 756.01 472.76 757.16 461.70 757.74 C 413.12 761.05 364.52 763.90 315.96 767.41 C 273.65 768.69 230.66 758.12 194.93 735.11 C 164.42 715.79 139.69 687.95 122.98 656.02 C 119.67 649.86 115.92 643.92 111.58 638.44 C 108.53 634.84 105.36 630.92 100.71 629.40 C 102.71 633.34 105.42 636.92 106.94 641.10 C 109.47 647.90 111.69 654.84 113.13 661.95 C 113.84 665.92 116.70 668.96 118.53 672.43 C 142.22 712.72 179.59 744.80 223.13 761.84 C 254.70 774.20 289.17 779.36 322.94 776.27 C 390.98 772.28 458.96 767.43 526.97 763.11 C 541.24 762.17 555.56 761.40 569.61 758.55 C 646.38 744.36 714.40 692.40 750.65 623.59 C 754.89 612.21 757.15 600.14 761.86 588.90 C 754.74 597.56 750.20 607.97 744.67 617.65 M 732.05 659.08 C 693.50 711.01 635.83 749.04 572.10 761.34 C 552.33 765.48 532.06 765.65 512.01 767.43 C 491.34 768.52 470.67 769.91 450.03 771.49 C 428.23 772.61 406.46 774.20 384.69 775.72 C 365.74 776.60 346.85 778.36 327.91 779.31 C 309.66 780.84 291.21 780.76 273.05 778.18 C 238.04 773.38 204.18 760.14 175.48 739.48 C 150.49 721.60 129.81 698.10 114.13 671.74 C 113.57 682.49 113.82 693.27 113.66 704.04 C 112.55 723.67 113.00 743.35 112.66 763.01 C 112.89 773.35 111.76 783.66 111.92 794.01 C 111.51 812.00 112.13 830.02 110.97 847.99 C 110.78 866.67 110.68 885.35 110.50 904.04 C 109.26 926.96 109.93 949.94 109.38 972.89 C 108.56 985.17 108.94 997.50 108.60 1009.81 C 108.36 1026.64 108.24 1043.48 108.70 1060.31 C 111.72 1113.24 128.02 1165.58 156.89 1210.16 C 175.10 1238.17 198.19 1263.02 224.84 1283.18 C 279.28 1324.59 348.96 1344.47 417.05 1340.76 C 457.42 1338.69 497.28 1328.68 534.15 1312.18 C 590.63 1286.94 639.89 1246.27 676.35 1196.38 C 721.01 1135.30 746.47 1059.83 745.22 983.98 C 746.44 960.47 745.83 936.92 746.47 913.39 C 747.38 900.94 746.75 888.45 747.16 875.98 C 747.41 862.66 746.96 849.32 747.94 836.02 C 748.37 819.03 747.83 802.01 748.62 785.03 C 749.63 759.70 748.65 734.31 750.01 709.00 C 750.15 693.33 750.28 677.66 750.41 661.99 C 750.32 651.53 751.72 641.10 750.90 630.64 C 744.84 640.26 738.99 650.05 732.05 659.08 Z" />
<path fill="#030303" opacity="1.00" d=" M 562.34 116.19 C 572.48 114.69 582.75 115.87 592.91 116.60 C 624.47 119.38 655.20 131.25 680.15 150.82 C 704.75 170.03 723.71 196.33 734.29 225.70 C 741.95 246.53 745.43 268.81 745.23 290.98 C 744.70 302.64 745.37 314.32 744.45 325.97 C 744.00 345.65 744.08 365.34 743.81 385.03 C 742.72 405.67 743.17 426.36 742.79 447.02 C 741.84 463.66 742.18 480.34 741.89 497.01 C 741.90 515.33 741.58 533.79 737.99 551.83 C 731.21 587.05 714.82 620.29 691.39 647.42 C 668.11 674.45 637.71 695.42 603.91 706.95 C 586.56 713.02 568.31 716.21 549.99 717.35 C 537.98 717.48 526.02 718.76 514.03 719.48 C 486.97 721.17 459.92 722.92 432.87 724.75 C 417.95 725.98 403.02 727.37 388.04 727.70 C 371.70 728.61 355.39 729.85 339.06 730.90 C 321.73 732.28 304.16 731.59 287.12 728.02 C 253.19 721.19 221.56 703.33 198.36 677.62 C 175.92 653.12 161.42 621.75 156.22 589.01 C 154.57 579.99 154.40 570.82 153.74 561.71 C 153.36 556.47 153.76 551.24 154.14 546.02 C 154.70 528.35 153.95 510.64 155.14 492.99 C 155.34 472.66 155.45 452.34 155.69 432.01 C 156.83 411.38 156.19 390.69 156.79 370.04 C 157.61 356.44 157.35 342.81 157.35 329.20 C 158.21 302.61 163.96 276.14 174.89 251.85 C 189.79 218.06 213.99 188.47 243.97 166.94 C 272.44 146.41 306.46 133.67 341.46 130.72 C 409.66 126.59 477.84 121.84 546.04 117.49 C 551.47 117.10 556.93 116.93 562.34 116.19 M 572.31 119.26 C 519.49 122.01 466.74 126.11 413.94 129.26 C 387.53 131.25 361.07 132.50 334.68 134.72 C 317.82 136.65 301.25 141.05 285.56 147.52 C 278.71 150.41 271.84 153.37 265.59 157.45 C 247.24 166.83 231.05 180.02 216.82 194.82 C 190.38 222.57 171.89 257.82 164.39 295.42 C 160.27 315.34 160.53 335.75 160.40 355.98 C 159.17 376.63 159.38 397.31 159.26 417.98 C 159.03 423.31 158.59 428.65 159.03 434.00 C 158.57 451.65 158.61 469.33 158.43 487.00 C 157.15 510.98 157.91 535.02 157.20 559.01 C 157.01 581.93 161.27 604.89 169.90 626.14 C 180.95 653.86 199.76 678.45 223.69 696.30 C 253.15 718.32 290.29 729.46 326.97 728.35 C 339.68 727.82 352.36 726.79 365.05 725.99 C 387.38 724.21 409.80 723.92 432.10 721.62 C 475.76 718.73 519.43 715.98 563.08 712.91 C 589.39 709.95 615.00 701.27 637.84 687.90 C 664.98 672.05 688.22 649.69 705.43 623.42 C 723.48 595.88 734.77 563.89 737.67 531.08 C 739.08 509.75 738.59 488.36 738.94 467.00 C 738.76 458.66 739.79 450.35 739.64 442.01 C 739.96 422.00 739.65 401.97 740.49 381.97 C 740.96 362.96 740.86 343.95 741.14 324.94 C 741.94 314.31 741.79 303.64 741.77 292.98 C 743.50 246.71 726.14 199.61 693.27 166.74 C 666.51 139.78 629.93 122.62 592.00 119.85 C 585.44 119.56 578.87 118.40 572.31 119.26 Z" />
<path fill="#030303" opacity="1.00" d=" M 557.46 148.64 C 576.15 147.23 595.21 147.51 613.36 152.66 C 643.01 160.38 669.62 178.56 687.92 203.09 C 705.24 226.01 714.92 254.34 716.52 282.93 C 716.72 304.28 716.20 325.63 716.15 346.98 C 714.60 372.94 716.02 398.99 714.50 424.95 C 714.30 443.30 714.26 461.67 713.98 480.03 C 713.05 492.66 713.48 505.33 713.25 517.99 C 713.09 559.89 696.94 601.66 668.31 632.31 C 660.79 641.14 652.08 649.01 642.49 655.53 C 623.55 670.14 600.99 679.86 577.60 684.59 C 566.87 686.86 555.88 687.28 544.98 688.10 C 482.63 692.16 420.30 696.29 357.95 700.29 C 338.43 701.64 318.60 703.40 299.24 699.52 C 267.80 693.67 238.46 676.62 218.21 651.80 C 205.04 635.73 195.49 616.74 190.35 596.62 C 185.95 580.13 184.97 562.94 185.42 545.95 C 186.59 525.97 185.98 505.94 186.39 485.95 C 187.83 462.49 186.72 438.95 187.67 415.48 C 188.90 391.67 187.54 367.78 189.08 343.99 C 189.41 334.98 188.73 325.94 189.81 316.97 C 192.60 284.25 205.58 252.64 225.84 226.86 C 247.30 199.45 277.17 178.50 310.65 168.66 C 326.64 163.62 343.45 162.50 360.09 161.59 C 374.37 160.26 388.75 160.59 403.00 158.82 C 454.48 155.32 505.98 152.12 557.46 148.64 M 556.31 170.28 C 484.84 174.88 413.36 179.58 341.89 184.27 C 309.02 186.85 277.72 202.28 254.44 225.44 C 231.36 248.21 215.84 278.61 211.44 310.77 C 208.25 338.41 210.78 366.29 208.86 394.00 C 208.42 416.67 209.07 439.37 207.78 462.01 C 207.44 485.35 207.95 508.70 206.73 532.02 C 206.85 545.99 205.70 560.07 207.74 573.96 C 211.33 602.85 225.27 630.49 247.11 649.87 C 270.70 671.25 303.23 681.85 334.88 679.81 C 400.61 675.52 466.33 671.21 532.05 666.91 C 549.09 665.58 566.43 665.69 583.02 661.03 C 630.80 648.48 670.12 609.67 684.72 562.66 C 692.31 539.92 691.84 515.67 691.83 492.01 C 692.24 476.35 691.76 460.67 692.76 445.04 C 693.07 425.36 692.71 405.67 693.74 386.02 C 693.94 367.99 694.02 349.97 694.23 331.95 C 694.98 319.31 694.93 306.65 695.00 294.00 C 695.32 275.23 691.30 256.46 683.66 239.34 C 670.77 210.61 646.05 187.32 616.39 176.63 C 597.30 169.41 576.46 168.24 556.31 170.28 Z" />
<path fill="#030303" opacity="1.00" d=" M 450.47 196.60 C 490.18 193.24 530.98 200.95 566.17 219.86 C 601.58 238.86 631.15 268.65 649.66 304.34 C 667.73 338.79 675.87 378.20 674.02 416.99 C 672.16 457.97 659.60 498.32 638.38 533.39 C 622.99 558.77 603.27 581.57 580.11 600.15 C 549.95 624.45 514.00 641.75 475.94 649.18 C 436.83 657.01 395.46 654.07 358.16 639.79 C 328.09 628.36 300.90 609.52 279.65 585.38 C 252.17 554.36 234.78 514.81 229.37 473.80 C 222.14 421.57 233.77 367.40 259.79 321.72 C 291.81 265.21 346.13 221.18 408.99 203.97 C 422.54 200.20 436.46 197.78 450.47 196.60 M 418.84 205.00 C 414.15 206.10 409.41 207.12 404.94 208.92 C 409.91 208.01 414.72 206.36 419.69 205.40 C 434.91 201.86 450.55 200.57 466.14 200.12 C 489.00 200.59 511.96 203.77 533.57 211.47 C 581.32 227.74 621.84 263.58 644.25 308.72 C 659.73 338.98 667.03 373.10 667.02 407.00 C 666.56 441.95 658.40 476.77 643.29 508.31 C 627.36 541.52 603.99 571.18 575.28 594.28 C 549.08 615.55 518.27 631.14 485.58 639.58 C 447.78 649.41 407.22 648.58 369.89 637.04 C 333.40 625.70 300.49 603.25 276.56 573.47 C 253.47 545.07 238.84 510.14 233.63 473.99 C 232.60 465.02 230.98 456.06 231.27 447.01 C 231.33 439.69 231.14 432.37 231.53 425.06 C 230.16 431.96 230.89 439.02 230.70 446.00 C 231.53 489.28 244.42 532.80 270.14 567.92 C 292.62 599.32 324.66 623.72 360.87 637.13 C 395.18 650.05 432.92 653.13 468.99 647.01 C 507.99 640.47 545.02 623.47 576.00 598.98 C 630.58 556.10 666.45 489.65 670.37 420.17 C 671.53 410.43 670.84 400.62 670.31 390.87 C 667.06 341.23 646.34 292.34 610.70 257.30 C 586.50 232.60 555.31 215.12 521.99 206.16 C 488.42 197.05 452.64 197.14 418.84 205.00 M 456.79 204.03 C 456.73 215.00 456.99 226.39 452.76 236.73 C 451.45 239.77 449.32 243.18 445.69 243.53 C 436.80 244.44 427.85 244.67 418.94 245.47 C 414.98 246.12 411.85 243.14 409.98 240.01 C 405.28 232.09 402.82 223.02 398.08 215.12 C 337.02 235.44 285.65 282.15 258.23 340.19 C 257.26 347.23 257.77 354.45 257.65 361.56 C 261.65 358.56 265.45 355.15 270.12 353.19 C 279.58 348.74 291.33 349.17 300.19 354.86 C 306.64 358.87 311.17 365.57 313.10 372.86 C 316.67 386.88 310.58 402.50 298.73 410.70 C 288.99 417.87 275.09 419.36 264.32 413.64 C 258.62 410.85 254.65 405.77 251.52 400.42 C 247.20 399.34 242.60 400.51 238.25 401.10 C 236.22 415.51 233.81 430.15 235.10 444.71 C 240.90 450.33 247.60 454.97 253.42 460.59 C 256.16 462.93 255.72 466.76 255.75 470.00 C 255.21 481.01 255.80 492.04 255.32 503.05 C 255.08 512.95 254.06 522.95 255.13 532.81 C 260.91 545.39 268.38 557.18 276.75 568.20 C 278.31 570.41 280.44 572.13 282.90 573.24 C 293.56 578.44 304.68 582.73 316.11 585.91 C 330.24 589.65 344.81 592.62 359.48 592.54 C 359.61 586.06 359.40 579.57 359.57 573.09 C 367.28 574.94 375.13 573.37 382.92 573.12 C 390.76 572.41 399.07 572.94 406.29 569.27 C 409.67 567.53 413.57 567.88 417.24 567.51 C 423.45 567.25 429.69 566.30 435.91 566.84 C 441.14 568.69 442.78 574.55 445.07 579.02 C 457.65 574.75 469.51 568.63 480.96 561.95 C 513.31 542.79 540.96 515.81 561.05 484.03 C 562.73 481.09 565.14 478.39 565.82 474.99 C 567.10 450.66 566.70 426.26 567.11 401.91 C 567.42 398.07 567.97 392.65 572.50 391.59 C 580.11 389.91 587.98 390.50 595.69 389.54 C 598.10 377.91 598.43 366.05 597.90 354.22 C 590.44 349.27 582.96 344.35 575.43 339.52 C 573.25 338.07 570.96 336.68 569.30 334.62 C 568.28 331.19 568.86 327.53 568.73 324.00 C 568.58 311.99 569.18 300.00 568.99 288.00 C 568.79 277.33 570.12 266.70 569.71 256.03 C 569.71 254.23 568.75 252.67 567.92 251.15 C 562.38 241.63 555.48 232.99 548.37 224.60 C 545.89 221.73 543.33 218.64 539.63 217.34 C 519.68 209.51 498.44 204.99 477.03 204.02 C 470.28 203.97 463.54 203.97 456.79 204.03 M 405.55 212.92 C 406.98 219.40 408.98 225.87 412.32 231.63 C 413.44 234.07 417.12 235.20 418.92 232.91 C 423.08 225.44 423.35 216.75 423.20 208.41 C 417.22 209.48 411.26 210.83 405.55 212.92 M 551.80 222.70 C 558.14 231.23 565.08 239.36 570.43 248.59 C 573.12 253.56 578.46 255.95 582.81 259.18 C 598.89 270.50 615.33 281.32 631.18 292.97 C 612.23 262.57 584.19 237.92 551.80 222.70 M 572.96 256.90 C 572.14 270.25 572.83 283.62 572.28 296.97 C 572.15 307.97 572.47 318.97 571.98 329.96 C 589.60 341.45 606.91 353.45 624.93 364.30 C 625.13 357.86 624.84 351.40 625.14 344.96 C 625.53 333.64 624.92 322.29 625.47 310.97 C 626.00 305.08 626.21 299.15 625.88 293.24 C 608.21 281.18 590.87 268.59 572.96 256.90 M 629.50 297.93 C 628.45 320.53 628.50 343.17 628.41 365.80 C 628.66 367.82 629.95 370.21 632.19 370.47 C 639.19 371.45 646.27 370.40 653.30 370.25 C 653.99 366.44 652.68 362.66 652.11 358.92 C 648.74 340.67 642.33 323.15 634.72 306.28 C 633.12 303.41 631.37 300.62 629.50 297.93 M 637.91 304.94 C 639.59 309.80 642.09 314.31 643.94 319.10 C 648.04 329.47 651.52 340.11 653.95 351.01 C 655.54 358.20 657.42 365.49 656.85 372.93 C 650.33 374.17 643.66 373.97 637.08 374.68 C 634.09 374.65 630.78 375.39 628.06 373.84 C 619.04 368.46 610.73 361.92 601.48 356.93 C 601.41 368.16 600.66 379.36 599.30 390.51 C 616.39 403.47 633.40 416.53 650.47 429.52 C 652.49 431.14 654.93 432.67 655.72 435.30 C 656.76 438.50 655.60 441.86 655.12 445.07 C 651.04 465.80 644.21 485.97 634.93 504.95 C 632.48 510.18 629.68 515.49 624.99 519.06 C 619.91 516.30 615.42 512.63 610.71 509.30 C 596.55 499.25 582.67 488.79 568.34 478.99 C 540.64 525.74 497.23 563.40 446.20 582.49 C 450.32 597.20 450.66 612.58 450.08 627.75 C 452.47 629.76 454.99 631.64 457.25 633.82 C 458.53 634.72 457.70 636.38 457.69 637.64 C 445.63 640.00 433.25 640.75 420.98 640.40 C 416.63 640.42 413.54 637.10 410.32 634.69 C 394.94 622.71 379.28 611.09 363.90 599.11 C 361.91 597.53 359.62 596.17 357.01 596.12 C 343.56 595.39 330.21 593.21 317.20 589.74 C 306.45 587.10 296.26 582.74 285.94 578.88 C 316.25 613.54 359.90 635.56 405.43 641.37 C 445.99 646.61 487.83 639.25 524.75 621.87 C 591.52 590.82 642.06 527.51 657.86 455.63 C 666.24 419.06 665.38 380.35 654.70 344.35 C 650.48 330.71 645.50 317.09 637.91 304.94 M 245.17 373.19 C 243.38 379.64 241.37 386.04 240.07 392.61 C 243.27 392.70 246.51 392.76 249.60 391.79 C 250.06 381.71 250.22 371.60 249.81 361.52 C 247.57 365.10 246.31 369.16 245.17 373.19 M 304.88 363.52 C 305.59 366.75 307.60 369.62 307.78 372.98 C 308.13 378.59 307.78 384.38 305.71 389.67 C 300.30 403.88 285.27 414.03 269.92 412.42 C 276.13 414.19 282.89 414.60 288.93 411.97 C 304.17 406.65 314.12 389.14 309.62 373.40 C 308.29 370.02 307.95 365.87 304.88 363.52 M 579.78 394.05 C 595.60 406.70 611.98 418.64 628.08 430.92 C 629.55 431.94 631.02 433.34 632.97 433.25 C 637.93 433.42 642.90 432.91 647.80 432.10 C 632.23 419.64 616.12 407.85 600.36 395.62 C 598.73 394.49 597.13 392.81 594.99 393.09 C 589.92 393.43 584.84 393.67 579.78 394.05 M 570.88 397.68 C 572.75 399.30 574.67 400.88 576.67 402.35 C 592.45 414.17 608.05 426.22 623.86 437.99 C 624.94 436.93 626.01 435.86 627.10 434.81 C 624.53 432.35 621.54 430.41 618.72 428.26 C 603.73 416.95 588.94 405.37 573.70 394.39 C 572.74 395.47 571.79 396.55 570.88 397.68 M 239.82 396.71 C 243.00 396.99 246.21 396.87 249.38 396.44 C 246.30 395.36 242.85 395.60 239.82 396.71 M 570.52 402.84 C 570.10 426.90 570.39 450.96 569.47 475.01 C 586.79 488.02 604.44 500.60 622.14 513.07 C 621.98 502.69 623.22 492.37 623.00 482.00 C 622.87 468.71 623.59 455.42 623.16 442.12 C 607.65 429.79 591.57 418.21 575.94 406.03 C 574.28 404.73 572.42 403.72 570.52 402.84 M 631.13 437.22 C 627.85 437.47 626.77 441.16 626.81 443.94 C 626.17 466.89 626.79 489.87 625.76 512.79 C 626.27 512.29 627.30 511.28 627.81 510.78 C 635.91 495.96 642.37 480.25 646.99 464.00 C 649.64 454.74 652.03 445.29 652.38 435.62 C 645.30 436.14 638.16 436.13 631.13 437.22 M 234.99 451.70 C 234.90 454.29 235.12 456.88 235.76 459.39 C 238.51 459.24 241.25 459.07 244.00 458.89 C 241.10 456.36 238.22 453.80 234.99 451.70 M 235.91 462.85 C 235.93 463.74 235.97 465.52 235.99 466.40 C 240.01 466.42 244.03 466.14 248.02 465.67 C 247.95 464.56 247.87 463.45 247.79 462.35 C 243.82 462.15 239.85 462.42 235.91 462.85 M 236.73 469.90 C 238.23 485.93 242.90 501.44 247.87 516.68 C 248.20 507.46 247.91 498.22 247.99 489.00 C 247.83 482.40 248.61 475.81 248.08 469.22 C 244.29 469.43 240.51 469.66 236.73 469.90 M 363.00 578.04 C 362.90 580.02 362.07 582.57 364.24 583.80 C 368.47 588.19 375.83 588.06 380.55 584.54 C 384.56 581.72 388.81 579.22 392.60 576.09 C 382.71 576.32 372.83 576.99 363.00 578.04 M 411.54 592.84 C 411.61 594.89 413.27 596.10 414.74 597.27 C 414.76 595.82 414.78 594.37 414.80 592.94 C 413.99 592.91 412.36 592.86 411.54 592.84 M 403.73 598.63 C 393.38 600.34 382.83 599.89 372.43 601.26 C 386.46 611.82 400.07 623.01 414.51 633.00 C 414.54 628.20 417.17 623.87 416.84 619.05 C 416.69 613.55 417.34 607.81 415.47 602.54 C 413.30 600.21 410.62 598.45 407.97 596.74 C 406.56 597.38 405.18 598.11 403.73 598.63 M 448.12 635.79 C 449.80 635.50 451.48 635.21 453.16 634.89 C 451.74 633.68 450.28 632.52 448.79 631.42 C 448.54 632.86 448.31 634.32 448.12 635.79 Z" />
<path fill="#030303" opacity="1.00" d=" M 486.37 337.51 C 493.39 335.64 501.09 336.20 507.67 339.35 C 516.74 343.73 523.31 352.89 524.51 362.90 C 526.58 377.52 518.33 392.56 505.35 399.33 C 496.61 404.07 485.63 404.67 476.58 400.44 C 467.13 396.11 460.42 386.33 459.63 376.00 C 457.57 358.91 469.77 341.70 486.37 337.51 M 517.15 351.95 C 518.12 357.36 519.54 362.89 518.33 368.40 C 515.91 386.23 498.06 401.02 479.92 398.41 C 484.44 399.82 489.25 400.53 493.97 399.81 C 505.78 398.07 515.96 389.05 519.85 377.87 C 522.33 369.36 522.24 359.53 517.15 351.95 Z" />
<path fill="#030303" opacity="1.00" d=" M 616.48 975.70 C 622.72 975.92 630.25 972.80 635.46 977.52 C 639.36 980.88 638.72 986.45 638.64 991.06 C 637.61 1005.69 638.01 1020.36 637.77 1035.01 C 637.58 1038.45 638.33 1042.28 636.32 1045.35 C 634.41 1048.64 630.93 1051.02 627.06 1051.11 C 581.71 1054.22 536.34 1057.09 490.97 1060.05 C 487.30 1060.38 483.67 1058.24 481.87 1055.09 C 479.78 1049.25 481.26 1043.00 481.30 1036.99 C 481.34 1023.99 481.50 1010.99 481.55 998.00 C 481.54 993.90 482.33 989.38 485.56 986.55 C 487.95 984.33 491.34 983.93 494.45 983.65 C 535.13 981.08 575.80 978.39 616.48 975.70 M 609.78 983.01 C 610.99 989.01 610.77 995.20 610.22 1001.26 C 609.31 1002.71 607.76 1003.83 605.99 1003.79 C 601.39 1004.10 596.77 1004.15 592.18 1004.55 C 592.16 1007.39 590.80 1011.37 594.01 1013.01 C 603.38 1019.68 612.27 1027.03 621.84 1033.42 C 622.20 1016.29 622.41 999.15 622.27 982.03 C 618.09 982.07 613.91 982.30 609.78 983.01 M 629.33 983.91 C 629.32 1000.89 627.92 1017.87 628.64 1034.85 C 629.28 1035.27 630.54 1036.11 631.17 1036.54 C 631.52 1019.36 632.37 1002.19 632.26 985.01 C 631.28 984.63 630.30 984.26 629.33 983.91 M 565.74 1006.36 C 551.49 1007.40 537.22 1008.05 522.99 1009.16 C 510.94 1009.65 498.94 1011.08 486.88 1011.22 C 486.82 1013.60 486.81 1015.98 486.82 1018.37 C 520.80 1016.36 554.75 1013.84 588.73 1011.86 C 588.74 1009.58 588.76 1007.30 588.79 1005.03 C 581.08 1005.03 573.42 1005.90 565.74 1006.36 M 561.04 1016.79 C 551.34 1017.10 541.73 1018.59 532.03 1018.77 C 517.03 1019.34 502.10 1020.92 487.10 1021.57 C 486.32 1029.43 486.69 1037.37 486.66 1045.28 C 511.47 1044.00 536.21 1041.88 561.02 1040.57 C 569.34 1040.80 577.64 1040.05 585.93 1039.49 C 596.34 1037.66 606.94 1037.64 617.46 1036.88 C 609.20 1029.95 600.30 1023.83 591.74 1017.30 C 589.33 1015.15 586.01 1015.01 582.98 1015.40 C 575.70 1016.34 568.34 1016.15 561.04 1016.79 M 624.63 1043.19 C 625.74 1043.76 626.86 1044.35 627.98 1044.95 C 629.30 1043.74 630.52 1042.44 631.66 1041.07 C 630.51 1040.29 629.36 1039.55 628.21 1038.81 C 627.03 1040.28 625.83 1041.73 624.63 1043.19 M 510.76 1050.45 C 503.42 1051.05 496.00 1050.93 488.72 1052.15 C 490.57 1054.49 493.67 1053.71 496.25 1053.63 C 537.15 1050.89 578.05 1048.17 618.97 1045.63 C 620.29 1045.65 621.45 1045.01 622.40 1044.13 C 619.97 1043.64 617.50 1043.38 615.03 1043.53 C 580.28 1045.91 545.51 1048.10 510.76 1050.45 Z" />
<path fill="#030303" opacity="1.00" d=" M 362.43 992.38 C 367.02 991.94 371.48 995.49 372.18 1000.00 C 372.65 1019.35 371.67 1038.69 371.30 1058.03 C 371.67 1064.12 365.69 1068.93 359.87 1068.74 C 315.24 1071.69 270.61 1074.79 225.97 1077.41 C 220.69 1078.48 214.71 1074.72 214.78 1069.04 C 214.62 1049.61 214.74 1030.17 215.68 1010.77 C 215.94 1005.07 221.56 1001.15 226.95 1001.12 C 272.11 998.23 317.26 995.05 362.43 992.38 M 343.76 1000.14 C 344.43 1006.69 344.42 1013.30 343.78 1019.86 C 338.26 1022.51 331.91 1021.31 326.01 1022.15 C 325.85 1024.67 324.58 1028.07 327.24 1029.78 C 336.64 1036.87 346.04 1043.98 355.60 1050.85 C 355.00 1033.82 356.93 1016.82 356.17 999.79 C 352.03 999.69 347.89 999.93 343.76 1000.14 M 363.08 1000.86 C 362.94 1010.57 362.60 1020.28 362.75 1030.01 C 362.93 1037.29 361.82 1044.53 362.07 1051.81 C 363.01 1052.56 363.95 1053.33 364.89 1054.11 C 365.49 1036.89 366.01 1019.65 365.64 1002.42 C 364.79 1001.88 363.93 1001.36 363.08 1000.86 M 264.92 1026.14 C 250.28 1026.91 235.67 1028.47 221.02 1028.67 C 220.85 1030.92 220.65 1033.19 220.48 1035.47 C 225.99 1035.41 231.49 1035.11 236.99 1034.74 C 265.38 1032.75 293.79 1031.10 322.18 1029.08 C 322.22 1026.97 322.23 1024.87 322.24 1022.78 C 303.09 1023.03 284.04 1025.29 264.92 1026.14 M 257.00 1036.77 C 244.85 1037.85 232.62 1037.98 220.52 1039.51 C 220.35 1047.10 220.44 1054.69 220.20 1062.29 C 230.20 1063.03 240.05 1060.27 250.05 1060.82 C 276.68 1058.88 303.36 1057.43 329.96 1055.31 C 336.80 1055.11 343.67 1054.93 350.45 1053.96 C 348.04 1051.51 345.19 1049.58 342.43 1047.57 C 335.54 1042.71 329.20 1037.00 321.92 1032.74 C 300.28 1033.66 278.65 1035.63 257.00 1036.77 M 362.21 1056.13 C 361.02 1057.59 359.87 1059.08 358.79 1060.64 C 359.41 1061.07 360.66 1061.93 361.28 1062.36 C 362.84 1061.33 364.16 1060.01 364.90 1058.27 C 364.00 1057.54 363.10 1056.83 362.21 1056.13 M 235.45 1068.60 C 231.17 1068.91 226.48 1068.13 222.68 1070.60 C 227.43 1071.33 232.22 1070.73 236.97 1070.45 C 263.36 1068.77 289.74 1066.98 316.13 1065.29 C 329.49 1064.23 342.91 1063.90 356.21 1062.35 C 353.98 1061.18 351.48 1060.75 348.99 1061.07 C 311.15 1063.65 273.29 1065.98 235.45 1068.60 Z" />
<path fill="#030303" opacity="1.00" d=" M 440.31 1150.22 C 453.30 1148.62 466.58 1158.84 467.85 1171.95 C 468.42 1183.29 467.85 1194.65 467.84 1206.00 C 467.93 1210.95 467.65 1216.03 465.70 1220.66 C 461.84 1230.92 452.21 1238.96 441.20 1240.11 C 432.44 1240.87 423.64 1241.25 414.87 1241.87 C 408.38 1242.66 401.56 1243.09 395.34 1240.70 C 387.07 1237.56 381.17 1229.59 379.69 1220.99 C 379.21 1216.01 379.51 1211.00 379.52 1206.01 C 379.71 1197.30 379.32 1188.57 380.25 1179.90 C 381.08 1164.85 394.90 1152.21 409.90 1152.17 C 420.04 1151.61 430.17 1150.87 440.31 1150.22 M 425.48 1160.69 C 417.81 1161.78 409.74 1160.50 402.38 1163.36 C 394.55 1166.50 389.65 1174.71 389.30 1182.96 C 388.97 1192.30 389.10 1201.66 388.92 1211.00 C 388.87 1215.22 388.54 1219.67 390.42 1223.60 C 392.90 1229.27 398.64 1233.66 404.99 1233.48 C 416.37 1233.56 427.70 1232.22 439.06 1231.67 C 446.31 1231.38 453.08 1226.94 456.67 1220.70 C 458.83 1216.51 459.54 1211.72 459.49 1207.05 C 459.50 1198.03 459.58 1189.01 459.71 1179.99 C 459.74 1176.05 459.60 1171.89 457.63 1168.37 C 454.32 1162.68 447.64 1159.04 441.05 1159.65 C 435.87 1160.14 430.66 1160.24 425.48 1160.69 Z" />
</g>
</svg>
