<svg xmlns="http://www.w3.org/2000/svg" viewBox="0 0 62 82.5" x="0px" y="0px"><path fill="#000000" fill-rule="evenodd" d="M471.010066,227 L475,227 C475.552285,227 476,227.447715 476,228 C476,228.552285 475.552285,229 475,229 L470.620869,229 C470.376204,230.152199 470.099938,231.283452 469.792839,232.390449 C469.879867,232.503545 469.943624,232.636537 469.976187,232.78307 L471.976187,241.78307 C472.114968,242.407583 471.639748,243 471,243 L429,243 C428.360252,243 427.885032,242.407583 428.023813,241.78307 L430.023813,232.78307 C430.056376,232.636537 430.120133,232.503545 430.207161,232.390449 C428.762338,227.182308 428,221.437268 428,215.5 C428,210.010184 428.651596,204.68267 429.894383,199.787497 C428.559453,199.118061 427.389526,198.461534 426.4453,197.83205 C425.300687,197.068975 424.246954,195.911935 423.270761,194.465723 C422.666102,193.569932 422.126965,192.615707 421.658021,191.661924 C421.493917,191.328153 421.350008,191.017643 421.227114,190.737884 C421.152113,190.567151 421.099957,190.442475 421.071523,190.371391 C420.808778,189.714526 421.292535,189 422,189 L434.00048,189 C438.087611,181.428606 443.793322,177 450,177 C456.206678,177 461.912389,181.428606 465.99952,189 L471,189 C477.724423,189 483,196.673567 483,206 C483,215.052589 478.02968,222.54795 471.588487,222.980305 C471.436675,224.341041 471.243508,225.682494 471.010066,227 Z M463.707801,189 C459.996748,182.6076 455.113319,179 450,179 C444.886681,179 440.003252,182.6076 436.292199,189 L463.707801,189 Z M424.928458,193.346777 C425.771601,194.595878 426.660251,195.57165 427.5547,196.16795 C428.580025,196.8515 429.935511,197.592026 431.50394,198.350761 C431.936511,198.560019 432.159085,199.047363 432.033977,199.511317 C430.701981,204.450932 430,209.884567 430,215.5 C430,221.314147 430.752741,226.930751 432.174598,232.000001 L467.825405,232.000005 C469.247259,226.930752 470,221.314147 470,215.5 C470,206.315147 468.115588,197.669377 464.784759,191 L423.562606,191 C423.967557,191.803276 424.425555,192.601735 424.928458,193.346777 Z M430.246616,241 L469.753384,241 L468.197828,234 L431.802172,234 L430.246616,241 Z M472,215.5 C472,217.337253 471.927077,219.158226 471.782806,220.953641 C476.858656,220.350829 481,213.941979 481,206 C481,197.653321 476.425842,191 471,191 L467.00679,191 C470.210897,197.823549 472,206.417601 472,215.5 Z M458.5,226 C455.164817,226 453,219.505548 453,211.5 C453,203.494452 455.164817,197 458.5,197 C461.835183,197 464,203.494452 464,211.5 C464,219.505548 461.835183,226 458.5,226 Z M458.5,224 C460.13538,224 462,218.406141 462,211.5 C462,204.593859 460.13538,199 458.5,199 C456.86462,199 455,204.593859 455,211.5 C455,218.406141 456.86462,224 458.5,224 Z" transform="translate(-421 -177)"/></svg>
