<svg xmlns="http://www.w3.org/2000/svg" xmlns:xlink="http://www.w3.org/1999/xlink" version="1.1" x="0px" y="0px" viewBox="0 0 164 205" enable-background="new 0 0 164 164" xml:space="preserve"><path fill-rule="evenodd" clip-rule="evenodd" d="M18.242,72.745h127.197c6.323,0,11.497,5.174,11.497,11.498v68.262  c0,6.322-5.174,11.496-11.497,11.496H18.242c-6.323,0-11.497-5.174-11.497-11.496V84.242C6.745,77.918,11.918,72.745,18.242,72.745  L18.242,72.745z M94.91,109.224c0-15.584-26.141-15.341-26.141,0c0,5.352,2.212,7.674,5.594,9.844  c-0.665,3.458-0.127,12.284-0.127,16.298c0,9.274,14.021,9.271,14.021,0c0-4.638,0.408-11.272-0.034-15.667  C92.214,117.644,94.91,114.787,94.91,109.224L94.91,109.224z M109.17,64.809c-0.001-51.89-54.661-51.551-54.66,0.907  c-9.109,0-18.219,0-27.328,0c0-86.884,109.316-87.201,109.316-0.907C127.39,64.809,136.498,64.809,109.17,64.809z"/><text x="0" y="179" fill="#000000" font-size="5px" font-weight="bold" font-family="'Helvetica Neue', Helvetica, Arial-Unicode, Arial, Sans-serif">Created by Aleksandr Vector</text><text x="0" y="184" fill="#000000" font-size="5px" font-weight="bold" font-family="'Helvetica Neue', Helvetica, Arial-Unicode, Arial, Sans-serif">from the Noun Project</text></svg>