<svg xmlns="http://www.w3.org/2000/svg" xmlns:xlink="http://www.w3.org/1999/xlink" version="1.2" baseProfile="tiny" x="0px" y="0px" viewBox="0 0 100 125" xml:space="preserve"><polygon points="53.838,37.5 40.955,37.5 35.264,48.882 39.736,51.118 44.045,42.5 48.455,42.5 40.955,57.5 32.5,57.5 32.5,62.5   44.045,62.5 47.5,55.59 55.264,71.118 59.736,68.882 50.295,50 52.809,44.971 56.162,50 67.5,50 67.5,45 58.838,45 "/><path d="M52.5,32.5c0,2.757,2.243,5,5,5s5-2.243,5-5s-2.243-5-5-5S52.5,29.743,52.5,32.5z"/><path d="M23.484,23.484l-5.303-5.304C9.681,26.68,5,37.98,5,50s4.681,23.32,13.181,31.82l5.303-5.304  C16.401,69.434,12.5,60.017,12.5,50S16.401,30.566,23.484,23.484z"/><path d="M76.516,23.484C83.599,30.566,87.5,39.983,87.5,50s-3.901,19.434-10.984,26.516l5.303,5.304C90.319,73.32,95,62.02,95,50  s-4.681-23.32-13.181-31.82L76.516,23.484z"/><path d="M27.019,27.019c-12.671,12.672-12.671,33.29,0,45.962l3.535-3.535c-10.722-10.723-10.722-28.169,0-38.892L27.019,27.019z"/><path d="M72.981,27.019l-3.535,3.535c10.722,10.723,10.722,28.169,0,38.892l3.535,3.535C85.652,60.309,85.652,39.691,72.981,27.019z  "/></svg>
