<svg xmlns:dc="http://purl.org/dc/elements/1.1/" xmlns:cc="http://creativecommons.org/ns#" xmlns:rdf="http://www.w3.org/1999/02/22-rdf-syntax-ns#" xmlns:svg="http://www.w3.org/2000/svg" xmlns="http://www.w3.org/2000/svg" xmlns:sodipodi="http://sodipodi.sourceforge.net/DTD/sodipodi-0.dtd" xmlns:inkscape="http://www.inkscape.org/namespaces/inkscape" viewBox="0 0 25.399999 31.75000125" version="1.1" x="0px" y="0px"><g transform="translate(0,-271.59998)"><path style="color:#000000;font-style:normal;font-variant:normal;font-weight:normal;font-stretch:normal;font-size:medium;line-height:normal;font-family:sans-serif;font-variant-ligatures:normal;font-variant-position:normal;font-variant-caps:normal;font-variant-numeric:normal;font-variant-alternates:normal;font-feature-settings:normal;text-indent:0;text-align:start;text-decoration:none;text-decoration-line:none;text-decoration-style:solid;text-decoration-color:#000000;letter-spacing:normal;word-spacing:normal;text-transform:none;writing-mode:lr-tb;direction:ltr;text-orientation:mixed;dominant-baseline:auto;baseline-shift:baseline;text-anchor:start;white-space:normal;shape-padding:0;clip-rule:nonzero;display:inline;overflow:visible;visibility:visible;opacity:1;isolation:auto;mix-blend-mode:normal;color-interpolation:sRGB;color-interpolation-filters:linearRGB;solid-color:#000000;solid-opacity:1;vector-effect:none;fill:#000000;fill-opacity:1;fill-rule:nonzero;stroke:none;stroke-width:3.99999976;stroke-linecap:round;stroke-linejoin:round;stroke-miterlimit:4;stroke-dasharray:none;stroke-dashoffset:0;stroke-opacity:1;paint-order:stroke fill markers;color-rendering:auto;image-rendering:auto;shape-rendering:auto;text-rendering:auto;enable-background:accumulate" d="m 87.941406,18.003906 c -0.195705,0.0035 -0.389832,0.03578 -0.576172,0.0957 L 51.371094,30.101562 C 50.5519,30.372056 49.998435,31.137303 49.998047,32 v 30 h -9.996094 c -7.708296,0 -14.003906,6.293682 -14.003906,14.001953 0,7.708309 6.29561,13.996094 14.003906,13.996094 7.708301,0 13.996094,-6.287785 13.996094,-13.996094 0,-10.186198 0,-20.372396 0,-30.558594 l 32,-10.667968 V 53.998047 H 75.996094 C 68.287796,53.998047 62,60.291691 62,68 62,75.708271 68.287796,81.996094 75.996094,81.996094 83.704391,81.996094 90,75.708271 90,68 c 0,-15.998698 0,-31.997396 0,-47.996094 3.68e-4,-1.127813 -0.931261,-2.032926 -2.058594,-2 z m -1.943359,4.775391 v 7.777344 l -32,10.671875 V 33.439453 Z M 75.996094,57.998047 H 85.998047 V 68 c 0,5.546532 -4.455417,10.003906 -10.001953,10.003906 -5.546536,0 -9.994141,-4.457374 -9.994141,-10.003906 0,-5.546532 4.447605,-10.001953 9.994141,-10.001953 z M 40.001953,66 h 9.996094 v 10.001953 c 0,5.54657 -4.449554,9.996094 -9.996094,9.996094 C 34.455417,85.998047 30,81.548523 30,76.001953 30,70.455421 34.455417,66 40.001953,66 Z" transform="matrix(0.26458333,0,0,0.26458333,0,271.59998)"/><path style="color:#000000;font-style:normal;font-variant:normal;font-weight:normal;font-stretch:normal;font-size:medium;line-height:normal;font-family:sans-serif;font-variant-ligatures:normal;font-variant-position:normal;font-variant-caps:normal;font-variant-numeric:normal;font-variant-alternates:normal;font-feature-settings:normal;text-indent:0;text-align:start;text-decoration:none;text-decoration-line:none;text-decoration-style:solid;text-decoration-color:#000000;letter-spacing:normal;word-spacing:normal;text-transform:none;writing-mode:lr-tb;direction:ltr;text-orientation:mixed;dominant-baseline:auto;baseline-shift:baseline;text-anchor:start;white-space:normal;shape-padding:0;clip-rule:nonzero;display:inline;overflow:visible;visibility:visible;opacity:1;isolation:auto;mix-blend-mode:normal;color-interpolation:sRGB;color-interpolation-filters:linearRGB;solid-color:#000000;solid-opacity:1;vector-effect:none;fill:#000000;fill-opacity:1;fill-rule:nonzero;stroke:none;stroke-width:3.99999976;stroke-linecap:round;stroke-linejoin:round;stroke-miterlimit:4;stroke-dasharray:none;stroke-dashoffset:0;stroke-opacity:1;paint-order:stroke fill markers;color-rendering:auto;image-rendering:auto;shape-rendering:auto;text-rendering:auto;enable-background:accumulate" d="m 41.943359,6 c -0.213907,0.00528 -0.425582,0.044842 -0.626953,0.1171875 L 19.318359,14.119141 c -0.79372,0.285943 -1.322688,1.039156 -1.322265,1.882812 v 17.001953 h -3.992188 c -4.3945883,0 -8.0019529,3.599533 -8.0019529,7.994141 0,4.39457 3.6073646,8.001953 8.0019529,8.001953 4.394589,0 7.994141,-3.607383 7.994141,-8.001953 0,-4.866536 0,-9.733073 0,-14.599609 l 18.003906,-6.542969 v 8.142578 h -4 C 31.607365,27.998047 28,31.60543 28,36 c 0,4.39457 3.607365,8.001953 8.001953,8.001953 4.394591,0 8.001953,-3.607383 8.001953,-8.001953 0,-9.333333 0,-18.666667 0,-28 4.01e-4,-1.1286041 -0.932457,-2.0340507 -2.060547,-2 z m -1.941406,4.857422 v 4.738281 l -18.003906,6.548828 v -4.746093 z m -4,21.142578 h 4 v 4 c 0,2.232831 -1.767171,4.001953 -4,4.001953 C 33.769125,40.001953 32,38.232831 32,36 c 0,-2.232831 1.769125,-4 4.001953,-4 z m -21.998047,4.996094 h 3.992188 v 4.001953 c -1e-6,2.232794 -1.759359,4 -3.992188,4 -2.232828,0 -4.001953,-1.767206 -4.001953,-4 0,-2.232832 1.769125,-4.001953 4.001953,-4.001953 z" transform="matrix(0.26458333,0,0,0.26458333,0,271.59998)"/></g>
<text x="0" y="40.400001" fill="#000000" font-size="5px" font-weight="bold" font-family="'Helvetica Neue', Helvetica, Arial-Unicode, Arial, Sans-serif">Created by Gajah Mada Studio</text>
<text x="0" y="45.400001" fill="#000000" font-size="5px" font-weight="bold" font-family="'Helvetica Neue', Helvetica, Arial-Unicode, Arial, Sans-serif">from the Noun Project</text>
</svg>