<svg xmlns:dc="http://purl.org/dc/elements/1.1/" xmlns:cc="http://creativecommons.org/ns#" xmlns:rdf="http://www.w3.org/1999/02/22-rdf-syntax-ns#" xmlns:svg="http://www.w3.org/2000/svg" xmlns="http://www.w3.org/2000/svg" xmlns:sodipodi="http://sodipodi.sourceforge.net/DTD/sodipodi-0.dtd" xmlns:inkscape="http://www.inkscape.org/namespaces/inkscape" version="1.1" x="0px" y="0px" viewBox="0 0 100 125"><g transform="translate(0,-952.36218)"><path d="m 1.4999998,966.86217 c 0,23.58425 0,47.77533 0,68.00003 2,0 4,0 6,0 0,1 0,2 0,3 2.3611204,0 4.9250802,0 7.0000002,0 0,-1 0,-2 0,-3 l 71,0 c 0,1 0,2 0,3 2.56354,0 4.52052,0 7,0 0,-1 0,-2 0,-3 2,0 4,0 6,0 0,-23.942 0,-47.23245 0,-68.00003 -34.00673,0 -67.62997,0 -97.0000002,0 z m 4,4 89.0000002,0 0,60.00003 -89.0000002,0 z m 8.0000002,2 c -3.28941,0 -6.0000002,2.71059 -6.0000002,6 l 0,44.00003 c 0,3.2894 2.7105902,6 6.0000002,6 l 55,0 c 3.28941,0 6,-2.7106 6,-6 l 0,-44.00003 c 0,-3.28941 -2.71059,-6 -6,-6 z m 63,0 c 0,4.79513 0,8.58469 0,13 5.87493,0 10.65709,0 16,0 0,-4.79513 0,-8.58469 0,-13 -5.48543,0 -11.26031,0 -16,0 z m -63,4 55,0 c 1.14259,0 2,0.85741 2,2 l 0,44.00003 c 0,1.1426 -0.85741,2 -2,2 l -55,0 c -1.14261,0 -2,-0.8574 -2,-2 l 0,-44.00003 c 0,-1.14259 0.85739,-2 2,-2 z m 71,11 c -4.3946,0 -8.03125,3.6054 -8.03125,8 0,4.39463 3.63665,7.96873 8.03125,7.96873 4.39459,0 8,-3.5741 8,-7.96873 0,-4.3946 -3.60541,-8 -8,-8 z m -2,4.53125 0,6.90625 c -1.18926,-0.68217 -2,-1.94244 -2,-3.4375 0,-1.49507 0.81074,-2.77269 2,-3.46875 z m 4,0 c 1.18925,0.69606 1.96875,1.97368 1.96875,3.46875 0,1.49506 -0.7795,2.75533 -1.96875,3.4375 z m -8.1875,13.46878 c -0.98317,0.093 -1.81676,1.0124 -1.8125,2 l 0,3 c 1e-4,1.0471 0.95283,1.9999 2,2 l 3,0 c 1.04717,-10e-5 1.9999,-0.9529 2,-2 l 0,-3 c -1e-4,-1.0472 -0.95283,-1.9999 -2,-2 -1.05271,-10e-5 -2.15036,0 -3.1875,0 z m 9,0 c -0.98317,0.093 -1.81676,1.0124 -1.8125,2 l 0,3 c 1e-4,1.0471 0.95283,1.9999 2,2 l 3,0 c 1.04717,-10e-5 1.9999,-0.9529 2,-2 l 0,-3 c -1e-4,-1.0472 -0.95283,-1.9999 -2,-2 -1.05271,-10e-5 -2.15036,0 -3.1875,0 z m -9,8 c -0.98317,0.093 -1.81676,1.0125 -1.8125,2 l 0,3 c 1e-4,1.0472 0.95283,1.9999 2,2 l 3,0 c 1.04717,-10e-5 1.9999,-0.9528 2,-2 l 0,-3 c -1e-4,-1.0472 -0.95283,-1.9999 -2,-2 -1.05271,-10e-5 -2.15036,0 -3.1875,0 z m 9,0 c -0.98317,0.093 -1.81676,1.0125 -1.8125,2 l 0,3 c 1e-4,1.0472 0.95283,1.9999 2,2 l 3,0 c 1.04717,-10e-5 1.9999,-0.9528 2,-2 l 0,-3 c -1e-4,-1.0472 -0.95283,-1.9999 -2,-2 -1.05271,-10e-5 -2.15036,0 -3.1875,0 z m -71.8125,3 0,4 51,0 0,-4 z m 62.8125,5 c -0.98317,0.093 -1.81676,1.0125 -1.8125,2 l 0,3 c 1e-4,1.0472 0.95283,1.9999 2,2 l 3,0 c 1.04717,-10e-5 1.9999,-0.9528 2,-2 l 0,-3 c -1e-4,-1.0472 -0.95283,-1.9999 -2,-2 -1.05271,-10e-5 -2.15036,0 -3.1875,0 z m 9,0 c -0.98317,0.093 -1.81676,1.0125 -1.8125,2 l 0,3 c 1e-4,1.0472 0.95283,1.9999 2,2 l 3,0 c 1.04717,-10e-5 1.9999,-0.9528 2,-2 l 0,-3 c -1e-4,-1.0472 -0.95283,-1.9999 -2,-2 -1.05271,-10e-5 -2.15036,0 -3.1875,0 z" style="text-indent:0;text-transform:none;direction:ltr;block-progression:tb;baseline-shift:baseline;color:#000000;enable-background:accumulate;" fill="#000000" fill-opacity="1" stroke="none" marker="none" visibility="visible" display="inline" overflow="visible"/></g></svg>
