<svg xmlns="http://www.w3.org/2000/svg" viewBox="0 0 64 80" x="0px" y="0px"><g><path d="M59,44H54.117l1.877-16.89a1.011,1.011,0,0,0-.1-.557l-.865-1.73,1.962-15.7A.852.852,0,0,0,57,9a3,3,0,0,0-6-.068L49.029,24.705l-.924,1.848a1.009,1.009,0,0,0-.1.337L46.105,44H36V27a1,1,0,0,0-.1-.447L35,24.764V9a3,3,0,0,0-6,0V24.764l-.895,1.789A1,1,0,0,0,28,27V44H17.9l-1.9-17.11a1.009,1.009,0,0,0-.1-.337l-.924-1.848L13,8.932A3,3,0,0,0,7,9a.852.852,0,0,0,.008.124l1.962,15.7-.865,1.73a1.011,1.011,0,0,0-.1.557L9.883,44H5a3,3,0,0,0-3,3V58H62V47A3,3,0,0,0,59,44ZM52.992,9.124A.852.852,0,0,0,53,9a1,1,0,0,1,2-.052L53.117,24H51.133ZM49.974,27.288,50.618,26h2.764l.592,1.183L52.105,44H48.117ZM31,9a1,1,0,0,1,2,0V24H31ZM30,27.236,30.618,26h2.764L34,27.236V44H30ZM13.382,26l.644,1.288L15.883,44H11.9L10.026,27.183,10.618,26ZM9,8.948A1,1,0,0,1,11,9a.852.852,0,0,0,.008.124L12.867,24H10.883ZM51,56H13V51a1,1,0,0,1,1-1H50a1,1,0,0,1,1,1Zm9,0H53V51a3,3,0,0,0-3-3H14a3,3,0,0,0-3,3v5H4V47a1,1,0,0,1,1-1H59a1,1,0,0,1,1,1Z"/><rect x="15" y="52" width="4" height="2"/><rect x="21" y="52" width="4" height="2"/><rect x="27" y="52" width="4" height="2"/><rect x="33" y="52" width="4" height="2"/><rect x="39" y="52" width="4" height="2"/><rect x="45" y="52" width="4" height="2"/><path d="M57,48H54v2h2v4h2V49A1,1,0,0,0,57,48Z"/><rect x="6" y="48" width="2" height="2"/></g></svg>
