<svg xmlns="http://www.w3.org/2000/svg" xmlns:xlink="http://www.w3.org/1999/xlink" xml:space="preserve" 
style="shape-rendering:geometricPrecision;text-rendering:geometricPrecision;image-rendering:optimizeQuality;" viewBox="0 0 
3.5734 21.7515" x="0px" y="0px" fill-rule="evenodd" clip-rule="evenodd"><defs><style type="text/css">
   
    .fil1 {fill:black} .fil0 {fill:black;fill-rule:nonzero}
   
  </style></defs><g><path class="fil0" d="M1.7867 0.883c0.6693,0 1.2122,0.5429 1.2122,1.2122 0,0.6693 -0.5429,1.2122 -1.2122,1.2122 -0.6693,0 -1.2122,-0.5429 -1.2122,-1.2122 0,-0.6693 0.5429,-1.2122 1.2122,-1.2122zm0 0.0762c-0.6274,0 -1.136,0.5086 -1.136,1.136 0,0.6274 0.5086,1.136 1.136,1.136 0.6274,0 1.136,-0.5086 1.136,-1.136 0,-0.6274 -0.5086,-1.136 -1.136,-1.136z"/><path class="fil0" d="M1.7867 1.0815c0.5597,0 1.0137,0.454 1.0137,1.0137 0,0.5597 -0.454,1.0137 -1.0137,1.0137 -0.5594,0 -1.0137,-0.4543 -1.0137,-1.0137 0,-0.5597 0.454,-1.0137 1.0137,-1.0137zm0 0.0762c-0.5178,0 -0.9375,0.4197 -0.9375,0.9375 0,0.5179 0.4196,0.9375 0.9375,0.9375 0.5178,0 0.9375,-0.4197 0.9375,-0.9375 0,-0.5179 -0.4196,-0.9375 -0.9375,-0.9375z"/><path class="fil1" d="M1.3774 1.9134c0.1004,0 0.1818,0.0814 0.1818,0.1818 0,0.1004 -0.0814,0.1818 -0.1818,0.1818 -0.1004,0 -0.1818,-0.0814 -0.1818,-0.1818 0,-0.1004 0.0814,-0.1818 0.1818,-0.1818z"/><path class="fil1" d="M2.196 1.9134c0.1004,0 0.1818,0.0814 0.1818,0.1818 0,0.1004 -0.0814,0.1818 -0.1818,0.1818 -0.1004,0 -0.1818,-0.0814 -0.1818,-0.1818 0,-0.1004 0.0814,-0.1818 0.1818,-0.1818z"/><path class="fil0" d="M1.7867 4.4389c0.6693,0 1.2122,0.5429 1.2122,1.2122 0,0.6693 -0.5429,1.2122 -1.2122,1.2122 -0.6693,0 -1.2122,-0.5429 -1.2122,-1.2122 0,-0.6693 0.5429,-1.2122 1.2122,-1.2122zm0 0.0762c-0.6274,0 -1.136,0.5086 -1.136,1.136 0,0.6274 0.5086,1.136 1.136,1.136 0.6274,0 1.136,-0.5086 1.136,-1.136 0,-0.6274 -0.5086,-1.136 -1.136,-1.136z"/><path class="fil0" d="M1.7867 4.6374c0.5597,0 1.0137,0.454 1.0137,1.0137 0,0.5597 -0.454,1.0137 -1.0137,1.0137 -0.5594,0 -1.0137,-0.4543 -1.0137,-1.0137 0,-0.5597 0.454,-1.0137 1.0137,-1.0137zm0 0.0762c-0.5178,0 -0.9375,0.4197 -0.9375,0.9375 0,0.5179 0.4196,0.9375 0.9375,0.9375 0.5178,0 0.9375,-0.4197 0.9375,-0.9375 0,-0.5179 -0.4196,-0.9375 -0.9375,-0.9375z"/><path class="fil1" d="M1.3774 5.4693c0.1004,0 0.1818,0.0814 0.1818,0.1818 0,0.1004 -0.0814,0.1818 -0.1818,0.1818 -0.1004,0 -0.1818,-0.0814 -0.1818,-0.1818 0,-0.1004 0.0814,-0.1818 0.1818,-0.1818z"/><path class="fil1" d="M2.196 5.4693c0.1004,0 0.1818,0.0814 0.1818,0.1818 0,0.1004 -0.0814,0.1818 -0.1818,0.1818 -0.1004,0 -0.1818,-0.0814 -0.1818,-0.1818 0,-0.1004 0.0814,-0.1818 0.1818,-0.1818z"/><path class="fil0" d="M1.7867 7.9948c0.6693,0 1.2122,0.5429 1.2122,1.2122 0,0.6693 -0.5429,1.2122 -1.2122,1.2122 -0.6693,0 -1.2122,-0.5429 -1.2122,-1.2122 0,-0.6693 0.5429,-1.2122 1.2122,-1.2122zm0 0.0762c-0.6274,0 -1.136,0.5086 -1.136,1.136 0,0.6274 0.5086,1.136 1.136,1.136 0.6274,0 1.136,-0.5086 1.136,-1.136 0,-0.6274 -0.5086,-1.136 -1.136,-1.136z"/><path class="fil0" d="M1.7867 8.1933c0.5597,0 1.0137,0.454 1.0137,1.0137 0,0.5597 -0.454,1.0137 -1.0137,1.0137 -0.5594,0 -1.0137,-0.4543 -1.0137,-1.0137 0,-0.5597 0.454,-1.0137 1.0137,-1.0137zm0 0.0762c-0.5178,0 -0.9375,0.4197 -0.9375,0.9375 0,0.5179 0.4196,0.9375 0.9375,0.9375 0.5178,0 0.9375,-0.4197 0.9375,-0.9375 0,-0.5179 -0.4196,-0.9375 -0.9375,-0.9375z"/><path class="fil1" d="M1.3774 9.0252c0.1004,0 0.1818,0.0814 0.1818,0.1818 0,0.1004 -0.0814,0.1818 -0.1818,0.1818 -0.1004,0 -0.1818,-0.0814 -0.1818,-0.1818 0,-0.1004 0.0814,-0.1818 0.1818,-0.1818z"/><path class="fil1" d="M2.196 9.0252c0.1004,0 0.1818,0.0814 0.1818,0.1818 0,0.1004 -0.0814,0.1818 -0.1818,0.1818 -0.1004,0 -0.1818,-0.0814 -0.1818,-0.1818 0,-0.1004 0.0814,-0.1818 0.1818,-0.1818z"/><path class="fil0" d="M0.9185 0.3126l0 -0.3126 1.7364 0 0 0.3126 0.9185 0 0 10.7172 -1.5874 0 0 6.3714 -0.1993 0 0 -6.3714 -1.7867 0 0 -10.7172 0.9185 0zm2.4549 0.2l-3.1734 0 0 10.3172 3.1734 0 0 -10.3172z"/></g></svg>
