<svg xmlns="http://www.w3.org/2000/svg" xmlns:xlink="http://www.w3.org/1999/xlink" version="1.1" x="0px" y="0px" viewBox="0 0 100 125" enable-background="new 0 0 100 100" xml:space="preserve"><path d="M86.089,31.16h-9.446V6.926H23.357V31.16h-9.446C8.997,31.16,5,35.157,5,40.07v27.501c0,4.913,3.997,8.911,8.911,8.911  h9.446v16.591h53.285V76.483h9.446c4.914,0,8.911-3.997,8.911-8.911V40.07C95,35.157,91.003,31.16,86.089,31.16z M25.526,9.095  h48.948V31.16H25.526V9.095z M74.474,90.905H25.526V58.806h48.948V90.905z M91.747,67.572c0,3.12-2.538,5.658-5.658,5.658h-9.446  V55.583H23.357V73.23h-9.446c-3.12,0-5.658-2.538-5.658-5.658V40.07c0-3.12,2.538-5.658,5.658-5.658h72.177  c3.12,0,5.658,2.538,5.658,5.658V67.572z"/><circle cx="84.077" cy="42.76" r="2.842"/><circle cx="84.077" cy="50.161" r="2.842"/></svg>
