<svg xmlns="http://www.w3.org/2000/svg" viewBox="0 0 60 75" x="0px" y="0px"><title>Office Equipment -083 - Network Switch</title><path d="M1,22.5H59a0,0,0,0,1,0,0v22a2,2,0,0,1-2,2H3a2,2,0,0,1-2-2v-22A0,0,0,0,1,1,22.5Z" fill="none" stroke="#000" stroke-linecap="round" stroke-linejoin="round" stroke-width="2"/><path d="M59,22.5H1l7.40331-8.32873A2,2,0,0,1,9.89813,13.5H50.10187a2,2,0,0,1,1.49482.67127Z" fill="none" stroke="#000" stroke-linecap="round" stroke-linejoin="round" stroke-width="2"/><polygon points="9 30.5 9 32.5 12 32.5 12 30.5 15 30.5 15 38.5 6 38.5 6 30.5 9 30.5" fill="none" stroke="#000" stroke-linecap="round" stroke-linejoin="round" stroke-width="2"/><polygon points="22 30.5 22 32.5 25 32.5 25 30.5 28 30.5 28 38.5 19 38.5 19 30.5 22 30.5" fill="none" stroke="#000" stroke-linecap="round" stroke-linejoin="round" stroke-width="2"/><polygon points="35 30.5 35 32.5 38 32.5 38 30.5 41 30.5 41 38.5 32 38.5 32 30.5 35 30.5" fill="none" stroke="#000" stroke-linecap="round" stroke-linejoin="round" stroke-width="2"/><polygon points="48 30.5 48 32.5 51 32.5 51 30.5 54 30.5 54 38.5 45 38.5 45 30.5 48 30.5" fill="none" stroke="#000" stroke-linecap="round" stroke-linejoin="round" stroke-width="2"/><line x1="1" y1="42.5" x2="59" y2="42.5" fill="none" stroke="#000" stroke-linecap="round" stroke-linejoin="round" stroke-width="2"/><line x1="1" y1="26.5" x2="59" y2="26.5" fill="none" stroke="#000" stroke-linecap="round" stroke-linejoin="round" stroke-width="2"/></svg>
