<svg xmlns="http://www.w3.org/2000/svg" xmlns:xlink="http://www.w3.org/1999/xlink" version="1.1" x="0px" y="0px" viewBox="0 0 90 112.5" enable-background="new 0 0 90 90" xml:space="preserve"><g><path fill="#000000" d="M29.983,34v-1.026c0-0.837-0.679-1.516-1.517-1.516s-1.517,0.679-1.517,1.516V34   c-1.766,0.625-3.033,2.305-3.033,4.285v4.799v38.794v-2.787c0,1.98,1.267,3.659,3.033,4.284v1.026c0,0.839,0.679,1.517,1.517,1.517   s1.517-0.678,1.517-1.517v-1.026c1.766-0.625,3.033-2.304,3.033-4.284v2.787V43.084v-4.799C33.016,36.305,31.749,34.625,29.983,34z   "/><path fill="#000000" d="M42.875,34v-1.026c0-0.837-0.679-1.516-1.517-1.516s-1.517,0.679-1.517,1.516V34   c-1.766,0.625-3.033,2.305-3.033,4.285v4.799v38.794v-2.787c0,1.98,1.267,3.659,3.033,4.284v1.026c0,0.839,0.679,1.517,1.517,1.517   s1.517-0.678,1.517-1.517v-1.026c1.766-0.625,3.033-2.304,3.033-4.284v2.787V43.084v-4.799C45.908,36.305,44.641,34.625,42.875,34z   "/><path fill="#000000" d="M55.773,34v-1.026c0-0.837-0.678-1.516-1.517-1.516c-0.837,0-1.518,0.679-1.518,1.516V34   c-1.766,0.625-3.035,2.305-3.035,4.285v4.799v38.794v-2.787c0,1.98,1.27,3.659,3.035,4.284v1.026c0,0.839,0.681,1.517,1.518,1.517   c0.839,0,1.517-0.678,1.517-1.517v-1.026c1.767-0.625,3.033-2.304,3.033-4.284v2.787V43.084v-4.799   C58.807,36.305,57.54,34.625,55.773,34z"/><path fill="#000000" d="M68.668,34v-1.026c0-0.837-0.678-1.516-1.517-1.516c-0.836,0-1.516,0.679-1.516,1.516V34   c-1.766,0.625-3.034,2.305-3.034,4.285v4.799v38.794v-2.787c0,1.98,1.269,3.659,3.034,4.284v1.026c0,0.839,0.68,1.517,1.516,1.517   c0.839,0,1.517-0.678,1.517-1.517v-1.026c1.767-0.625,3.033-2.304,3.033-4.284v2.787V43.084v-4.799   C71.701,36.305,70.435,34.625,68.668,34z"/></g><circle fill="#000000" cx="18.261" cy="39.638" r="3.507"/><path fill="#000000" d="M35.113,30.717c-0.23,0-0.461-0.08-0.65-0.242c-0.08-0.068-1.948-1.706-2.038-4.138  c-0.058-1.562,0.609-3.05,1.984-4.424c0.956-0.956,1.427-1.947,1.4-2.946c-0.043-1.614-1.349-2.833-1.362-2.844  c-0.411-0.37-0.444-1.001-0.075-1.412c0.37-0.41,1.002-0.445,1.412-0.075c0.08,0.072,1.958,1.789,2.024,4.278  c0.042,1.57-0.626,3.055-1.986,4.414c-0.96,0.96-1.431,1.943-1.4,2.921c0.05,1.555,1.336,2.704,1.35,2.715  c0.413,0.364,0.457,0.994,0.096,1.409C35.67,30.6,35.392,30.717,35.113,30.717z"/><path fill="#000000" d="M60.899,30.717c-0.23,0-0.462-0.08-0.649-0.242c-0.08-0.068-1.948-1.706-2.039-4.138  c-0.058-1.562,0.61-3.05,1.984-4.424c0.956-0.956,1.427-1.947,1.4-2.946c-0.043-1.614-1.349-2.833-1.362-2.844  c-0.41-0.37-0.444-1.001-0.074-1.412c0.37-0.411,1.002-0.443,1.412-0.075c0.08,0.072,1.958,1.789,2.023,4.278  c0.042,1.57-0.626,3.055-1.985,4.414c-0.96,0.96-1.432,1.943-1.4,2.921c0.05,1.555,1.337,2.704,1.35,2.715  c0.413,0.364,0.457,0.994,0.096,1.409C61.456,30.6,61.179,30.717,60.899,30.717z"/><path fill="#000000" d="M47.601,27.715c-0.23,0-0.462-0.08-0.649-0.242c-0.08-0.068-1.948-1.706-2.039-4.138  c-0.058-1.562,0.609-3.05,1.984-4.424c0.956-0.956,1.427-1.947,1.4-2.946c-0.043-1.614-1.349-2.833-1.362-2.844  c-0.41-0.37-0.444-1.001-0.074-1.412c0.369-0.41,1.001-0.444,1.412-0.075c0.08,0.072,1.958,1.789,2.023,4.278  c0.042,1.57-0.626,3.055-1.985,4.414c-0.96,0.96-1.432,1.943-1.4,2.921c0.05,1.555,1.337,2.704,1.35,2.715  c0.413,0.364,0.457,0.994,0.096,1.409C48.157,27.598,47.88,27.715,47.601,27.715z"/></svg>
