<svg xmlns:dc="http://purl.org/dc/elements/1.1/" xmlns:cc="http://creativecommons.org/ns#" xmlns:rdf="http://www.w3.org/1999/02/22-rdf-syntax-ns#" xmlns:svg="http://www.w3.org/2000/svg" xmlns="http://www.w3.org/2000/svg" xmlns:sodipodi="http://sodipodi.sourceforge.net/DTD/sodipodi-0.dtd" xmlns:inkscape="http://www.inkscape.org/namespaces/inkscape" version="1.1" x="0px" y="0px" viewBox="0 0 32 40" enable-background="new 0 0 32 32" xml:space="preserve"><path style="" d="m 21.5,14.5 c -0.166,-0.221 -0.479,-0.266 -0.7,-0.1 -0.221,0.165 -0.266,0.479 -0.1,0.699 0.399,0.534 0.399,1.267 0,1.801 -0.166,0.221 -0.121,0.534 0.1,0.699 0.222,0.166 0.534,0.121 0.7,-0.1 0.666,-0.888 0.666,-2.11 0,-2.999 z" stroke-miterlimit="10" fill="#000000" stroke="none"/><path style="" d="m 23.1,13.3 c -0.166,-0.221 -0.479,-0.266 -0.699,-0.1 -0.221,0.165 -0.266,0.479 -0.101,0.7 0.934,1.244 0.934,2.955 0,4.199 -0.165,0.222 -0.12,0.535 0.101,0.7 0.221,0.166 0.533,0.121 0.699,-0.1 1.2,-1.599 1.2,-3.799 0,-5.399 z" stroke-miterlimit="10" fill="#000000" stroke="none"/><path style="" d="M 24.7,12.1 C 24.534,11.879 24.221,11.834 24,12 c -0.221,0.166 -0.266,0.479 -0.1,0.7 1.467,1.955 1.467,4.645 0,6.6 -0.166,0.221 -0.121,0.534 0.1,0.7 0.221,0.166 0.534,0.121 0.7,-0.1 1.734,-2.311 1.734,-5.489 0,-7.8 z" stroke-miterlimit="10" fill="#000000" stroke="none"/><path style="" d="m 26.3,10.9 c -0.165,-0.222 -0.479,-0.266 -0.7,-0.101 -0.221,0.166 -0.266,0.479 -0.1,0.7 2,2.667 2,6.333 0,9 -0.166,0.221 -0.121,0.534 0.1,0.7 0.221,0.165 0.535,0.121 0.7,-0.101 2.266,-3.02 2.266,-7.176 0,-10.198 z" stroke-miterlimit="10" fill="#000000" stroke="none"/><path style="" d="M 27.9,9.7 C 27.734,9.479 27.421,9.434 27.2,9.599 c -0.222,0.166 -0.267,0.479 -0.101,0.7 2.533,3.378 2.533,8.022 0,11.4 -0.166,0.221 -0.121,0.534 0.101,0.7 0.221,0.165 0.534,0.12 0.7,-0.101 2.8,-3.732 2.8,-8.864 0,-12.598 z" stroke-miterlimit="10" fill="#000000" stroke="none"/><path style="" d="m 17,13 h -5 v 2.5 H 10.203 C 9.818,15.5 9.439,15.398 9.105,15.206 7.89,14.504 6.358,14.678 5.331,15.634 5.24,15.719 5.143,15.795 5.039,15.863 4.025,16.527 2.665,16.244 2,15.23 v 1.411 c 1.235,0.867 2.908,0.752 4.013,-0.275 0.706,-0.657 1.758,-0.776 2.593,-0.294 0.486,0.28 1.037,0.428 1.598,0.428 H 12 V 19 h 5 c 0.364,0 0.699,0.197 0.875,0.516 0.16,0.29 0.525,0.396 0.815,0.234 C 18.88,19.645 19,19.443 19,19.226 v -6.451 c 0,-0.331 -0.269,-0.6 -0.6,-0.6 -0.219,0 -0.42,0.118 -0.525,0.31 C 17.699,12.803 17.364,13 17,13 z" stroke-miterlimit="10" fill="#000000" stroke="none"/></svg>
