<?xml version="1.0" standalone="no"?>
<!DOCTYPE svg PUBLIC "-//W3C//DTD SVG 20010904//EN"
 "http://www.w3.org/TR/2001/REC-SVG-20010904/DTD/svg10.dtd">
<svg version="1.0" xmlns="http://www.w3.org/2000/svg"
 width="940.000000pt" height="980.000000pt" viewBox="0 0 940.000000 980.000000"
 preserveAspectRatio="xMidYMid meet">

<g transform="translate(0.000000,980.000000) scale(0.100000,-0.100000)"
fill="#000000" stroke="none">
<path d="M8970 9793 c-30 -2 -255 -17 -500 -33 -673 -46 -998 -74 -1012 -88
-13 -13 -698 -2255 -698 -2286 0 -10 16 -17 48 -22 26 -5 508 -8 1072 -9
l1025 0 57 255 c237 1059 416 1888 425 1972 5 49 2 65 -21 112 -42 86 -74 101
-221 102 -66 1 -145 0 -175 -3z"/>
<path d="M6740 9643 c-25 -2 -218 -14 -430 -28 -389 -26 -706 -50 -792 -61
l-47 -6 -102 -256 c-107 -272 -560 -1436 -674 -1735 -38 -97 -65 -180 -61
-185 14 -13 335 -20 1013 -21 l672 -1 25 83 c13 45 111 367 216 716 105 349
247 819 316 1045 69 226 127 421 131 434 5 22 5 22 -108 20 -63 -1 -134 -3
-159 -5z"/>
<path d="M4800 9513 c-337 -17 -1496 -96 -1665 -114 -177 -18 -185 -22 -253
-149 -80 -148 -892 -1863 -892 -1885 0 -3 492 -5 1094 -5 l1093 0 21 53 c11
28 107 273 212 542 301 770 590 1523 590 1538 0 15 -54 28 -105 25 -16 -1 -59
-3 -95 -5z"/>
<path d="M1521 6363 c-334 -715 -474 -1024 -467 -1030 7 -7 155 -18 706 -53
1175 -74 1529 -91 1553 -78 31 16 103 183 312 722 308 798 387 1008 380 1015
-4 3 -502 8 -1108 9 l-1102 4 -274 -589z"/>
<path d="M4451 6928 c-5 -13 -79 -205 -166 -428 -147 -379 -433 -1126 -485
-1268 -13 -37 -19 -67 -14 -72 9 -8 1056 -71 1547 -92 228 -9 270 -9 282 3 27
27 578 1849 564 1864 -7 6 -312 11 -865 13 l-854 3 -9 -23z"/>
<path d="M6616 6933 c-433 -1437 -566 -1883 -566 -1901 0 -7 6 -12 14 -12 8 0
230 -13 493 -30 462 -29 1374 -82 1655 -96 l137 -7 10 41 c17 62 139 597 277
1217 69 308 136 609 150 669 18 79 22 112 14 120 -8 8 -323 12 -1095 14 -1035
3 -1084 2 -1089 -15z"/>
<path d="M851 4903 c-39 -34 -799 -1680 -833 -1806 -6 -24 -8 -59 -4 -80 8
-45 62 -108 110 -131 18 -9 121 -27 227 -41 256 -32 1196 -137 1574 -174 165
-17 326 -33 357 -36 55 -6 58 -5 72 23 62 120 806 2074 806 2116 0 3 -19 7
-42 11 -66 8 -2134 135 -2214 135 -17 0 -41 -8 -53 -17z"/>
<path d="M3622 4743 c-7 -3 -19 -17 -26 -31 -18 -35 -816 -2100 -816 -2111 0
-12 23 -17 195 -40 635 -87 1781 -212 1816 -199 10 4 54 133 127 370 174 568
551 1828 558 1863 l6 32 -54 7 c-203 24 -1615 117 -1747 115 -25 0 -52 -3 -59
-6z"/>
<path d="M5925 4593 c-60 -148 -674 -2151 -691 -2254 l-6 -36 53 -6 c363 -44
1944 -218 2164 -238 150 -13 195 -6 249 41 42 37 48 54 86 215 79 334 372
1647 445 1990 13 66 27 130 30 142 7 30 54 25 -1035 93 -1276 79 -1284 79
-1295 53z"/>
<path d="M4210 1969 c-19 -12 -54 -39 -77 -62 l-43 -41 0 -327 0 -326 -92 -33
c-186 -65 -295 -129 -414 -242 -172 -164 -288 -408 -309 -653 -8 -92 4 -153
41 -203 41 -54 71 -63 238 -73 184 -10 2355 -11 2657 0 247 9 258 12 301 99
47 96 18 326 -66 506 -126 274 -357 480 -636 567 l-99 30 -3 252 c-4 368 6
356 -353 406 -359 50 -984 121 -1067 121 -26 0 -57 -9 -78 -21z"/>
</g>
</svg>
