<?xml version="1.0" encoding="UTF-8" standalone="no"?>
<svg
   xmlns:dc="http://purl.org/dc/elements/1.1/"
   xmlns:cc="http://creativecommons.org/ns#"
   xmlns:rdf="http://www.w3.org/1999/02/22-rdf-syntax-ns#"
   xmlns:svg="http://www.w3.org/2000/svg"
   xmlns="http://www.w3.org/2000/svg"
   xmlns:sodipodi="http://sodipodi.sourceforge.net/DTD/sodipodi-0.dtd"
   xmlns:inkscape="http://www.inkscape.org/namespaces/inkscape"
   version="1.1"
   x="0px"
   y="0px"
   viewBox="0 0 100 125"
   enable-background="new 0 0 100 100"
   xml:space="preserve"
   id="svg4547"
   sodipodi:docname="icon.svg"
   inkscape:version="0.92.1 r"><metadata
     id="metadata4553"><rdf:RDF><cc:Work
         rdf:about=""><dc:format>image/svg+xml</dc:format><dc:type
           rdf:resource="http://purl.org/dc/dcmitype/StillImage" /></cc:Work></rdf:RDF></metadata><defs
     id="defs4551" /><sodipodi:namedview
     pagecolor="#ffffff"
     bordercolor="#666666"
     borderopacity="1"
     objecttolerance="10"
     gridtolerance="10"
     guidetolerance="10"
     inkscape:pageopacity="0"
     inkscape:pageshadow="2"
     inkscape:window-width="1403"
     inkscape:window-height="832"
     id="namedview4549"
     showgrid="false"
     inkscape:zoom="4.78"
     inkscape:cx="18.136534"
     inkscape:cy="80.622414"
     inkscape:window-x="0"
     inkscape:window-y="23"
     inkscape:window-maximized="0"
     inkscape:current-layer="svg4547" /><path
     d="M12.5,95h75c4.1,0,7.5-3.4,7.5-7.5v-75C95,8.4,91.6,5,87.5,5h-75C8.4,5,5,8.4,5,12.5v75C5,91.6,8.4,95,12.5,95z M10,12.5  c0-1.4,1.1-2.5,2.5-2.5h75c1.4,0,2.5,1.1,2.5,2.5v75c0,1.4-1.1,2.5-2.5,2.5h-75c-1.4,0-2.5-1.1-2.5-2.5V12.5z"
     id="path4539" /><path
     d="M39.5,76.2c0.2,0.1,0.3,0.1,0.5,0.1h20c0.3,0,0.6-0.1,0.9-0.4l7.5-7.5c0,0,0,0,0,0c0.1-0.1,0.2-0.2,0.2-0.4c0,0,0-0.1,0-0.1  c0-0.1,0.1-0.2,0.1-0.3c0,0,0,0,0-0.1c0,0,0,0,0,0c0-0.1,0-0.3-0.1-0.4c0,0,0,0,0,0c0,0,0,0,0,0l-7.4-17.3V25c0-0.7-0.6-1.3-1.3-1.3  H40c-0.7,0-1.3,0.6-1.3,1.3v50c0,0.2,0,0.3,0.1,0.5C39,75.8,39.2,76,39.5,76.2z M59.5,73.8H43l5-5h16.5L59.5,73.8z M41.3,72V56.1  L46,67.2L41.3,72z M65.6,66.3H48.3l-6.4-15h17.3L65.6,66.3z M58.8,26.3v22.5H41.3V26.3H58.8z"
     id="path4541" /></svg>