<?xml version="1.0" encoding="utf-8"?>
<!-- Generator: Adobe Illustrator 21.0.0, SVG Export Plug-In . SVG Version: 6.00 Build 0)  -->
<svg version="1.1" id="Layer_1" xmlns="http://www.w3.org/2000/svg" xmlns:xlink="http://www.w3.org/1999/xlink" x="0px" y="0px"
	 viewBox="0 0 349.5 349.5" style="enable-background:new 0 0 349.5 349.5;" xml:space="preserve">
<style type="text/css">
	.st0{fill-rule:evenodd;clip-rule:evenodd;}
</style>
<g>
	<g>
		<path d="M330.7,347H18.8c-9,0-16.3-7.3-16.3-16.3V18.8c0-9,7.3-16.3,16.3-16.3h311.9c9,0,16.3,7.3,16.3,16.3v311.9
			C347,339.7,339.7,347,330.7,347z M18.8,6.7c-6.6,0-12,5.4-12,12v311.9c0,6.6,5.4,12,12,12h311.9c6.6,0,12-5.4,12-12V18.8
			c0-6.6-5.4-12-12-12H18.8z"/>
	</g>
</g>
<g>
	<g>
		<path d="M174.7,290c-63.5,0-115.2-51.7-115.2-115.2S111.2,59.5,174.7,59.5S290,111.2,290,174.7S238.3,290,174.7,290z M174.7,62.3
			c-62,0-112.4,50.4-112.4,112.4c0,62,50.4,112.4,112.4,112.4c62,0,112.4-50.4,112.4-112.4C287.1,112.8,236.7,62.3,174.7,62.3z"/>
	</g>
</g>
<g>
	<g>
		<path d="M174.7,260.6c-47.4,0-85.9-38.5-85.9-85.9s38.5-85.9,85.9-85.9s85.9,38.5,85.9,85.9S222.1,260.6,174.7,260.6z M174.7,90.3
			c-46.6,0-84.5,37.9-84.5,84.5s37.9,84.5,84.5,84.5s84.5-37.9,84.5-84.5S221.3,90.3,174.7,90.3z"/>
	</g>
</g>
<g>
	<g>
		<path d="M313.2,345.2l-2.8-0.6c25.8-112.7,25.8-227,0-339.6l2.8-0.6C339.2,117.4,339.2,232.1,313.2,345.2z"/>
	</g>
</g>
<g>
	<g>
		<path d="M182.9,82c-0.3,0-0.5-0.1-0.8-0.3l-7.4-7.4l-7.4,7.4c-0.4,0.4-1.1,0.4-1.5,0c-0.4-0.4-0.4-1.1,0-1.5l8.9-8.9l8.9,8.9
			c0.4,0.4,0.4,1.1,0,1.5C183.5,81.9,183.2,82,182.9,82z"/>
	</g>
</g>
<g>
	<g>
		<path d="M174.7,278.4l-8.9-8.9c-0.4-0.4-0.4-1.1,0-1.5c0.4-0.4,1.1-0.4,1.5,0l7.4,7.4l7.4-7.4c0.4-0.4,1.1-0.4,1.5,0
			c0.4,0.4,0.4,1.1,0,1.5L174.7,278.4z"/>
	</g>
</g>
<g>
	<path d="M177.9,237.7v-14c0-1.8-1.4-3.2-3.2-3.2c-1.8,0-3.2,1.4-3.2,3.2v14.1c-1.1,0.9-1.7,2.3-1.7,3.7c0,2.7,2.2,4.9,4.9,4.9
		c2.7,0,4.9-2.2,4.9-4.9C179.7,240.1,179,238.7,177.9,237.7z M174.7,221.6c1.1,0,2.1,0.9,2.1,2.1v7.7h-4.2v-7.7
		C172.6,222.5,173.5,221.6,174.7,221.6z"/>
</g>
<g>
	<path d="M174.7,96.1c-43.3,0-78.6,35.3-78.6,78.6s35.3,78.6,78.6,78.6s78.6-35.3,78.6-78.6S218.1,96.1,174.7,96.1z M174.7,251.2
		c-42.2,0-76.5-34.3-76.5-76.5c0-42.2,34.3-76.5,76.5-76.5c42.2,0,76.5,34.3,76.5,76.5C251.2,216.9,216.9,251.2,174.7,251.2z"/>
	<path d="M223.9,158.1c3.9,0,7.1-3.2,7.1-7.1s-3.2-7.1-7.1-7.1s-7.1,3.2-7.1,7.1S220,158.1,223.9,158.1z M219.1,151.1
		c0-2.6,2.1-4.8,4.8-4.8c2.6,0,4.8,2.1,4.8,4.8c0,2.6-2.1,4.8-4.8,4.8C221.2,155.8,219.1,153.7,219.1,151.1z"/>
	<path d="M143.6,200H125l0,0c-0.1,0-0.4,0.1-3.1,2.9l-0.1,0.1l0.1,0.1c2.1,2.9,2.3,2.9,2.5,3l18.6,0c0.1,0,0.4-0.1,3.1-2.9l0.1-0.1
		l-0.1-0.1C144,200,143.8,200,143.6,200z"/>
	<path d="M147.2,173.4L147.2,173.4l-19.2,0l0,0c-0.9,0.8-1.9,1.8-2.9,2.9l-0.1,0.1l0.1,0.1c0.7,1.1,1.5,2.1,2.2,2.9l0,0h19.1l0,0
		c0.9-0.8,1.9-1.8,2.9-2.9l0.1-0.1l-0.1-0.1C148.6,175.2,147.9,174.3,147.2,173.4z"/>
	<path d="M124.3,199l2.3-18.6c0-0.1,0-0.4-2.6-2.8l-0.1-0.1l-0.1,0.1c-2.8,2.1-3.2,2.6-3.3,2.8l-2.3,18.6c0,0.1,0,0.4,2.6,2.8
		l0.1,0.1l0.1-0.1C124.2,199.4,124.3,199.1,124.3,199z"/>
	<path d="M153.6,150.9L153.6,150.9l-0.2,0c-3.2,2.4-3.3,2.7-3.3,2.8l-2.3,18.6c0,0.1,0,0.4,2.6,2.8l0.1,0.1l0.1-0.1
		c3.2-2.4,3.3-2.7,3.3-2.8l2.3-18.6C156.2,153.6,156.2,153.4,153.6,150.9z"/>
	<path d="M130.8,152.9l18.6,0c0.1,0,0.4-0.1,3.1-2.9l0.1-0.1l-0.1-0.1c-2.1-2.9-2.3-2.9-2.5-3h-18.6l0,0c-0.1,0-0.4,0.1-3.1,2.9
		l-0.1,0.1l0.1,0.1C130.4,152.8,130.7,152.9,130.8,152.9z"/>
	<path d="M176.4,152.7l-2.4,19.4l0,0c2.4,3.1,2.6,3.1,2.7,3.1h0l0,0c3.4-2.8,3.4-3,3.4-3.1l3.1-25.2l0-0.3L176.4,152.7L176.4,152.7z
		"/>
	<path d="M176.5,177.6L176.5,177.6L176.5,177.6c-3.5,2.8-3.5,3-3.5,3.1l-2.3,19.1l0,0.1l0,0c5.1,6.1,5.3,6.1,5.4,6.1h0.1l3.1-25.3
		l0-0.1l0,0C176.8,177.6,176.6,177.6,176.5,177.6z"/>
	<path d="M224.5,186.6L224.5,186.6l-0.1,0c-2.6,1.6-2.6,1.8-2.6,1.9l-1.5,12.3c0,0.1,0,0.3,2.2,1.9l0.1,0l0.1,0
		c2.6-1.6,2.6-1.8,2.6-1.9l1.5-12.3C226.7,188.4,226.7,188.2,224.5,186.6z"/>
	<path d="M208.2,170.3l15.1,0c0.1,0,0.3,0,2.5-1.9l0.1-0.1l-0.1-0.1c-1.7-1.9-1.9-1.9-2.1-2h-15.1l0,0c-0.1,0-0.3,0-2.5,1.9
		l-0.1,0.1l0.1,0.1C207.9,170.3,208.1,170.3,208.2,170.3z"/>
	<path d="M226.7,169L226.7,169l-0.1,0c-2.6,1.6-2.6,1.8-2.6,1.9l-1.5,12.3c0,0.1,0,0.3,2.2,1.9l0.1,0l0.1,0c2.6-1.6,2.6-1.8,2.6-1.9
		l1.5-12.3C228.9,170.7,228.8,170.6,226.7,169z"/>
	<path d="M203.8,200.6l1.5-12.3c0-0.1,0-0.3-2.2-1.9l-0.1,0l-0.1,0c-2.6,1.6-2.6,1.8-2.6,1.9l-1.5,12.3c0,0.1,0,0.3,2.2,1.9l0.1,0
		l0.1,0C203.7,200.9,203.8,200.7,203.8,200.6z"/>
	<path d="M219.5,201.3h-15.1l0,0c-0.1,0-0.3,0-2.5,1.9l-0.1,0.1l0.1,0.1c1.7,1.9,1.9,1.9,2.1,2l15.1,0c0.1,0,0.3,0,2.5-1.9l0.1-0.1
		l-0.1-0.1C219.8,201.3,219.6,201.3,219.5,201.3z"/>
	<path d="M203.2,185L203.2,185l0.1,0c2.6-1.6,2.6-1.8,2.6-1.9l1.5-12.3c0-0.1,0-0.3-2.2-1.9l-0.1-0.1l-0.1,0
		c-2.6,1.6-2.6,1.8-2.6,1.9l-1.5,12.3C201,183.2,201,183.4,203.2,185z"/>
	<polygon points="184.4,206.1 190,206.1 190.7,200.5 185.1,200.5 	"/>
</g>
</svg>
