<svg xmlns="http://www.w3.org/2000/svg" data-name="Layer 106" viewBox="0 0 100 125" x="0px" y="0px"><title>Wash Machine</title><path d="M19.67,74.89h6.72a27.93,27.93,0,1,0,0-29.78H19.67a1.5,1.5,0,0,0-1.5,1.5V73.39A1.5,1.5,0,0,0,19.67,74.89ZM26,53.36a24.15,24.15,0,0,1,3-6.73,24.93,24.93,0,1,1,0,26.74,24.15,24.15,0,0,1-3-6.73,24.68,24.68,0,0,1,0-13.28Zm-4.81-5.25h3.57a27.81,27.81,0,0,0,0,23.78H21.17Z"/><path d="M50,80.87A20.87,20.87,0,1,0,29.13,60,20.89,20.89,0,0,0,50,80.87Zm0-38.74A17.87,17.87,0,1,1,32.13,60,17.89,17.89,0,0,1,50,42.13Z"/><path d="M18.11,3.5A7.12,7.12,0,0,0,11,10.61V89.39a7.12,7.12,0,0,0,7.11,7.11H81.89A7.12,7.12,0,0,0,89,89.39V10.61A7.12,7.12,0,0,0,81.89,3.5ZM86,89.39a4.11,4.11,0,0,1-4.11,4.11H18.11A4.11,4.11,0,0,1,14,89.39V26.5H86Zm0-78.78V23.5H14V10.61A4.11,4.11,0,0,1,18.11,6.5H81.89A4.11,4.11,0,0,1,86,10.61Z"/><path d="M23.5,8.36A6.64,6.64,0,1,0,30.14,15,6.65,6.65,0,0,0,23.5,8.36Zm0,10.28A3.64,3.64,0,1,1,27.14,15,3.64,3.64,0,0,1,23.5,18.64Z"/><path d="M44.59,10.73A4.27,4.27,0,1,0,48.86,15,4.28,4.28,0,0,0,44.59,10.73Zm0,5.54A1.27,1.27,0,1,1,45.86,15,1.27,1.27,0,0,1,44.59,16.27Z"/><path d="M58.41,10.73A4.27,4.27,0,1,0,62.68,15,4.28,4.28,0,0,0,58.41,10.73Zm0,5.54A1.27,1.27,0,1,1,59.68,15,1.27,1.27,0,0,1,58.41,16.27Z"/><path d="M72.23,10.73A4.27,4.27,0,1,0,76.5,15,4.28,4.28,0,0,0,72.23,10.73Zm0,5.54A1.27,1.27,0,1,1,73.5,15,1.27,1.27,0,0,1,72.23,16.27Z"/></svg>
