<svg xmlns="http://www.w3.org/2000/svg" data-name="Layer 1" viewBox="0 0 100 125" x="0px" y="0px"><title>Artboard 14</title><path d="M79.47,70.83a4.12,4.12,0,0,0-3.54-2h0a4.12,4.12,0,0,0-3.54,2l-6,9.83A11.45,11.45,0,0,0,66,92a11,11,0,0,0,9.06,6l.84,0,.83,0a11,11,0,0,0,9.07-6,11.45,11.45,0,0,0-.37-11.31l-6-9.83Zm1,18.38A5,5,0,0,1,76.34,92a5.76,5.76,0,0,1-.84,0,5,5,0,0,1-4.15-2.77,5.5,5.5,0,0,1,.17-5.43l4.4-7.23,4.4,7.24A5.5,5.5,0,0,1,80.5,89.22ZM33.81,19.93A8,8,0,0,0,26,26.4h-9.1a8,8,0,0,0-8,8v5.14a8,8,0,0,0,8,8H26A8,8,0,0,0,33.81,54H51.49a8,8,0,0,0,7.85-6.47h6v2.16a8,8,0,0,0-4.64,7.25v.91a8,8,0,0,0,8,8H83.14a8,8,0,0,0,8-8v-.91a8,8,0,0,0-4.64-7.25V34.39a8,8,0,0,0-8-8H59.33a8,8,0,0,0-7.85-6.47h-.71V18h2.11a8,8,0,0,0,0-16H32.69a8,8,0,1,0,0,16H34.8v1.95Zm4-7.95H32.69a2,2,0,1,1,0-4h20.2a2,2,0,0,1,0,4H47.78a3,3,0,0,0-3,3v7.95a3,3,0,0,0,3,3h3.71a2,2,0,0,1,2,2V29.4a3,3,0,0,0,3,3h22a2,2,0,0,1,2,2V52a3,3,0,0,0,2.79,3,2,2,0,0,1,1.85,2v.91a2,2,0,0,1-2,2H68.71a2,2,0,0,1-2-2v-.91a2,2,0,0,1,1.85-2,3,3,0,0,0,2.79-3V44.53a3,3,0,0,0-3-3H56.48a3,3,0,0,0-3,3V46a2,2,0,0,1-2,2H33.81a2,2,0,0,1-2-2V44.53a3,3,0,0,0-3-3h-12a2,2,0,0,1-2-2V34.39a2,2,0,0,1,2-2h12a3,3,0,0,0,3-3V27.92a2,2,0,0,1,2-2h4a3,3,0,0,0,3-3V15A3,3,0,0,0,37.8,12Z"/></svg>
