<svg xmlns="http://www.w3.org/2000/svg" data-name="Home Automation" viewBox="0 0 60 75" x="0px" y="0px"><title>Home Automation - 079 - Windows Open</title><path d="M42.00027,52H2a1,1,0,0,1-1-1V9A1,1,0,0,1,2,8H58a1,1,0,0,1,1,1V51a1,1,0,0,1-1,1H51" fill="none" stroke="#000" stroke-linejoin="round" stroke-width="2"/><line x1="30" y1="8" x2="30" y2="52" fill="none" stroke="#000" stroke-linecap="round" stroke-linejoin="round" stroke-width="2"/><rect x="5" y="12" width="21" height="36" rx="1" ry="1" fill="none" stroke="#000" stroke-linecap="round" stroke-linejoin="round" stroke-width="2"/><path d="M42.35406,23.69849,55,12V47.5362a1,1,0,0,1-.35406.76339l-11,10.46188A1,1,0,0,1,42,57.99808V24.46188A1,1,0,0,1,42.35406,23.69849Z" fill="none" stroke="#000" stroke-linecap="round" stroke-linejoin="round" stroke-width="2"/><line x1="9" y1="16" x2="9" y2="16" fill="none" stroke="#000" stroke-linecap="round" stroke-linejoin="round" stroke-width="2"/><line x1="13" y1="16" x2="19" y2="16" fill="none" stroke="#000" stroke-linecap="round" stroke-linejoin="round" stroke-width="2"/><line x1="42" y1="27" x2="42" y2="27" fill="none" stroke="#000" stroke-linecap="round" stroke-linejoin="round" stroke-width="2"/><path d="M55,12H35a1,1,0,0,0-1,1V47a1,1,0,0,0,1,1h7" fill="none" stroke="#000" stroke-linecap="round" stroke-linejoin="round" stroke-width="2"/><line x1="51.98807" y1="22" x2="46" y2="27" fill="none" stroke="#000" stroke-linecap="round" stroke-linejoin="round" stroke-width="2"/><line x1="42" y1="38" x2="46" y2="40" fill="none" stroke="#000" stroke-linecap="round" stroke-linejoin="round" stroke-width="2"/></svg>
