<?xml version="1.0" encoding="utf-8"?>
<!-- Generator: Adobe Illustrator 21.1.0, SVG Export Plug-In . SVG Version: 6.00 Build 0)  -->
<svg version="1.1" id="Laag_1" xmlns="http://www.w3.org/2000/svg" xmlns:xlink="http://www.w3.org/1999/xlink" x="0px" y="0px"
	 viewBox="0 0 595.3 595.3" style="enable-background:new 0 0 595.3 595.3;" xml:space="preserve">
<style type="text/css">
	.st0{fill:none;stroke:#2B2A29;stroke-width:3;}
	.st1{fill:#2B2A29;stroke:#2B2A29;stroke-width:3;}
	.st2{fill:none;stroke:#2B2A29;stroke-width:3;stroke-linecap:round;stroke-linejoin:round;}
</style>
<g id="Слой_x0020_1">
	<path class="st0" d="M253.1,35.6l149.2,6.1c37.6,1.5,58,35,48.5,71.8l-74.7,290c-9.5,36.8-52.7,68.2-89.9,63l-148.6-21
		c-37.2-5.2-63.3-36.8-52.5-73.2l82.5-278.8C178.2,57.1,215.5,34,253.1,35.6z"/>
	<path class="st0" d="M436.5,55.1l0.1,0.1c-1.2-1.2-2.6-2.3-3.9-3.3C434.1,52.7,435.4,53.7,436.5,55.1z M447.2,69.6l51.2,69.1
		c21.7,29.3,41.9,49.3,33.1,85l-64.6,261.4c-8.8,35.6-47.8,61.9-83.8,56.4l-127.2-19.4c-25.4-3.9-35.1-8.8-67.7-31.8L112.3,437v0
		c7.5,4.2,16,7.1,25.3,8.4l148.6,21c37.2,5.3,80.5-26.2,89.9-63l74.7-290C454.9,97.4,453.4,82.1,447.2,69.6z"/>
	<path class="st0" d="M249.7,481.1c25.8,5,51.7,15.3,57.8,23c6.1,7.7-9.9,9.9-35.8,4.9c-25.8-5-51.7-15.3-57.8-23
		S223.8,476.1,249.7,481.1z"/>
	<polygon class="st1" points="180.9,264.8 203,255.4 219,313 196.3,323.1 	"/>
	<polygon class="st1" points="335.6,278.9 318.8,265.4 270.6,320.2 287.4,333.8 	"/>
	<polygon class="st1" points="300.4,155.3 278.3,154.1 260.6,216.7 283,217.7 	"/>
	<polygon class="st1" points="348.8,158.1 326.6,156.9 309.1,218.9 331.4,220.5 	"/>
	<polygon class="st1" points="253.3,152.4 231.2,151.3 213.8,213.7 235.9,215 	"/>
	<path class="st1" d="M214.3,157.3l21.2,0.1c7.2,0-7.8,14.9-11.3,23.7c-3.6,9.1,5.5,19.1-0.5,23.2c-0.9,0.6-3.3,1.1-6.2,1.1
		l-16.4-0.1c-10.6-0.1-19.6-13.8-14.3-27C192,165.1,204,157.2,214.3,157.3z"/>
	<path class="st1" d="M350.2,214.9l-21.2-0.1c-7.2,0,7.8-14.9,11.3-23.7c3.6-9.1-5.5-19.1,0.5-23.2c0.9-0.6,3.3-1.1,6.2-1.1
		l16.4,0.1c10.6,0.1,19.6,13.8,14.3,27S360.6,215,350.2,214.9z"/>
	<path class="st2" d="M262.9,489.1c9.5,2.4,16.7,6.1,16.7,8.4c0,2.5-8.4,2.7-18.7,0.3c-10.3-2.4-18.6-6.3-18.6-8.9
		c0-1.3,2.2-2,6.2-2"/>
	<line class="st2" x1="253.7" y1="487.4" x2="263.2" y2="494.3"/>
</g>
</svg>
