<?xml version="1.0" encoding="utf-8"?>
<!-- Generator: Adobe Illustrator 16.0.0, SVG Export Plug-In . SVG Version: 6.00 Build 0)  -->
<!DOCTYPE svg PUBLIC "-//W3C//DTD SVG 1.1//EN" "http://www.w3.org/Graphics/SVG/1.1/DTD/svg11.dtd">
<svg version="1.1" id="Capa_1" xmlns="http://www.w3.org/2000/svg" xmlns:xlink="http://www.w3.org/1999/xlink" x="0px" y="0px"
	 width="611.98px" height="611.98px" viewBox="0 0 611.98 611.98" enable-background="new 0 0 611.98 611.98" xml:space="preserve">
<g>
	<g>
		<path d="M165.972,387.277h21.756l35.357-35.356h-39.428v-92.256h72.004c4.701,0,9.187-1.892,12.541-5.217l81.793-82.352v52.928
			l35.357-35.357v-60.439c0-7.152-4.357-13.644-10.992-16.339c-6.564-2.751-14.146-1.232-19.264,3.871L248.267,224.307h-82.295
			c-9.817,0-17.671,7.911-17.671,17.671v127.614C148.3,379.367,156.168,387.277,165.972,387.277z"/>
		<path d="M349.996,439.575l-54.763-54.82l-24.995,24.996l84.904,85.074c3.382,3.383,7.911,5.175,12.541,5.175
			c2.265,0,4.543-0.415,6.735-1.348c6.592-2.723,10.949-9.187,10.949-16.339V294.649l-35.356,35.358v109.568H349.996z"/>
		<path d="M525.45,102.053c-3.784-3.797-8.771-5.661-13.745-5.661c-4.973,0-9.932,1.863-13.744,5.661L385.354,214.676
			l-35.357,35.357L248.081,351.921l-35.357,35.356L107.697,492.333c-7.596,7.597-7.596,19.893,0,27.488
			c3.798,3.798,8.757,5.69,13.73,5.69c4.987,0,9.947-1.906,13.745-5.69L257.74,397.253l25.038-25.024l67.218-67.232l35.357-35.357
			L525.45,129.528C533.046,121.975,533.046,109.65,525.45,102.053z"/>
	</g>
</g>
</svg>
