<?xml version="1.0" encoding="utf-8"?>
<!-- Generator: Adobe Illustrator 16.0.0, SVG Export Plug-In . SVG Version: 6.00 Build 0)  -->
<!DOCTYPE svg PUBLIC "-//W3C//DTD SVG 1.1//EN" "http://www.w3.org/Graphics/SVG/1.1/DTD/svg11.dtd">
<svg version="1.1" id="Capa_1" xmlns="http://www.w3.org/2000/svg" xmlns:xlink="http://www.w3.org/1999/xlink" x="0px" y="0px"
	 width="180.056px" height="169.687px" viewBox="154.778 0 180.056 169.687" enable-background="new 154.778 0 180.056 169.687"
	 xml:space="preserve">
<g>
	<path fill="#030104" d="M264.433,43.535c-7.067-3.681-15.706-4.385-22.978-2.217c-6.07,1.784-11.363,5.154-15.273,9.686
		c-0.082,0.017-0.163,0.008-0.245,0.024c0.058,0.033,0.099,0.065,0.155,0.106c-0.082,0.098-0.164,0.196-0.236,0.294
		c-0.033-0.041-0.066-0.082-0.099-0.114c0.221-0.442,0.482-0.859,0.72-1.292c4.793-4.777,9.456-8.777,14.315-11.682
		c5.015-3.019,10.086-4.638,15.437-5.014c5.35-0.385,11.075,0.45,17.08,1.963c6.02,1.472,12.18,3.673,19.084,5.489
		c-3.828-6.021-9.039-10.888-15.297-14.561c-6.233-3.599-13.809-5.947-21.775-5.358c-7.968,0.499-15.73,4.376-20.836,9.972
		c-1.627,1.783-3.034,3.706-4.236,5.718c0.114-1.194,0.27-2.388,0.253-3.607c-0.032-7.575-3.215-15.648-8.785-21.342
		c-5.522-5.775-12.72-9.104-19.755-10.602c-7.1-1.464-14.242-1.342-21.113,0.564c6.348,3.264,12.393,5.759,17.857,8.704
		c5.464,2.896,10.283,6.103,13.997,9.972c3.722,3.861,6.405,8.458,8.106,14.062c1.382,4.483,2.151,9.448,2.585,14.864
		c-1.112-5.522-3.845-10.757-7.829-15.183c-5.055-5.645-12.777-9.587-20.729-10.152c-7.951-0.662-15.55,1.62-21.808,5.162
		c-6.291,3.615-11.542,8.442-15.428,14.421c6.912-1.767,13.096-3.902,19.133-5.325c6.004-1.456,11.738-2.241,17.088-1.808
		c5.342,0.417,10.397,2.078,15.387,5.145c2.602,1.579,5.146,3.501,7.681,5.661c-2.683-0.27-5.538,0.196-7.976,1.481
		c-3.239,1.636-5.628,4.327-7.207,7.19c-1.563,2.896-2.446,6.004-2.528,9.243c2.25-2.323,4.131-4.622,6.135-6.609
		c1.971-1.996,4-3.665,6.168-4.777c2.159-1.104,4.515-1.668,7.174-1.668c1.08-0.008,2.225,0.123,3.378,0.27
		c-2.323,3.174-4.466,6.487-6.397,9.914c-4.491,8.017-8.065,16.565-11.051,25.286c-2.986,8.719-5.391,17.652-7.346,26.684
		c-1.939,9.104-2.168,26.233-3.141,35.902l20.818-0.016c-0.785-8.197-2.332-25.393-2.176-34.014
		c0.171-8.721,0.777-17.465,1.955-26.119c1.194-8.663,2.961-17.269,5.693-25.604c1.194-3.616,2.625-7.182,4.253-10.659
		c0.72-0.172,1.416-0.327,2.119-0.491c0.172,0.041,0.335,0.065,0.516,0.106c-0.041-0.065-0.099-0.123-0.147-0.18
		c0.45-0.106,0.908-0.213,1.35-0.311c1.652,1.121,3.19,2.266,4.434,3.534c1.873,1.873,3.142,3.935,3.895,6.258
		c0.752,2.307,1.006,4.933,0.989,7.738c0.009,2.814-0.286,5.759-0.344,9.007c2.233-2.356,3.812-5.17,4.753-8.328
		c0.9-3.142,1.121-6.732-0.017-10.176c-1.079-3.452-3.632-6.446-6.65-8.082c-0.646-0.352-1.309-0.63-1.987-0.883
		c3.256-0.516,6.389-0.802,9.406-0.777c5.857,0,11.035,1.235,15.813,3.681c4.777,2.438,9.244,6.11,13.596,10.503
		c4.393,4.384,8.54,9.44,13.498,14.578c-0.172-7.134-2.111-13.997-5.571-20.377C276.826,53.073,271.558,47.15,264.433,43.535z"/>
</g>
<g>
	<path fill="#030104" d="M258.2,108.09c2.05-1.227,4.554-1.461,6.662-0.738c1.761,0.594,3.295,1.717,4.429,3.229
		c0.023,0.004,0.048,0.002,0.07,0.008c-0.016,0.01-0.027,0.021-0.045,0.035c0.025,0.032,0.049,0.064,0.068,0.098
		c0.01-0.014,0.02-0.027,0.029-0.038c-0.064-0.146-0.141-0.286-0.209-0.431c-1.39-1.592-2.742-2.925-4.15-3.893
		c-1.453-1.006-2.925-1.545-4.476-1.672c-1.552-0.127-3.212,0.15-4.952,0.656c-1.746,0.49-3.531,1.223-5.533,1.827
		c1.109-2.006,2.62-3.628,4.435-4.852c1.808-1.2,4.003-1.981,6.313-1.785c2.311,0.167,4.562,1.458,6.042,3.322
		c0.472,0.595,0.88,1.235,1.228,1.905c-0.032-0.398-0.078-0.795-0.072-1.201c0.009-2.525,0.932-5.215,2.547-7.113
		c1.602-1.924,3.688-3.032,5.728-3.531c2.06-0.488,4.13-0.447,6.122,0.188c-1.842,1.088-3.594,1.918-5.178,2.9
		c-1.584,0.965-2.981,2.034-4.059,3.323c-1.078,1.286-1.857,2.819-2.35,4.686c-0.401,1.493-0.625,3.147-0.75,4.952
		c0.322-1.84,1.115-3.584,2.27-5.059c1.467-1.881,3.705-3.194,6.011-3.383c2.306-0.221,4.509,0.539,6.323,1.721
		c1.824,1.203,3.347,2.813,4.473,4.805c-2.004-0.588-3.797-1.301-5.547-1.774c-1.742-0.484-3.404-0.747-4.955-0.602
		c-1.549,0.139-3.016,0.692-4.461,1.714c-0.755,0.527-1.492,1.166-2.229,1.887c0.779-0.09,1.606,0.064,2.313,0.493
		c0.939,0.546,1.633,1.442,2.091,2.396c0.452,0.965,0.708,2.002,0.732,3.081c-0.652-0.774-1.197-1.541-1.778-2.203
		c-0.572-0.665-1.16-1.221-1.789-1.591c-0.626-0.369-1.309-0.558-2.08-0.558c-0.313-0.002-0.645,0.042-0.979,0.091
		c0.674,1.058,1.296,2.162,1.854,3.303c1.303,2.672,2.34,5.52,3.205,8.428c0.865,2.904,1.563,5.881,2.129,8.891
		c0.563,3.033,0.629,8.742,0.912,11.964l-6.037-0.005c0.228-2.731,0.677-8.461,0.631-11.335c-0.051-2.905-0.225-5.819-0.566-8.704
		c-0.346-2.886-0.859-5.754-1.651-8.531c-0.347-1.205-0.761-2.393-1.233-3.552c-0.209-0.058-0.41-0.108-0.613-0.164
		c-0.051,0.014-0.098,0.022-0.15,0.036c0.012-0.022,0.029-0.042,0.043-0.061c-0.131-0.035-0.263-0.07-0.391-0.104
		c-0.48,0.373-0.926,0.755-1.285,1.178c-0.544,0.624-0.912,1.313-1.13,2.086c-0.218,0.768-0.292,1.644-0.287,2.578
		c-0.003,0.938,0.083,1.918,0.1,3.001c-0.647-0.785-1.105-1.722-1.378-2.774c-0.262-1.047-0.325-2.244,0.005-3.392
		c0.313-1.15,1.053-2.147,1.929-2.693c0.187-0.117,0.379-0.209,0.576-0.294c-0.944-0.172-1.854-0.268-2.729-0.258
		c-1.697,0-3.199,0.41-4.584,1.226c-1.386,0.812-2.681,2.036-3.941,3.499c-1.274,1.462-2.477,3.146-3.914,4.859
		c0.049-2.378,0.611-4.665,1.615-6.791C254.607,111.269,256.135,109.295,258.2,108.09z"/>
</g>
<path fill="#030104" d="M173.192,146.785"/>
<path fill="#030104" d="M166.304,157.828"/>
<path fill="#030104" d="M334.834,169.687c-17.75-29.887-50.5-41.583-62.834-36.25c-9.666,7.285-75.917,3.977-93.167,15.033
	c-14.75,3.447-22.923,10.959-23.896,21.217H334.834"/>
<path d="M154.778,169.687"/>
</svg>
