<?xml version="1.0" encoding="UTF-8" standalone="no"?>
<!-- Generator: Adobe Illustrator 16.0.0, SVG Export Plug-In . SVG Version: 6.00 Build 0)  -->

<svg
   xmlns:dc="http://purl.org/dc/elements/1.1/"
   xmlns:cc="http://creativecommons.org/ns#"
   xmlns:rdf="http://www.w3.org/1999/02/22-rdf-syntax-ns#"
   xmlns:svg="http://www.w3.org/2000/svg"
   xmlns="http://www.w3.org/2000/svg"
   xmlns:sodipodi="http://sodipodi.sourceforge.net/DTD/sodipodi-0.dtd"
   xmlns:inkscape="http://www.inkscape.org/namespaces/inkscape"
   version="1.1"
   id="Capa_1"
   x="0px"
   y="0px"
   width="583.312px"
   height="583.312px"
   viewBox="0 0 583.312 583.312"
   style="enable-background:new 0 0 583.312 583.312;"
   xml:space="preserve"
   sodipodi:docname="icon.svg"
   inkscape:version="0.92.1 r"><metadata
     id="metadata10561"><rdf:RDF><cc:Work
         rdf:about=""><dc:format>image/svg+xml</dc:format><dc:type
           rdf:resource="http://purl.org/dc/dcmitype/StillImage" /></cc:Work></rdf:RDF></metadata><defs
     id="defs10559" /><sodipodi:namedview
     pagecolor="#ffffff"
     bordercolor="#666666"
     borderopacity="1"
     objecttolerance="10"
     gridtolerance="10"
     guidetolerance="10"
     inkscape:pageopacity="0"
     inkscape:pageshadow="2"
     inkscape:window-width="1159"
     inkscape:window-height="832"
     id="namedview10557"
     showgrid="false"
     inkscape:zoom="0.78"
     inkscape:cx="222.02668"
     inkscape:cy="213.75699"
     inkscape:window-x="13"
     inkscape:window-y="27"
     inkscape:window-maximized="0"
     inkscape:current-layer="Capa_1" /><g
     id="g10524"
     transform="matrix(0.5603201,0,0,0.74997251,18.823529,-70.01916)"><path
       d="m 86.062,297.604 c -28.362,0 -51.427,23.074 -51.427,51.427 0,28.353 23.065,51.427 51.427,51.427 28.362,0 51.427,-23.074 51.427,-51.427 0,-28.353 -23.064,-51.427 -51.427,-51.427 z m 0,75.334 c -13.206,0 -23.906,-10.7 -23.906,-23.906 0,-13.206 10.7,-23.906 23.906,-23.906 13.206,0 23.906,10.7 23.906,23.906 0,13.206 -10.699,23.906 -23.906,23.906 z"
       id="path10508"
       inkscape:connector-curvature="0" /><path
       d="M 172.125,420.75 V 162.562 c 0,-10.566 -8.559,-19.125 -19.125,-19.125 H 19.125 C 8.559,143.438 0,151.996 0,162.562 V 420.75 c 0,10.566 8.559,19.125 19.125,19.125 H 153 c 10.566,0 19.125,-8.559 19.125,-19.125 z M 86.062,191.25 c 13.206,0 23.906,10.7 23.906,23.906 0,13.206 -10.7,23.906 -23.906,23.906 -13.206,0 -23.906,-10.7 -23.906,-23.906 0,-13.206 10.7,-23.906 23.906,-23.906 z m 0,219.507 c -34.033,0 -61.726,-27.692 -61.726,-61.726 0,-34.034 27.693,-61.726 61.726,-61.726 34.033,0 61.726,27.692 61.726,61.726 0,34.034 -27.693,61.726 -61.726,61.726 z"
       id="path10510"
       inkscape:connector-curvature="0" /><path
       d="M 392.062,392.062 V 363.374 H 191.25 v 28.688 c 0,10.566 8.559,19.125 19.125,19.125 h 162.562 c 10.567,10e-4 19.125,-8.558 19.125,-19.125 z"
       id="path10512"
       inkscape:connector-curvature="0" /><path
       d="m 392.062,286.875 c 0,-10.566 -8.559,-19.125 -19.125,-19.125 H 210.375 c -10.566,0 -19.125,8.559 -19.125,19.125 v 66.938 H 392.062 Z M 306,334.688 H 210.375 V 286.876 H 306 Z m 38.25,0 c -13.206,0 -23.906,-10.7 -23.906,-23.906 0,-13.206 10.7,-23.906 23.906,-23.906 13.206,0 23.906,10.7 23.906,23.906 0,13.206 -10.7,23.906 -23.906,23.906 z"
       id="path10514"
       inkscape:connector-curvature="0" /><path
       d="m 497.25,297.604 c -28.362,0 -51.427,23.074 -51.427,51.427 0,28.353 23.074,51.427 51.427,51.427 28.353,0 51.427,-23.074 51.427,-51.427 0,-28.353 -23.065,-51.427 -51.427,-51.427 z m 0,75.334 c -13.206,0 -23.906,-10.7 -23.906,-23.906 0,-13.206 10.7,-23.906 23.906,-23.906 13.206,0 23.906,10.7 23.906,23.906 0,13.206 -10.7,23.906 -23.906,23.906 z"
       id="path10516"
       inkscape:connector-curvature="0" /><path
       d="M 564.188,143.438 H 430.312 c -10.566,0 -19.125,8.559 -19.125,19.125 V 420.75 c 0,10.566 8.559,19.125 19.125,19.125 h 133.875 c 10.566,0 19.125,-8.559 19.125,-19.125 V 162.562 c 0,-10.566 -8.558,-19.124 -19.124,-19.124 z M 497.25,191.25 c 13.206,0 23.906,10.7 23.906,23.906 0,13.206 -10.7,23.906 -23.906,23.906 -13.206,0 -23.906,-10.7 -23.906,-23.906 0,-13.206 10.7,-23.906 23.906,-23.906 z m 0,219.507 c -34.033,0 -61.726,-27.692 -61.726,-61.726 0,-34.034 27.692,-61.726 61.726,-61.726 34.034,0 61.726,27.692 61.726,61.726 0,34.034 -27.693,61.726 -61.726,61.726 z"
       id="path10518"
       inkscape:connector-curvature="0" /><rect
       x="210.375"
       y="420.75"
       width="38.25"
       height="19.125"
       id="rect10520" /><rect
       x="334.68799"
       y="420.75"
       width="38.25"
       height="19.125"
       id="rect10522" /></g><g
     id="g10526" /><g
     id="g10528" /><g
     id="g10530" /><g
     id="g10532" /><g
     id="g10534" /><g
     id="g10536" /><g
     id="g10538" /><g
     id="g10540" /><g
     id="g10542" /><g
     id="g10544" /><g
     id="g10546" /><g
     id="g10548" /><g
     id="g10550" /><g
     id="g10552" /><g
     id="g10554" /><path
     id="path11172"
     d="m 540.82448,396.85769 c 0,75.23389 -65.86694,136.44538 -146.80988,136.44538 -80.95494,0 -146.82118,-61.21215 -146.82118,-136.44538 0,-38.90858 17.95595,-76.09454 49.26768,-101.96537 4.65451,-3.85392 11.81205,-3.48526 15.94845,0.86131 4.14699,4.34592 3.72771,10.94713 -0.92681,14.80104 -26.50334,21.93491 -41.70145,53.38098 -41.70145,86.30368 0,63.67211 55.73064,115.45378 124.23331,115.45378 68.50266,0 124.22201,-51.78234 124.22201,-115.45378 0,-32.9227 -15.17623,-64.36877 -41.64639,-86.26235 -4.6764,-3.85391 -5.11757,-10.4958 -0.97058,-14.80104 4.19146,-4.38725 11.33841,-4.75591 15.97033,-0.90198 31.27856,25.87017 49.23451,63.05613 49.23451,101.96471 z M 394.01389,365.3703 c 6.24272,0 11.29394,-4.67391 11.29394,-10.4958 V 249.91652 c 0,-5.78123 -5.05122,-10.49581 -11.29394,-10.49581 -6.24272,0 -11.29394,4.71525 -11.29394,10.49581 V 354.8745 c 0,5.82189 5.05192,10.4958 11.29394,10.4958 z"
     inkscape:connector-curvature="0"
     style="stroke-width:0.68047225" /></svg>