<?xml version="1.0" encoding="UTF-8" standalone="no"?>
<svg
   xmlns:dc="http://purl.org/dc/elements/1.1/"
   xmlns:cc="http://creativecommons.org/ns#"
   xmlns:rdf="http://www.w3.org/1999/02/22-rdf-syntax-ns#"
   xmlns:svg="http://www.w3.org/2000/svg"
   xmlns="http://www.w3.org/2000/svg"
   xmlns:sodipodi="http://sodipodi.sourceforge.net/DTD/sodipodi-0.dtd"
   xmlns:inkscape="http://www.inkscape.org/namespaces/inkscape"
   version="1.1"
   x="0px"
   y="0px"
   viewBox="0 0 100 125"
   enable-background="new 0 0 100 100"
   xml:space="preserve"
   id="svg12598"
   sodipodi:docname="icon.svg"
   inkscape:version="0.92.1 r"><metadata
     id="metadata12604"><rdf:RDF><cc:Work
         rdf:about=""><dc:format>image/svg+xml</dc:format><dc:type
           rdf:resource="http://purl.org/dc/dcmitype/StillImage" /><dc:title></dc:title></cc:Work></rdf:RDF></metadata><defs
     id="defs12602" /><sodipodi:namedview
     pagecolor="#ffffff"
     bordercolor="#666666"
     borderopacity="1"
     objecttolerance="10"
     gridtolerance="10"
     guidetolerance="10"
     inkscape:pageopacity="0"
     inkscape:pageshadow="2"
     inkscape:window-width="1168"
     inkscape:window-height="695"
     id="namedview12600"
     showgrid="false"
     inkscape:zoom="1.888"
     inkscape:cx="44.70339"
     inkscape:cy="62.5"
     inkscape:window-x="0"
     inkscape:window-y="23"
     inkscape:window-maximized="0"
     inkscape:current-layer="svg12598" /><path
     d="M62.481,77.91c-0.155,0-18.034-0.011-18.034-0.011c-1.638,0-2.772-0.649-3.111-1.78c-0.094-0.313-0.106-0.65-0.126-1.16  c-0.049-1.319-0.14-3.774-1.655-5.301c-5.932-5.975-8.553-14.781-8.661-15.153c-0.014-0.046-0.025-0.094-0.034-0.142  c-2.454-12.979-1.848-13.807-1.445-14.354c0.246-0.335,0.688-0.599,1.102-0.647c8.189-0.966,9.279,4.278,9.54,9.943  c0.23,0.211,0.521,0.483,0.839,0.795c0.015-6.774-0.115-20.864-0.117-21.04c0-2.272,0-6.97,4.518-6.97  c4.135,0,4.381,3.805,4.528,6.079l0.401,11.453c0.378-0.112,0.781-0.169,1.203-0.169c1.778,0.025,3.234,0.839,4.059,2.12  c0.544-0.253,1.159-0.394,1.814-0.394c2.4,0.006,3.799,1.121,4.34,2.5c0.529-0.149,1.099-0.212,1.63-0.18  c2.672,0.169,4.114,1.915,4.285,5.189c0.524,10.04,0.024,14.166-1.741,21.465c-0.067,0.315-0.178,4.705-0.251,5.438  C65.458,76.66,64.587,77.91,62.481,77.91z M62.609,74.906c0.041-0.618,0.154-4.902,0.289-5.459  c1.717-7.094,2.17-10.862,1.661-20.603c-0.11-2.103-0.683-2.301-1.479-2.351c-0.554,0.005-1.071,0.236-1.178,0.377  c-0.003,0.117-0.02,0.23-0.047,0.339c-0.146,0.668-0.742,1.152-1.459,1.152c-0.829,0-1.494-0.698-1.494-1.526v-1.754  c0-0.222,0-0.898-1.599-0.902c-0.793,0-1.079,0.54-1.079,0.902c0,0.829-0.672,1.5-1.5,1.5s-1.5-0.671-1.5-1.5v-0.947  c-0.015-1.216-0.926-1.668-1.774-1.681c-0.001,0-0.001,0-0.001,0c-0.333,0-0.561,0.086-0.739,0.271  c-0.25,0.259-0.354,0.648-0.346,0.901c0.028,0.828-0.619,1.522-1.447,1.551c-0.822,0.023-1.521-0.619-1.551-1.446v-0.001  c0-0.001,0-0.001,0-0.002l-0.54-15.408c-0.21-3.228-0.707-3.228-1.532-3.228c-0.94,0-1.518,0.191-1.518,3.956  c0.008,0.876,0.202,21.829,0.075,24.502c-0.053,1.132-0.882,1.724-1.673,1.724c-0.583,0-1.147-0.317-1.473-0.828  c-0.724-1.135-2.487-2.775-3.106-3.311c-0.314-0.273-0.502-0.664-0.517-1.08c-0.24-6.635-1.422-7.816-4.631-7.816  c-0.135,0-0.275,0.002-0.419,0.008c0.145,2.123,0.941,7.153,1.758,11.479c0.243,0.791,2.757,8.646,7.892,13.818  c2.341,2.358,2.465,5.698,2.524,7.303C44.209,74.86,62.514,74.911,62.609,74.906z M86.418,92.97H63.47V79.45h15.98V63.81h13.52  v22.294C92.97,89.89,90.03,92.97,86.418,92.97z M67.47,88.97h18.948c1.407,0,2.552-1.286,2.552-2.866V67.81h-5.52v15.64H67.47V88.97  z M36.19,92.97H13.896c-3.722,0-6.866-3.145-6.866-6.866V63.81h13.52v15.64H36.19V92.97z M11.03,67.81v18.294  c0,1.5,1.366,2.866,2.866,2.866H32.19v-5.52H16.55V67.81H11.03z M92.97,36.53H79.45V20.55H63.47V7.03h22.948  c3.735,0,6.552,2.817,6.552,6.552V36.53z M83.45,32.53h5.52V13.582c0-1.503-1.05-2.552-2.552-2.552H67.47v5.52h15.98V32.53z   M20.55,36.53H7.03V13.582c0-3.613,3.08-6.552,6.866-6.552H36.19v13.52H20.55V36.53z M11.03,32.53h5.52V16.55H32.19v-5.52H13.896  c-1.58,0-2.866,1.145-2.866,2.552V32.53z"
     id="path12592" /></svg>